<?xml version="1.0" standalone="no"?>
<!DOCTYPE svg PUBLIC "-//W3C//DTD SVG 1.1//EN" "http://www.w3.org/Graphics/SVG/1.1/DTD/svg11.dtd" >
<svg xmlns="http://www.w3.org/2000/svg">
<metadata></metadata>
<defs>
<font id="permiansanstypefaceregular" horiz-adv-x="500" >
<font-face units-per-em="1000" ascent="750" descent="-250" />
<missing-glyph horiz-adv-x="235" />
<glyph unicode="ff" horiz-adv-x="752" d="M101 0l-1 411l-55 1v88h57v77q0 72 47.5 127.5t133.5 55.5q73 0 120 -13l-17 -103q-8 2 -24 6.5t-22.5 6t-21 3t-32.5 1.5q-52 0 -52 -70v-91h215v77q0 79 57 131t144 52q30 0 75 -9t67 -11l-12 -102q-27 2 -70.5 12.5t-66.5 10.5q-37 0 -49.5 -15t-12.5 -75v-71h151 l-5 -93l-146 2v-316l5 -93h-138l-1 404l-213 4v-315l5 -93h-138z" />
<glyph unicode="fi" horiz-adv-x="635" d="M96 0l-1 411l-45 1v88h47v77q0 73 49.5 128t141.5 55q20 0 37 -2t38 -5.5t38 -5.5l-20 -102q-14 2 -43 9t-49 7q-60 0 -60 -70v-91l327 10v-417l5 -93h-138v405l-194 4v-316l5 -93h-138zM483 579q-32 0 -53.5 20.5t-21.5 52.5q0 33 23 51.5t59 18.5q34 0 54 -18t20 -50 q0 -35 -22 -55t-59 -20z" />
<glyph unicode="fl" horiz-adv-x="653" d="M95 0v411l-45 1v88h45v47q0 99 57 156t146 57q26 0 79 -10t89 -10q46 0 108 16v-663l5 -93h-138v487q0 37 2 76t4 59l2 21l-10 1q-28 0 -65 8.5t-63 8.5q-82 0 -82 -90v-71h171l-1 -93l-170 2v-316l5 -93h-139z" />
<glyph unicode="ffi" horiz-adv-x="995" d="M101 0l-1 412l-55 2v86h57v77q0 72 47.5 127.5t133.5 55.5q73 0 120 -13l-17 -103q-8 2 -24 6.5t-22.5 6t-21 3t-32.5 1.5q-52 0 -52 -70v-91h223v77q0 72 47.5 127.5t133.5 55.5q74 0 123 -13l-20 -102q-7 2 -22 6t-22.5 5.5t-22.5 3t-33 1.5q-52 0 -52 -70v-91l327 10 v-417l5 -93h-138v404l-194 4v-315l5 -93h-138l-1 404l-221 4v-315l5 -93h-138zM843 579q-32 0 -53.5 20.5t-21.5 52.5q0 33 23 51.5t59 18.5q34 0 54 -18t20 -50q0 -35 -22 -55t-59 -20z" />
<glyph unicode="ffl" horiz-adv-x="1015" d="M101 0l-1 411l-55 1v88h57v77q0 72 47.5 127.5t133.5 55.5q73 0 120 -13l-17 -103q-8 2 -24 6.5t-22.5 6t-21 3t-32.5 1.5q-52 0 -52 -70v-91h223v47q0 99 57 156t146 57q26 0 79 -10t89 -10q46 0 108 16v-663l5 -93h-138v437q0 56 2 107.5t4 75.5l2 23l-10 1 q-42 0 -77 8.5t-67 8.5q-29 0 -47.5 -23.5t-18.5 -66.5v-71h151l-5 -93l-146 2v-316l5 -93h-139v404l-223 4v-315l5 -93h-138z" />
<glyph unicode="fb" horiz-adv-x="982" d="M652 -9q-113 0 -206 40v418q0 50 2 98.5t4 72.5l2 23l-10 1q-8 0 -56.5 8.5t-87.5 8.5q-29 0 -47.5 -23.5t-18.5 -66.5v-71h151l-5 -93l-146 2v-316l5 -93h-138l-1 411l-55 1v88h55v47q0 99 57 156t146 57q26 0 79 -10t89 -10q46 0 108 16l-2 -296q35 27 64.5 39t72.5 12 q106 0 161.5 -67t55.5 -166q0 -136 -72 -211.5t-207 -75.5zM667 81q127 0 127 176q0 73 -27.5 113.5t-82.5 40.5q-53 0 -107 -33q2 -38 2 -96v-176q48 -25 88 -25z" />
<glyph unicode="ffb" horiz-adv-x="1339" d="M1009 -9q-113 0 -206 40v414q0 52 2 101.5t4 73.5l2 23l-10 1q-38 0 -74.5 8.5t-69.5 8.5q-29 0 -47.5 -23.5t-18.5 -66.5v-71h151l-5 -93l-146 2v-316l5 -93h-139v404l-223 4v-315l5 -93h-138l-1 411l-55 1v88h57v77q0 72 47.5 127.5t133.5 55.5q73 0 120 -13l-17 -103 q-8 2 -24 6.5t-22.5 6t-21 3t-32.5 1.5q-52 0 -52 -70v-91h223v47q0 99 57 156t146 57q26 0 79 -10t89 -10q46 0 108 16l-2 -296q35 27 64.5 39t72.5 12q106 0 161.5 -67t55.5 -166q0 -136 -72 -211.5t-207 -75.5zM1024 81q127 0 127 176q0 73 -27.5 113.5t-82.5 40.5 q-53 0 -107 -33q2 -38 2 -96v-176q48 -25 88 -25z" />
<glyph unicode="ffh" horiz-adv-x="1330" d="M101 0l-1 411l-55 1v88h57v77q0 72 47.5 127.5t133.5 55.5q73 0 120 -13l-17 -103q-8 2 -24 6.5t-22.5 6t-21 3t-32.5 1.5q-52 0 -52 -70v-91h223v47q0 99 57 156t146 57q26 0 79 -10t89 -10q46 0 108 16l-2 -305q37 30 71.5 45t82.5 15q79 0 123 -46t44 -122v-259l5 -83 h-138v297q0 57 -18.5 85t-62.5 28q-22 0 -42 -5.5t-29.5 -10t-35.5 -18.5q2 -20 2 -95v-198l5 -83h-138v446q0 51 2 100t4 73l2 23l-10 1q-30 0 -69.5 8.5t-74.5 8.5q-29 0 -47.5 -23.5t-18.5 -66.5v-71h151l-5 -93l-146 2v-316l5 -93h-139v404l-223 4v-315l5 -93h-138z" />
<glyph unicode="ffj" horiz-adv-x="996" d="M756 -257l-51 44q29 37 64 127q16 41 16 112v378l-196 4v-315l5 -93h-138l-1 404l-221 4v-315l5 -93h-138l-1 411l-55 1v88h57v77q0 72 47.5 127.5t133.5 55.5q73 0 120 -13l-17 -103q-8 2 -24 6.5t-22.5 6t-21 3t-32.5 1.5q-52 0 -52 -70v-91h223v77q0 72 47.5 127.5 t133.5 55.5q84 0 130 -12l-16 -102q-63 15 -111 15q-52 0 -52 -70v-91l329 10v-484q0 -76 -19 -111q-30 -58 -143 -172zM849 579q-32 0 -53.5 20.5t-21.5 52.5q0 33 23 51.5t59 18.5q34 0 54 -18t20 -50q0 -35 -22 -55t-59 -20z" />
<glyph unicode="ffk" horiz-adv-x="1274" d="M1113 -5l-161 214h-16v-116l5 -93h-138v431q0 58 2 111t4 77l2 24l-10 1q-36 0 -73 8.5t-71 8.5q-29 0 -47.5 -23.5t-18.5 -66.5v-71h151l-5 -93l-146 2v-316l5 -93h-139v404l-223 4v-315l5 -93h-138l-1 411l-55 1v88h57v77q0 72 47.5 127.5t133.5 55.5q73 0 120 -13 l-17 -103q-8 2 -24 6.5t-22.5 6t-21 3t-32.5 1.5q-52 0 -52 -70v-91h223v47q0 99 57 156t146 57q26 0 79 -10t89 -10q46 0 108 16v-458h35l68 87q28 35 49 65.5t28 43.5l6 12l116 -6q-33 -62 -106 -143l-78 -83l147 -200l60 -74z" />
<glyph unicode="fh" horiz-adv-x="973" d="M101 0l-1 411l-55 1v88h55v47q0 99 57 156t146 57q26 0 79 -10t89 -10q46 0 108 16l-2 -305q37 30 71.5 45t82.5 15q79 0 123 -46t44 -122v-259l5 -83h-138v297q0 57 -18.5 85t-62.5 28q-22 0 -42 -5.5t-29.5 -10t-35.5 -18.5q2 -20 2 -95v-198l5 -83h-138v434 q0 56 2 108t4 76l2 24l-10 1q-33 0 -71.5 8.5t-72.5 8.5q-29 0 -47.5 -23.5t-18.5 -66.5v-71h151l-5 -93l-146 2v-316l5 -93h-138z" />
<glyph unicode="fj" horiz-adv-x="641" d="M401 -257l-51 44q29 37 64 127q16 41 16 112v378l-196 4v-315l5 -93h-138l-1 411l-55 1v88h57v77q0 72 47.5 127.5t133.5 55.5q87 0 126 -11l-14 -103q-57 15 -109 15t-52 -70v-91l329 10v-484q0 -76 -19 -111q-30 -58 -143 -172zM494 579q-32 0 -53.5 20.5t-21.5 52.5 q0 33 23 51.5t59 18.5q34 0 54 -18t20 -50q0 -35 -22 -55t-59 -20z" />
<glyph unicode="fk" horiz-adv-x="917" d="M756 -5l-161 214h-16v-116l5 -93h-138v431q0 58 2 111t4 77l2 24l-10 1q-33 0 -71.5 8.5t-72.5 8.5q-29 0 -47.5 -23.5t-18.5 -66.5v-71h151l-5 -93l-146 2v-316l5 -93h-138l-1 411l-55 1v88h55v47q0 99 57 156t146 57q26 0 79 -10t89 -10q46 0 108 16v-458h35l68 87 q28 35 49 65.5t27 43.5l7 12l116 -6q-33 -62 -106 -143l-78 -83l147 -200l60 -74z" />
<glyph unicode=" "  horiz-adv-x="235" />
<glyph unicode="&#x09;" horiz-adv-x="235" />
<glyph unicode="&#xa0;" horiz-adv-x="235" />
<glyph unicode="!" horiz-adv-x="303" d="M97 220l-23 481l154 5l-22 -486h-109zM149 -15q-32 0 -54.5 22t-22.5 56q0 38 24.5 59.5t60.5 21.5q35 0 55.5 -20t20.5 -55q0 -40 -23 -62t-61 -22z" />
<glyph unicode="&#x22;" horiz-adv-x="400" d="M66 463l-8 238l134 5l-31 -243h-95zM228 463l-8 238l134 5l-31 -243h-95z" />
<glyph unicode="#" horiz-adv-x="700" d="M67 0l53 139h-65v104h105l44 116h-109v104h149l50 129h127l-48 -129h77l50 129h127l-48 -129h64v-104h-104l-45 -116h101v-104h-140l-54 -139h-128l53 139h-77l-54 -139h-128zM288 243h78l44 116h-77z" />
<glyph unicode="$" horiz-adv-x="515" d="M206 -153l10 139q-41 2 -82.5 12t-62.5 19l-21 9l28 90q82 -34 163 -34q99 0 99 81q0 28 -16 48t-42 33t-57 25t-62.5 28t-57.5 37.5t-42 58.5t-16 86q0 66 45.5 116t129.5 64l-10 146q21 7 55 7t53 -7l-13 -144q36 -3 70.5 -12t51.5 -17l17 -8l-29 -88q-73 30 -147 30 q-46 0 -69 -19t-23 -50q0 -37 30 -62.5t73 -43.5t86.5 -39.5t73.5 -64.5t30 -106q0 -76 -48 -125.5t-132 -62.5l13 -146q-20 -7 -49 -7t-49 7z" />
<glyph unicode="%" horiz-adv-x="990" d="M241 424q45 0 45 98q0 52 -10 80.5t-38 28.5q-45 0 -45 -97q0 -50 12.5 -80t35.5 -30zM231 337q-86 0 -137 52t-51 137q0 83 52.5 137.5t139.5 54.5q97 0 149.5 -48t52.5 -132q0 -88 -58 -144.5t-148 -56.5zM173 0l478 700h157l-477 -700h-158zM751 77q45 0 45 98 q0 52 -10 80.5t-38 28.5q-45 0 -45 -97q0 -50 12.5 -80t35.5 -30zM741 -10q-86 0 -137 52t-51 137q0 83 52.5 137.5t139.5 54.5q97 0 149.5 -48t52.5 -132q0 -88 -58 -144.5t-148 -56.5z" />
<glyph unicode="&#x26;" horiz-adv-x="722" d="M277 -10q-94 0 -158.5 50.5t-64.5 137.5q0 122 123 189q-78 92 -82 164q-5 79 48.5 131t149.5 52q89 0 144 -42t55 -120q0 -54 -41 -107.5t-103 -95.5l45 -51q47 -56 93 -100q53 69 112 192l80 -40q-72 -143 -123 -211q75 -57 115 -57h10v-82h-32q-52 0 -91 12t-82 45 q-87 -67 -198 -67zM273 259l-48 53q-36 -50 -36 -112q0 -57 31 -87.5t78 -30.5q55 0 107 36q-42 41 -132 141zM224 555q0 -26 13 -54.5t25.5 -46.5t36.5 -48q63 68 63 152q0 32 -16.5 52t-45.5 20q-36 0 -56 -19t-20 -56z" />
<glyph unicode="'" horiz-adv-x="238" d="M66 463l-8 238l134 5l-31 -243h-95z" />
<glyph unicode="(" horiz-adv-x="368" d="M332 -198q-143 81 -218.5 206.5t-75.5 280.5q0 174 76.5 309t213.5 204l31 -49q-108 -114 -150.5 -213.5t-42.5 -240.5q0 -101 23 -177t65 -135.5t119 -134.5z" />
<glyph unicode=")" horiz-adv-x="364" d="M36 -198l-31 49q108 114 150.5 213.5t42.5 240.5q0 101 -23 177t-65 135.5t-119 134.5l41 50q143 -81 218.5 -206.5t75.5 -280.5q0 -174 -76.5 -309t-213.5 -204z" />
<glyph unicode="*" horiz-adv-x="547" d="M128 439q-22 15 -28 39t9 51t51 46l65 36l-3 10l-69 -6q-55 -2 -89 21t-18 73q10 31 34.5 42.5t53 4t51.5 -30.5l60 -60l9 7l-32 66q-26 52 -13.5 91t68.5 39q52 0 66 -40t-14 -93l-34 -62l10 -7l57 59q40 41 81.5 36t57.5 -52q15 -47 -16.5 -70.5t-90.5 -23.5l-68 4 l-3 -10l64 -34q28 -14 46 -37.5t16 -51t-30 -47.5q-44 -28 -77 -6.5t-47 76.5l-16 65h-11l-16 -65q-14 -60 -51.5 -78.5t-72.5 8.5z" />
<glyph unicode="+" horiz-adv-x="512" d="M201 80v152h-151v106h151v153h108v-153h152v-106h-152v-152h-108z" />
<glyph unicode="," horiz-adv-x="275" d="M103 -184l-64 53q57 53 78 117q-28 5 -45 26t-17 51q0 38 24 60t59 22q36 0 58 -22.5t22 -68.5q0 -62 -33.5 -129t-81.5 -109z" />
<glyph unicode="-" horiz-adv-x="431" d="M70 232v109l291 10v-109z" />
<glyph unicode="." horiz-adv-x="274" d="M133 -15q-32 0 -54.5 22t-22.5 56q0 38 24.5 59.5t60.5 21.5q35 0 55.5 -20t20.5 -55q0 -40 -23 -62t-61 -22z" />
<glyph unicode="/" horiz-adv-x="525" d="M-52 -172l431 872h132l-430 -872h-133z" />
<glyph unicode="0" horiz-adv-x="617" d="M311 85q29 0 50 21t32 56.5t16 74.5t5 83q0 295 -106 295q-32 0 -53.5 -18.5t-32.5 -53.5t-15 -73t-4 -90q0 -295 108 -295zM297 -10q-74 0 -129 50t-81 125.5t-26 163.5q0 176 66 278.5t193 102.5q74 0 129 -50t81 -125.5t26 -163.5q0 -176 -66 -278.5t-193 -102.5z" />
<glyph unicode="1" horiz-adv-x="402" d="M169 0v591l-138 -14l-10 67l230 62h56v-706h-138z" />
<glyph unicode="2" horiz-adv-x="511" d="M27 0v70l100 107q173 186 173 317q0 114 -121 114q-29 0 -61 -4t-50 -8l-17 -3v82q66 35 178 35q95 0 152 -48.5t57 -140.5q0 -89 -49 -172t-156 -197l-59 -64l194 8l92 5l-8 -101h-425z" />
<glyph unicode="3" horiz-adv-x="539" d="M217 -10q-43 0 -87 7t-67 15l-23 7l18 92q74 -25 130 -25q155 0 155 119q0 55 -46.5 86.5t-105.5 31.5h-39l5 94h33q53 0 90 30.5t37 76.5q0 42 -25 64t-92 22q-28 0 -60.5 -4t-51.5 -8l-19 -5v82q68 35 164 35t158 -43t62 -118q0 -59 -41.5 -107t-112.5 -63 q84 -11 134 -59.5t50 -123.5q0 -87 -73.5 -146.5t-192.5 -59.5z" />
<glyph unicode="4" horiz-adv-x="592" d="M326 -10v159h-282l-28 66l341 499h99v-470l94 1l-8 -96h-86v-66l5 -93h-135zM138 239l190 4v191l3 104h-3q-13 -31 -47 -85z" />
<glyph unicode="5" horiz-adv-x="526" d="M222 -10q-94 0 -181 29l20 85q65 -16 129 -16q66 0 105 30.5t39 92.5q0 66 -64 107.5t-185 52.5l18 329h343l-5 -109l-249 6l-8 -136q290 -39 290 -256q0 -91 -68.5 -153t-183.5 -62z" />
<glyph unicode="6" horiz-adv-x="579" d="M295 -10q-116 0 -178.5 81t-62.5 209q0 194 95 302.5t303 142.5l22 -89q-121 -33 -186 -83t-87 -141q58 27 131 27q88 0 146 -59t58 -156q0 -99 -65 -166.5t-176 -67.5zM291 346q-49 0 -99 -28v-47q0 -88 30 -137.5t79 -49.5q46 0 72 32.5t26 91.5q0 62 -28 100t-80 38z " />
<glyph unicode="7" horiz-adv-x="470" d="M230 -13l-140 29q57 217 254 585l-227 -4l-85 -6l8 109h412v-41q-79 -169 -126.5 -319.5t-95.5 -352.5z" />
<glyph unicode="8" horiz-adv-x="567" d="M280 -11q-98 0 -159 49t-61 136q0 126 129 190q-52 36 -81 75t-29 96q0 81 59.5 128t158.5 47q88 0 138.5 -42.5t52.5 -117.5q1 -97 -108 -167q60 -39 94 -84.5t34 -112.5q0 -86 -67 -141.5t-161 -55.5zM377 177q0 45 -31.5 77.5t-91.5 68.5q-37 -24 -58 -59t-21 -72 q0 -53 30 -80t71 -27q48 0 74.5 24t26.5 68zM211 544q0 -34 25.5 -60.5t74.5 -57.5q61 51 62 115q1 34 -20.5 54t-57.5 20q-39 0 -61.5 -20t-22.5 -51z" />
<glyph unicode="9" horiz-adv-x="578" d="M283 710q113 0 177 -76t64 -214q0 -380 -398 -445l-22 89q120 32 185.5 82t87.5 141q-58 -26 -131 -26q-88 0 -145.5 59t-57.5 156q0 99 64.5 166.5t175.5 67.5zM287 354q53 0 99 28v56q0 84 -28 131t-81 47q-47 0 -73 -37.5t-26 -95.5q0 -64 31 -96.5t78 -32.5z" />
<glyph unicode=":" horiz-adv-x="301" d="M147 -15q-32 0 -54.5 22t-22.5 56q0 38 24.5 59.5t60.5 21.5q35 0 55.5 -20t20.5 -55q0 -40 -23 -62t-61 -22zM147 342q-32 0 -54.5 22t-22.5 56q0 38 24.5 59.5t60.5 21.5q35 0 55.5 -20t20.5 -55q0 -40 -23 -62t-61 -22z" />
<glyph unicode=";" horiz-adv-x="305" d="M119 -184l-64 53q57 53 78 117q-28 5 -45 26t-17 51q0 38 24 60t59 22q36 0 58 -22.5t22 -68.5q0 -62 -33.5 -129t-81.5 -109zM150 341q-32 0 -54.5 22t-22.5 56q0 38 24.5 59.5t60.5 21.5q35 0 55.5 -20t20.5 -55q0 -40 -23 -62t-61 -22z" />
<glyph unicode="&#x3c;" horiz-adv-x="467" d="M390 20l-348 210v69l348 210v-157l-184 -87l184 -89v-156z" />
<glyph unicode="=" horiz-adv-x="567" d="M78 122v104h411v-104h-411zM78 332v104h411v-104h-411z" />
<glyph unicode="&#x3e;" horiz-adv-x="467" d="M77 20v156l184 89l-184 87v157l348 -210v-69z" />
<glyph unicode="?" horiz-adv-x="426" d="M212 196q-48 0 -76 24.5t-28 63.5q0 37 19.5 72t42.5 59t42.5 59.5t19.5 74.5q0 33 -24 50.5t-60 17.5q-20 0 -45 -5.5t-41 -11.5l-15 -5v93q49 26 142 26q78 0 130.5 -39.5t52.5 -104.5q0 -49 -22.5 -93t-49 -70t-49 -57t-22.5 -57q0 -13 11.5 -17t22.5 6l38 -48 q-33 -38 -89 -38zM199 -15q-32 0 -54.5 22t-22.5 56q0 38 24.5 59.5t60.5 21.5q35 0 55.5 -20t20.5 -55q0 -40 -23 -62t-61 -22z" />
<glyph unicode="@" horiz-adv-x="950" d="M534 -191q-222 -31 -355 72.5t-133 297.5q0 119 51 216t153 156t239 59q189 0 294 -96t105 -251q0 -125 -51 -209t-141 -84q-24 0 -44.5 7t-33 16t-23 21.5t-14 17.5t-5.5 10q-17 -25 -28 -35q-41 -37 -105 -37q-82 0 -135.5 65.5t-53.5 163.5q0 102 58 166.5t147 64.5 q33 0 61.5 -9t41.5 -19l12 -9l77 31h26v-312q0 -48 27 -48q22 0 40 37t18 106q0 48 -8 91.5t-27.5 85t-49 71.5t-76.5 48.5t-107 18.5q-135 0 -224.5 -84t-89.5 -237q0 -78 21.5 -137.5t56.5 -93.5t82.5 -54t94.5 -25t99 0v-82zM480 75q16 0 32.5 6.5t24.5 12.5l8 6l-1 223 q-14 18 -60 18q-39 0 -66 -36.5t-27 -102.5q0 -58 24 -92.5t65 -34.5z" />
<glyph unicode="A" horiz-adv-x="636" d="M491 -4l-56 153h-267q-29 -91 -38 -149h-107q9 64 49 177l188 520l109 6l216 -583q12 -33 24 -62.5t19 -42.5l6 -13zM280 480l-81 -240h203l-87 240l-16 61h-4q-5 -31 -15 -61z" />
<glyph unicode="B" horiz-adv-x="641" d="M96 0v598l-6 102h230q111 0 175 -48.5t64 -127.5q0 -119 -118 -153v-4q70 -14 109 -56t39 -106q0 -96 -74.5 -150.5t-185.5 -54.5h-233zM233 90h96q58 0 90 30t32 83t-29.5 86t-91.5 33h-97v-232zM233 412h145q5 4 13 11.5t21 32.5t13 53q0 44 -28 72.5t-88 28.5h-76 v-198z" />
<glyph unicode="C" horiz-adv-x="594" d="M404 -10q-162 0 -255 94t-93 245q0 174 87 279t242 105q28 0 57 -3.5t61 -9t49 -7.5l-14 -98q-26 1 -73.5 10.5t-81.5 9.5q-86 0 -135.5 -68t-49.5 -183q0 -123 51 -198.5t161 -75.5q35 0 67.5 5t47.5 9l15 5l17 -90q-52 -29 -153 -29z" />
<glyph unicode="D" horiz-adv-x="743" d="M96 0v598l-6 102h217q184 0 283.5 -85.5t99.5 -251.5q0 -92 -30.5 -163t-84.5 -114t-122 -64.5t-147 -21.5h-210zM234 92h47q264 0 264 254q0 126 -63.5 194t-195.5 68h-52v-516z" />
<glyph unicode="E" horiz-adv-x="598" d="M96 0v598l-6 102h453l-5 -99q-39 5 -85 6l-219 3v-210l259 5l-5 -106l-254 8v-216l204 3l105 6l-5 -100h-442z" />
<glyph unicode="F" horiz-adv-x="578" d="M96 0v598l-6 102h453l-5 -100q-49 5 -96 6l-208 3v-229l259 5l-5 -106l-254 8v-194l5 -93h-143z" />
<glyph unicode="G" horiz-adv-x="684" d="M439 -10q-183 0 -284 87.5t-101 269.5q0 160 99 263t265 103q32 0 64 -3.5t67.5 -9t50.5 -7.5l-14 -98q-15 2 -48.5 7.5t-66 9t-61.5 3.5q-50 0 -88.5 -17t-61.5 -44t-38 -64t-20.5 -74t-5.5 -78q0 -120 67.5 -185.5t175.5 -65.5l48 5v117l-6 103l139 5v-302 q-96 -25 -181 -25z" />
<glyph unicode="H" horiz-adv-x="782" d="M96 0v598l-6 103l144 5v-297h314v189l-6 103l144 5v-613l5 -93h-143v315h-314v-222l5 -93h-143z" />
<glyph unicode="I" horiz-adv-x="330" d="M96 0v598l-6 103l144 5v-613l5 -93h-143z" />
<glyph unicode="J" horiz-adv-x="329" d="M64 -209l-76 61q15 19 34.5 43.5t26.5 33.5t16 22t13 21.5t8 20.5q10 29 10 97v508l-6 103l144 5v-615q0 -69 -18 -114q-10 -26 -31 -54t-40.5 -49t-80.5 -83z" />
<glyph unicode="K" horiz-adv-x="652" d="M495 -5l-215 317h-46v-219l5 -93h-143v598l-6 103l144 5v-301h58q17 23 32.5 44.5t27 38t24 36.5t19.5 31t17.5 29.5t14.5 25t13.5 25t11.5 21.5t11.5 23t10.5 21h133q-88 -157 -218 -321l208 -309l51 -70z" />
<glyph unicode="L" horiz-adv-x="560" d="M96 0v598l-6 102l144 5v-614l215 2q24 0 47.5 1.5t35.5 3.5l11 2l-5 -100h-442z" />
<glyph unicode="M" horiz-adv-x="922" d="M96 0v587l-6 114l119 5l211 -321q11 -16 20 -33t12 -26l4 -8h3q12 28 33 60l210 323l124 5v-613l5 -93h-139v425l4 109l-4 1q-9 -28 -40 -75l-188 -290h-43l-171 257l-54 89l-3 -1q7 -43 7 -110v-322l5 -83h-109z" />
<glyph unicode="N" horiz-adv-x="755" d="M565 -10l-335 459l-33 61h-3q7 -45 7 -71v-346l5 -93h-110v598l-6 103l101 5l334 -459q10 -14 18 -28t11 -21l3 -6l3 1q-5 28 -5 68v337l-6 103l111 5v-706z" />
<glyph unicode="O" horiz-adv-x="759" d="M388 80q87 0 129.5 68.5t42.5 189.5q0 58 -9 106t-30 89t-59 64t-91 23q-87 0 -129.5 -68.5t-42.5 -189.5q0 -58 9 -106t30 -89t59 -64t91 -23zM368 -10q-98 0 -170.5 50.5t-106.5 127.5t-34 169q0 171 85.5 272t248.5 101q98 0 170.5 -50.5t106.5 -127.5t34 -169 q0 -171 -85.5 -272t-248.5 -101z" />
<glyph unicode="P" horiz-adv-x="605" d="M96 0v598l-6 102h216q123 0 193 -61.5t70 -147.5q0 -103 -73.5 -173.5t-195.5 -70.5h-66v-154l5 -93h-143zM234 340h50q73 0 109 38.5t36 107.5q0 55 -35 88.5t-102 33.5h-58v-268z" />
<glyph unicode="Q" horiz-adv-x="740" d="M359 -10q-98 0 -168 50.5t-101.5 127.5t-31.5 169q0 172 81 272.5t243 100.5q98 0 168 -50.5t101.5 -127.5t31.5 -169q0 -223 -127 -316l105 -154l58 -76l-147 -5l-122 188q-40 -10 -91 -10zM379 79q162 0 162 259q0 283 -179 283q-162 0 -162 -259q0 -283 179 -283z" />
<glyph unicode="R" horiz-adv-x="647" d="M463 -5l-146 252h-83v-154l5 -93h-143v598l-6 102h216q129 0 201 -59.5t72 -162.5q0 -64 -41 -113t-103 -70l130 -219l52 -76zM234 338h38q84 0 125.5 39t41.5 106q0 59 -38 92t-109 33h-58v-270z" />
<glyph unicode="S" horiz-adv-x="549" d="M231 -10q-49 0 -91.5 6t-59.5 12l-18 7v97q73 -23 169 -23q67 0 98.5 27t31.5 64q0 42 -22 70t-96 54q-92 33 -137 81.5t-45 125.5q0 92 62 147t163 55q49 0 113 -9.5t79 -10.5l-16 -100q-29 2 -79.5 11t-76.5 9q-108 0 -108 -89q0 -37 24.5 -64.5t87.5 -51.5 q103 -40 145.5 -88t42.5 -130q0 -94 -70 -147t-197 -53z" />
<glyph unicode="T" horiz-adv-x="589" d="M227 0v605l-117 2q-18 0 -40 -1.5t-34 -3.5l-13 -2l5 100h540l-4 -99q-32 3 -80 4h-119v-512l5 -93h-143z" />
<glyph unicode="U" horiz-adv-x="752" d="M374 -14q-130 0 -207.5 76.5t-77.5 217.5v318l-6 103l144 5v-425q0 -104 40 -152t122 -48q75 0 121 50t46 150v317l-6 103l114 5v-425q0 -140 -74 -217.5t-216 -77.5z" />
<glyph unicode="V" horiz-adv-x="644" d="M267 -5l-216 583q-12 33 -24 62.5t-19 42.5l-6 13l149 6l183 -502l11 -42h4q-1 18 7 41l117 348q30 89 39 153h107q-9 -67 -49 -179l-188 -520z" />
<glyph unicode="W" horiz-adv-x="971" d="M228 -4l-171 583l-39 118l143 6l123 -435q8 -28 14 -56.5t8 -43.5l3 -15h4q5 53 21 118l104 429l119 5l115 -433q8 -29 13.5 -59.5t7.5 -46.5l2 -17h4q6 57 24 119l74 258q26 90 35 174h111q-15 -108 -53 -221l-152 -477l-120 -6l-105 398l-24 121h-5q-9 -71 -19 -115 l-95 -398z" />
<glyph unicode="X" horiz-adv-x="654" d="M483 -5l-171 275l-73 -120l-90 -150h-125q39 82 116 183l117 160l-162 251l-73 106l162 5l155 -263l84 122q18 27 37 61.5t28 55.5l10 21h122q-24 -73 -93 -166l-129 -173l175 -267l66 -96z" />
<glyph unicode="Y" horiz-adv-x="602" d="M234 0v284l-186 324q-11 20 -25.5 43t-23.5 36l-9 13l158 5l178 -324l99 200q16 33 28.5 63t16.5 43l4 13h117q-36 -80 -76 -158l-143 -259v-190l5 -93h-143z" />
<glyph unicode="Z" horiz-adv-x="578" d="M42 0v50l322 566l-218 -9l-90 -6l5 99h470v-50l-327 -572l204 9l119 9l-5 -96h-480z" />
<glyph unicode="[" horiz-adv-x="305" d="M82 -199v984h178v-61h-60v-862h60v-61h-178z" />
<glyph unicode="\" horiz-adv-x="514" d="M444 -174l-430 874h122l431 -874h-123z" />
<glyph unicode="]" horiz-adv-x="305" d="M45 -199v61h60v862h-60v61h178v-984h-178z" />
<glyph unicode="^" horiz-adv-x="427" d="M20 533l191 227h5l191 -227h-124l-70 86l-70 -86h-123z" />
<glyph unicode="_" horiz-adv-x="489" d="M15 -193v92h459v-92h-459z" />
<glyph unicode="`" horiz-adv-x="550" d="M230 592l-187 154l96 101l160 -181z" />
<glyph unicode="a" horiz-adv-x="546" d="M191 -10q-74 0 -112 38t-38 94q0 134 171 162q55 9 116 9v31q0 46 -27.5 70t-76.5 24q-37 0 -73 -5.5t-53 -10.5l-18 -6v87q67 27 172 27q113 0 162 -49t47 -131q0 -21 -1 -72t-2 -93.5t-1 -64.5q0 -18 11 -18q8 0 17.5 5t14.5 10l6 5v-83q-32 -29 -78 -29q-63 0 -79 62 q-68 -62 -158 -62zM232 84q46 0 92 36q0 23 2 107q-48 -2 -85 -13q-66 -19 -66 -78q0 -24 14.5 -38t42.5 -14z" />
<glyph unicode="b" horiz-adv-x="611" d="M282 -10q-113 0 -206 40v617l-6 103l139 5l-2 -296q58 51 137 51q106 0 161.5 -67t55.5 -166q0 -136 -72 -211.5t-207 -75.5zM297 80q127 0 127 176q0 73 -27.5 113.5t-82.5 40.5q-53 0 -107 -33q2 -38 2 -96v-176q48 -25 88 -25z" />
<glyph unicode="c" horiz-adv-x="484" d="M297 -10q-115 0 -181.5 67.5t-66.5 176.5q0 123 67 199.5t179 76.5q30 0 75 -9.5t67 -10.5l-10 -102q-24 2 -69 12.5t-68 10.5q-47 0 -76.5 -39t-29.5 -114q0 -77 38 -122.5t107 -45.5q27 0 54 7t41 13l14 7v-94q-52 -33 -141 -33z" />
<glyph unicode="d" horiz-adv-x="612" d="M273 -10q-101 0 -162 67.5t-61 173.5q0 132 68.5 205.5t170.5 73.5q71 0 112 -33v170q0 25 -1.5 51t-3.5 39l-2 13l139 5v-651l6 -103l-130 -5l-3 46q-44 -52 -133 -52zM308 85q60 0 93 39v256q-30 41 -92 41q-59 0 -90.5 -44t-31.5 -123q0 -77 29 -123t92 -46z" />
<glyph unicode="e" horiz-adv-x="560" d="M321 -10q-126 0 -199.5 67t-73.5 185q0 124 70 196t181 72q119 0 172 -77.5t39 -195.5h-327q3 -67 46 -107t112 -40q37 0 74 7t56 13l19 7v-93q-60 -34 -169 -34zM190 321l185 4q-1 51 -21 74t-59 23q-42 0 -71 -28t-34 -73z" />
<glyph unicode="f" horiz-adv-x="404" d="M100 0v411l-56 1v88h57v77q0 81 50 132t141 51q37 0 84.5 -9.5t67.5 -10.5l-19 -102q-34 3 -70.5 13t-56.5 10q-65 0 -65 -90v-71h151l-5 -93l-146 2v-316l5 -93h-138z" />
<glyph unicode="g" horiz-adv-x="562" d="M275 -262q-105 -2 -172.5 35.5t-67.5 117.5q0 84 80 123q-21 23 -21 66q0 21 13 45.5t38 41.5q-42 19 -66.5 58.5t-24.5 92.5q0 86 58.5 139t162.5 53q51 0 104 -20l159 12l-3 -72l-96 1v-4q34 -34 34 -104q0 -73 -57 -127.5t-164 -54.5q-23 0 -53 4q-5 -8 -5 -18 q0 -31 49 -34l97 -6q171 -10 171 -161q0 -77 -61 -132t-175 -56zM296 -180q53 0 84.5 24t31.5 60q0 32 -22 46.5t-70 16.5l-81 5q-51 4 -78 14q-12 -24 -12 -57q0 -49 40 -79t107 -30zM263 225q36 0 55.5 28.5t19.5 71.5q0 47 -20 73.5t-54 26.5q-35 0 -55 -28t-20 -69 q0 -46 20.5 -74.5t53.5 -28.5z" />
<glyph unicode="h" horiz-adv-x="606" d="M79 0v647l-6 103l139 5l-2 -305q73 60 164 60q75 0 116 -47t41 -128v-252l5 -83h-138v297q0 60 -18 86.5t-63 26.5q-22 0 -42 -5.5t-29.5 -10t-35.5 -18.5q2 -20 2 -95v-198l5 -83h-138z" />
<glyph unicode="i" horiz-adv-x="291" d="M79 0v397l-6 103l139 5v-412l5 -93h-138zM139 596q-32 0 -53.5 20.5t-21.5 52.5q0 33 23 51.5t59 18.5q34 0 54 -18t20 -50q0 -35 -22 -55t-59 -20z" />
<glyph unicode="j" horiz-adv-x="291" d="M50 -257l-63 50q49 63 76 121q16 31 16 112v371l-6 103l139 5v-479q0 -76 -19 -111q-30 -58 -143 -172zM143 596q-32 0 -53.5 20.5t-21.5 52.5q0 33 23 51.5t59 18.5q34 0 54 -18t20 -50q0 -35 -22 -55t-59 -20z" />
<glyph unicode="k" horiz-adv-x="551" d="M385 -5l-145 214h-28v-116l5 -93h-138v648l-6 103l139 5v-458h32l61 87q26 37 44.5 65.5t24.5 39.5l5 10h131q-36 -63 -107 -146l-67 -75l145 -203l60 -76z" />
<glyph unicode="l" horiz-adv-x="291" d="M79 0v648l-6 103l139 5v-663l5 -93h-138z" />
<glyph unicode="m" horiz-adv-x="898" d="M79 0v397l-6 103l132 5l3 -55q38 31 70 45.5t78 14.5q44 0 80.5 -18.5t52.5 -50.5q80 69 168 69q77 0 121.5 -46.5t44.5 -121.5v-259l5 -83h-138v297q0 113 -80 113q-22 0 -40.5 -5t-29.5 -10.5t-30 -18.5q5 -28 5 -54v-239l5 -83h-138v297q0 58 -17.5 85.5t-55.5 27.5 q-36 0 -99 -34q2 -20 2 -95v-198l5 -83h-138z" />
<glyph unicode="n" horiz-adv-x="605" d="M79 0v397l-6 103l132 5l3 -56q39 31 76.5 46t94.5 15q74 0 113 -48.5t39 -137.5v-241l5 -83h-138v309q0 101 -78 101q-46 0 -110 -34q2 -27 2 -75v-218l5 -83h-138z" />
<glyph unicode="o" horiz-adv-x="584" d="M294 80q51 0 78 40.5t27 116.5q0 91 -24.5 137.5t-84.5 46.5q-52 0 -78.5 -42.5t-26.5 -120.5q0 -82 27 -130t82 -48zM279 -10q-107 0 -168 66t-61 177q0 129 68 203t187 74q107 0 168 -66t61 -177q0 -128 -68.5 -202.5t-186.5 -74.5z" />
<glyph unicode="p" horiz-adv-x="614" d="M79 -250v647l-6 103l132 5l3 -48q31 28 62.5 40.5t84.5 12.5q96 0 152.5 -68t56.5 -165q0 -132 -67.5 -209.5t-173.5 -77.5q-32 0 -60 7t-39 15l-12 7v-186l5 -83h-138zM301 80q60 0 93 47t33 120q0 85 -30.5 124t-79.5 39q-53 0 -107 -33q2 -16 2 -76v-191 q34 -30 89 -30z" />
<glyph unicode="q" horiz-adv-x="622" d="M410 -250v297q-6 -6 -16.5 -15.5t-45.5 -25.5t-74 -16q-110 0 -167.5 70t-57.5 182q0 121 73.5 194.5t196.5 73.5q71 0 132 -36l60 26h32v-667l5 -83h-138zM314 90q25 0 49 9.5t35 18.5l12 10v259q-52 34 -95 34q-54 0 -91.5 -46t-37.5 -124q0 -69 33.5 -115t94.5 -46z " />
<glyph unicode="r" horiz-adv-x="444" d="M79 0v397l-6 103l134 5l2 -76q30 42 54 61.5t52 19.5q20 0 37.5 -6t41 -18t42.5 -18l-49 -107q-15 6 -39 17t-39 16.5t-28 5.5q-28 0 -71 -39q2 -24 2 -71v-207l5 -83h-138z" />
<glyph unicode="s" horiz-adv-x="455" d="M217 -10q-35 0 -88.5 9.5t-73.5 11.5l10 102q19 -2 73 -13t86 -11q75 0 75 40q0 19 -22 34t-74 35q-83 31 -117 64.5t-34 99.5q0 70 50 109t123 39q39 0 91.5 -9.5t73.5 -10.5l-10 -101q-29 2 -79 12t-81 10q-58 0 -58 -36q0 -19 17 -35t73 -35q80 -28 118.5 -65.5 t38.5 -98.5q0 -76 -51.5 -113.5t-140.5 -37.5z" />
<glyph unicode="t" horiz-adv-x="432" d="M290 -10q-98 0 -146 39.5t-48 125.5v176l5 81l-60 1v76l57 11l71 116h59v-116h165l-3 -92l-162 2v-231q0 -95 81 -95q19 0 40 4t33 8l11 4v-89q-46 -21 -103 -21z" />
<glyph unicode="u" horiz-adv-x="606" d="M527 500v-397l6 -103l-132 -5l-3 56q-39 -31 -76.5 -46t-94.5 -15q-74 0 -113 48.5t-39 137.5v241l-5 83h138v-309q0 -101 78 -101q46 0 110 34q-2 27 -2 75v218l-5 83h138z" />
<glyph unicode="v" horiz-adv-x="516" d="M200 -5l-147 402l-42 103l145 5l100 -295q8 -24 14 -45.5t8 -30.5l1 -10h4q5 33 20 79l52 156q20 64 32 141h105q-7 -81 -41 -169l-130 -331z" />
<glyph unicode="w" horiz-adv-x="794" d="M177 -5l-123 402l-35 103l132 5l84 -282q7 -24 12 -48t7 -37l1 -12h4q4 41 21 103l46 170q8 32 13 57t6 34l1 10l106 7l86 -276q8 -25 15 -52t9 -41l3 -14h4q7 49 24 109l33 113q23 90 28 154h104q-3 -76 -45 -202l-102 -298l-121 -5l-77 257q-7 21 -12.5 44t-7.5 35 l-2 12h-4q-7 -45 -21 -101l-61 -242z" />
<glyph unicode="x" horiz-adv-x="554" d="M385 -5l-125 175l-23 -34q-26 -39 -47.5 -73t-29.5 -49l-8 -14h-128q53 78 108 146l76 95l-122 176q-14 21 -30 41.5t-24 31.5l-9 10l156 5l113 -173l31 48l75 120h116q-46 -76 -113 -164l-58 -77l139 -183l59 -76z" />
<glyph unicode="y" horiz-adv-x="524" d="M235 -254l-129 6q29 80 87 185l16 29l-155 431l-42 103l147 5l96 -293q8 -26 14.5 -51t8.5 -37l3 -11h4q9 47 26 101l46 143q31 96 36 143h108q-7 -86 -56 -202l-126 -307q-23 -55 -44 -116t-31 -95z" />
<glyph unicode="z" horiz-adv-x="485" d="M45 0v40l227 370l-114 -5l-106 -8l7 103h377v-40l-228 -372l129 3l103 8l-8 -99h-387z" />
<glyph unicode="{" horiz-adv-x="349" d="M250 -199q-65 0 -94.5 37t-29.5 111v161q0 117 -26 144q-35 -13 -71 -16l-14 77q111 15 111 107v215q0 74 29.5 111t94.5 37h54v-71q-37 0 -48.5 -18t-11.5 -79v-153q0 -127 -87 -174q87 -45 87 -191v-154q0 -46 12 -64.5t48 -18.5v-61h-54z" />
<glyph unicode="|" horiz-adv-x="282" d="M82 -259v1024h118v-1024h-118z" />
<glyph unicode="}" horiz-adv-x="349" d="M99 785q65 0 94.5 -37t29.5 -111v-161q0 -117 26 -144q35 13 71 16l14 -77q-111 -15 -111 -107v-215q0 -74 -29.5 -111t-94.5 -37h-54v71q37 0 48.5 18t11.5 79v153q0 127 87 174q-87 45 -87 191v154q0 46 -12 64.5t-48 18.5v61h54z" />
<glyph unicode="~" horiz-adv-x="553" d="M368 194q-46 0 -100 22.5t-92 22.5q-22 0 -39.5 -8.5t-24.5 -17.5l-6 -9l-57 67q1 4 4 10t15 21.5t27 27.5t41 22t57 10q53 0 102 -22.5t82 -22.5q25 0 43 8.5t24 17.5l5 9l55 -67q-1 -4 -4 -10t-14.5 -21.5t-25.5 -27.5t-38.5 -22t-53.5 -10z" />
<glyph unicode="&#xa1;" horiz-adv-x="301" d="M205 274l23 -481l-154 -5l22 486h109zM153 509q32 0 54.5 -22t22.5 -56q0 -38 -24.5 -59.5t-60.5 -21.5q-35 0 -55.5 20t-20.5 55q0 40 23 62t61 22z" />
<glyph unicode="&#xa2;" horiz-adv-x="496" d="M230 -114v110q-87 18 -136 81.5t-49 156.5q0 105 49.5 177.5t135.5 92.5v106h98v-102q12 -2 32.5 -6.5t38 -7.5t34.5 -4l-10 -102q-24 2 -69 12.5t-68 10.5q-47 0 -76.5 -39t-29.5 -114q0 -71 37 -119.5t98 -48.5q30 0 59.5 7t44.5 13l15 7v-94q-40 -23 -106 -30v-107 h-98z" />
<glyph unicode="&#xa3;" horiz-adv-x="575" d="M61 282v94h70l-7 84q-10 114 54 184.5t181 70.5q30 0 75 -9t67 -11l-10 -102q-27 2 -70.5 12.5t-66.5 10.5q-48 0 -71 -20.5t-23.5 -51.5t1.5 -66l8 -102h159v-94h-152q3 -70 -11.5 -118t-59.5 -74l228 6l96 6l-5 -102h-462v84q4 1 10 3t21 14t26 29.5t18 52.5t3 80 l-2 19h-77z" />
<glyph unicode="&#xa5;" horiz-adv-x="680" d="M149 260v94h90l-146 254l-58 92l158 5l178 -324l99 200q16 33 28.5 63t16.5 43l4 13h117q-24 -63 -76 -158l-104 -188h104v-94h-143v-77h143v-94h-143l5 -89h-143v89h-130v94h130v77h-130z" />
<glyph unicode="&#xa6;" horiz-adv-x="268" d="M75 -259v402h118v-402h-118zM75 373v392h118v-392h-118z" />
<glyph unicode="&#xa7;" horiz-adv-x="510" d="M454 331q0 -72 -72 -116q28 -35 28 -86q0 -65 -52 -102t-136 -37q-35 0 -83 9.5t-71 10.5l8 91q30 -2 77 -12t78 -10q26 0 40 14t14 35q0 24 -23 41.5t-57 32t-67.5 33t-57 54t-23.5 85.5q0 73 72 115q-28 35 -28 87q0 65 52 102t136 37q35 0 83 -9.5t71 -10.5l-8 -91 q-30 2 -77 12t-78 10q-26 0 -40 -14t-14 -35q0 -24 23 -41.5t57 -32t67.5 -33t57 -54t23.5 -85.5zM329 320q0 21 -6.5 37t-23.5 29t-27.5 19t-38.5 18.5t-36 16.5q-15 -26 -15 -55q0 -21 6.5 -37t23 -29t27 -19.5t38 -18.5t36.5 -16q16 28 16 55z" />
<glyph unicode="&#xa8;" horiz-adv-x="502" d="M162 627q-34 0 -55.5 22t-21.5 59q0 39 23.5 60.5t60.5 21.5q36 0 56 -20.5t20 -57.5q0 -41 -22.5 -63t-60.5 -22zM370 627q-34 0 -55.5 22t-21.5 59q0 39 23.5 60.5t60.5 21.5q36 0 56 -20.5t20 -57.5q0 -41 -22.5 -63t-60.5 -22z" />
<glyph unicode="&#xa9;" horiz-adv-x="815" d="M436 159q-93 0 -148 52.5t-55 136.5q0 99 52.5 156t147.5 57q23 0 59 -7.5t53 -8.5l-15 -89q-18 2 -47 10t-47 8q-31 0 -51 -30.5t-20 -77.5q0 -118 89 -118q21 0 43.5 5t34.5 10l12 5v-84q-42 -25 -108 -25zM408 88q102 0 166 74t64 192q0 119 -64.5 193t-165.5 74 q-97 0 -163.5 -74.5t-66.5 -192.5q0 -121 62.5 -193.5t167.5 -72.5zM408 -8q-152 0 -255 104.5t-103 257.5q0 152 103 257.5t255 105.5q151 0 254 -105.5t103 -257.5q0 -150 -104 -256t-253 -106z" />
<glyph unicode="&#xab;" horiz-adv-x="558" d="M218 9q-49 90 -143 176l-50 46v29l50 46q94 86 143 176l92 -48q-21 -48 -56 -98.5t-66 -80.5l-12 -10l12 -11q62 -53 118 -177zM418 26q-23 45 -49 75t-84 84l-50 46v29l50 46q56 51 83 83t51 78l91 -48q-36 -93 -112 -164l-12 -10l12 -11q37 -32 60.5 -67.5t46.5 -93.5z " />
<glyph unicode="&#xac;" horiz-adv-x="592" d="M403 137v91h-325v114h432v-205h-107z" />
<glyph unicode="&#xae;" horiz-adv-x="561" d="M294 438l-14 54h-8v-20l2 -34h-83v143l-4 47h100q99 0 99 -66q0 -16 -10.5 -30t-26.5 -20l8 -22l23 -52h-86zM272 538h14q16 0 16 21q0 22 -18 22h-12v-43zM281 381q64 0 99 31.5t35 113.5q0 87 -34 117.5t-100 30.5t-100.5 -30.5t-34.5 -117.5q0 -82 35.5 -113.5 t99.5 -31.5zM281 318q-116 0 -173 60t-57 148t57 148.5t173 60.5t173 -60.5t57 -148.5q0 -87 -57 -147.5t-173 -60.5z" />
<glyph unicode="&#xaf;" horiz-adv-x="364" d="M45 539v104h274v-104h-274z" />
<glyph unicode="&#xb0;" horiz-adv-x="432" d="M164 597q0 -70 52 -70t52 70t-52 70t-52 -70zM44 597q0 75 44 119t128 44t128 -44t44 -119t-44 -119t-128 -44t-128 44t-44 119z" />
<glyph unicode="&#xb1;" horiz-adv-x="573" d="M226 170v118h-155v114h155v119h120v-119h156v-114h-156v-118h-120zM71 40v112h431v-112h-431z" />
<glyph unicode="&#xb4;" horiz-adv-x="294" d="M113 592l-70 73l160 181l97 -100z" />
<glyph unicode="&#xb5;" horiz-adv-x="593" d="M79 -202v619l-5 83h148v-277q0 -81 22.5 -110t60.5 -29q10 0 21.5 1t20.5 3t17 4t12 4l4 1q-10 18 -10 86v234l-5 83h148v-418l10 -83l-121 -3l-8 55q-49 -61 -130 -61q-39 0 -71 22.5t-49 57.5l-4 -2q73 -113 73 -231v-39h-134z" />
<glyph unicode="&#xb6;" horiz-adv-x="748" d="M331 101h10v305h-10q-68 0 -104 -42t-36 -108q0 -71 40.5 -113t99.5 -42zM342 0q-133 0 -209 65.5t-76 181.5q0 113 73 183t212 70h310v-500h-310zM454 101h86v306h-86v-306z" />
<glyph unicode="&#xb7;" horiz-adv-x="263" d="M131 208q-29 0 -49 20t-20 49t21.5 49t49.5 20q29 0 48.5 -20t19.5 -49t-20.5 -49t-49.5 -20z" />
<glyph unicode="&#xb8;" horiz-adv-x="240" d="M116 -200q-64 0 -116 20l24 61q39 -10 76 -10q33 0 33 22q0 13 -16.5 17t-41.5 -8l-13 15l37 103l58 4v-56q41 -4 64.5 -23t23.5 -53q0 -41 -35.5 -66.5t-93.5 -25.5z" />
<glyph unicode="&#xbb;" horiz-adv-x="558" d="M140 26l-87 47q23 58 46.5 93.5t60.5 67.5l13 11l-13 10q-76 71 -112 164l91 48q24 -46 51 -78t83 -83l50 -46v-29l-50 -46q-58 -54 -84 -84t-49 -75zM340 9l-88 48q56 124 118 177l13 11l-13 10q-31 30 -66 80.5t-56 98.5l92 48q49 -90 143 -176l50 -46v-29l-50 -46 q-94 -86 -143 -176z" />
<glyph unicode="&#xbc;" horiz-adv-x="800" d="M579 -10v75h-157l-16 57l180 282l106 -9v-251h63l-4 -79h-59v-23l2 -52h-115zM498 145l80 1v63l7 83h-4q-17 -41 -35 -70zM147 324v281l-91 -3l-9 64l186 42l34 -2v-382h-120zM125 -18l-75 69l581 659l76 -66z" />
<glyph unicode="&#xbd;" horiz-adv-x="803" d="M124 -18l-75 69l581 659l76 -66zM459 0v60l45 40q61 55 84.5 87.5t23.5 65.5q0 48 -63 48q-17 0 -35.5 -3t-27.5 -6l-10 -3v72q51 25 137 25q61 0 92 -29.5t31 -80.5t-34 -99t-117 -107l88 12q19 3 38.5 7.5t30.5 8.5l10 3l-3 -101h-290zM146 324v281l-91 -3l-9 64 l186 42l34 -2v-382h-120z" />
<glyph unicode="&#xbe;" horiz-adv-x="842" d="M167 319q-36 0 -64.5 3.5t-38.5 7.5l-11 4l15 73q31 -10 72 -10q70 0 70 48q0 47 -84 47h-20l7 67h18q65 0 65 34q0 38 -56 38q-17 0 -34.5 -4t-27.5 -8l-9 -4v76q40 19 110 19q64 0 102 -25t38 -76q0 -28 -19.5 -50t-54.5 -29q42 -6 66 -30.5t24 -61.5q0 -48 -41 -83.5 t-127 -35.5zM167 -18l-75 69l581 659l76 -66zM621 -10v75h-157l-16 57l180 282l106 -9v-251h63l-4 -79h-59v-23l2 -52h-115zM540 145l80 1v63l7 83h-4q-17 -41 -35 -70z" />
<glyph unicode="&#xbf;" horiz-adv-x="418" d="M209 292q46 0 75 -24.5t29 -63.5q0 -37 -19.5 -72t-42.5 -59t-42.5 -59.5t-19.5 -74.5q0 -68 84 -68q20 0 45.5 5.5t40.5 11.5l15 5v-93q-49 -26 -152 -26q-71 0 -122 40t-51 104q0 49 22.5 93t49 70t49 57t22.5 57q0 16 -11.5 19t-22.5 -8l-38 48q33 38 89 38zM222 503 q32 0 54.5 -22t22.5 -56q0 -38 -24.5 -59.5t-60.5 -21.5q-35 0 -55.5 20t-20.5 55q0 40 23 62t61 22z" />
<glyph unicode="&#xc0;" horiz-adv-x="636" d="M491 -4l-56 153h-267q-29 -91 -38 -149h-107q9 64 49 177l188 520l109 6l216 -583q12 -33 24 -62.5t19 -42.5l6 -13zM280 480l-81 -240h203l-87 240l-16 61h-4q-5 -31 -15 -61zM310 751l-187 154l96 101l160 -181z" />
<glyph unicode="&#xc1;" horiz-adv-x="636" d="M491 -4l-56 153h-267q-29 -91 -38 -149h-107q9 64 49 177l188 520l109 6l216 -583q12 -33 24 -62.5t19 -42.5l6 -13zM280 480l-81 -240h203l-87 240l-16 61h-4q-5 -31 -15 -61zM294 750l-70 73l160 181l97 -100z" />
<glyph unicode="&#xc2;" horiz-adv-x="636" d="M491 -4l-56 153h-267q-29 -91 -38 -149h-107q9 64 49 177l188 520l109 6l216 -583q12 -33 24 -62.5t19 -42.5l6 -13zM280 480l-81 -240h203l-87 240l-16 61h-4q-5 -31 -15 -61zM200 761l-61 69l151 124h38l148 -118l-59 -73l-108 74z" />
<glyph unicode="&#xc3;" horiz-adv-x="636" d="M491 -4l-56 153h-267q-29 -91 -38 -149h-107q9 64 49 177l188 520l109 6l216 -583q12 -33 24 -62.5t19 -42.5l6 -13zM280 480l-81 -240h203l-87 240l-16 61h-4q-5 -31 -15 -61zM371 767q-36 0 -72.5 18t-50.5 18q-16 0 -28 -12t-16 -27l-82 20q8 48 41 83.5t83 35.5 q38 0 73.5 -18t48.5 -18q15 0 25 12.5t13 26.5l80 -20q-9 -57 -41.5 -88t-73.5 -31z" />
<glyph unicode="&#xc4;" horiz-adv-x="636" d="M491 -4l-56 153h-267q-29 -91 -38 -149h-107q9 64 49 177l188 520l109 6l216 -583q12 -33 24 -62.5t19 -42.5l6 -13zM280 480l-81 -240h203l-87 240l-16 61h-4q-5 -31 -15 -61zM197 775q-34 0 -55.5 22t-21.5 59q0 39 23.5 60.5t60.5 21.5q36 0 56 -20.5t20 -57.5 q0 -41 -22.5 -63t-60.5 -22zM405 775q-34 0 -55.5 22t-21.5 59q0 39 23.5 60.5t60.5 21.5q36 0 56 -20.5t20 -57.5q0 -41 -22.5 -63t-60.5 -22z" />
<glyph unicode="&#xc5;" horiz-adv-x="636" d="M491 -4l-56 153h-267q-29 -91 -38 -149h-107q9 64 49 177l188 520l109 6l216 -583q12 -33 24 -62.5t19 -42.5l6 -13zM280 480l-81 -240h203l-87 240l-16 61h-4q-5 -31 -15 -61zM310 827q22 0 22 38q0 36 -22 36q-11 0 -18 -10t-7 -26t7.5 -27t17.5 -11zM310 754 q-54 0 -89.5 30t-35.5 81t35.5 81t89.5 30t89 -30t35 -81t-35 -81t-89 -30z" />
<glyph unicode="&#xc6;" horiz-adv-x="925" d="M-5 0q19 61 85 177l302 523h488l-5 -99l-304 9v-210l259 5l-5 -106l-254 8v-216l309 9l-5 -100h-442v159h-241l-4 -8q-45 -82 -68 -151h-115zM423 250v356h-3q-22 -54 -48 -101l-140 -255h191z" />
<glyph unicode="&#xc7;" horiz-adv-x="597" d="M360 -200q-64 0 -116 20l24 61q39 -10 76 -10q33 0 33 22q0 13 -16.5 17t-41.5 -8l-13 15l28 79q-130 20 -203 110t-73 223q0 174 87 279t242 105q28 0 57 -3.5t61 -9t49 -7.5l-14 -98q-26 1 -73.5 10.5t-81.5 9.5q-86 0 -135.5 -68t-49.5 -183q0 -123 51 -198.5 t161 -75.5q35 0 67.5 5t47.5 9l15 5l17 -90q-52 -29 -153 -29h-5v-22q41 -4 64.5 -23t23.5 -53q0 -41 -35.5 -66.5t-93.5 -25.5z" />
<glyph unicode="&#xc8;" horiz-adv-x="598" d="M96 0v598l-6 102h453l-5 -99q-39 5 -85 6l-219 3v-210l259 5l-5 -106l-254 8v-216l204 3l105 6l-5 -100h-442zM352 751l-187 154l96 101l160 -181z" />
<glyph unicode="&#xc9;" horiz-adv-x="598" d="M334 750l-70 73l160 181l97 -100zM96 0v598l-6 102h453l-5 -99q-39 5 -85 6l-219 3v-210l259 5l-5 -106l-254 8v-216l204 3l105 6l-5 -100h-442z" />
<glyph unicode="&#xca;" horiz-adv-x="598" d="M218 762l-61 69l151 124h38l148 -118l-59 -73l-108 74zM96 0v598l-6 102h453l-5 -99q-39 5 -85 6l-219 3v-210l259 5l-5 -106l-254 8v-216l204 3l105 6l-5 -100h-442z" />
<glyph unicode="&#xcb;" horiz-adv-x="598" d="M202 772q-34 0 -55.5 22t-21.5 59q0 39 23.5 60.5t60.5 21.5q36 0 56 -20.5t20 -57.5q0 -41 -22.5 -63t-60.5 -22zM410 772q-34 0 -55.5 22t-21.5 59q0 39 23.5 60.5t60.5 21.5q36 0 56 -20.5t20 -57.5q0 -41 -22.5 -63t-60.5 -22zM96 0v598l-6 102h453l-5 -99 q-39 5 -85 6l-219 3v-210l259 5l-5 -106l-254 8v-216l204 3l105 6l-5 -100h-442z" />
<glyph unicode="&#xcc;" horiz-adv-x="330" d="M96 0v598l-6 103l144 5v-613l5 -93h-143zM174 750l-187 154l96 101l160 -181z" />
<glyph unicode="&#xcd;" horiz-adv-x="330" d="M96 0v598l-6 103l144 5v-613l5 -93h-143zM154 750l-70 73l160 181l97 -100z" />
<glyph unicode="&#xce;" horiz-adv-x="330" d="M96 0v598l-6 103l144 5v-613l5 -93h-143zM68 760l-61 69l151 124h38l148 -118l-59 -73l-108 74z" />
<glyph unicode="&#xcf;" horiz-adv-x="330" d="M96 0v598l-6 103l144 5v-613l5 -93h-143zM57 772q-34 0 -55.5 22t-21.5 59q0 39 23.5 60.5t60.5 21.5q36 0 56 -20.5t20 -57.5q0 -41 -22.5 -63t-60.5 -22zM265 772q-34 0 -55.5 22t-21.5 59q0 39 23.5 60.5t60.5 21.5q36 0 56 -20.5t20 -57.5q0 -41 -22.5 -63t-60.5 -22 z" />
<glyph unicode="&#xd0;" horiz-adv-x="752" d="M15 305v84h90v209l-6 102h217q184 0 283.5 -85.5t99.5 -251.5q0 -92 -30.5 -163t-84.5 -114t-122 -64.5t-147 -21.5h-210v305h-90zM243 92h47q264 0 264 254q0 126 -63.5 194t-195.5 68h-52v-219h106v-84h-106v-213z" />
<glyph unicode="&#xd1;" horiz-adv-x="755" d="M565 -10l-335 459l-33 61h-3q7 -45 7 -71v-346l5 -93h-110v598l-6 103l101 5l334 -459q10 -14 18 -28t11 -21l3 -6l3 1q-5 28 -5 68v337l-6 103l111 5v-706zM462 770q-36 0 -72.5 18t-50.5 18q-16 0 -28 -12t-16 -27l-82 20q8 48 41 83.5t83 35.5q38 0 73.5 -18t48.5 -18 q15 0 25 12.5t13 26.5l80 -20q-9 -57 -41.5 -88t-73.5 -31z" />
<glyph unicode="&#xd2;" horiz-adv-x="759" d="M388 80q87 0 129.5 68.5t42.5 189.5q0 58 -9 106t-30 89t-59 64t-91 23q-87 0 -129.5 -68.5t-42.5 -189.5q0 -58 9 -106t30 -89t59 -64t91 -23zM368 -10q-98 0 -170.5 50.5t-106.5 127.5t-34 169q0 171 85.5 272t248.5 101q98 0 170.5 -50.5t106.5 -127.5t34 -169 q0 -171 -85.5 -272t-248.5 -101zM414 749l-187 154l96 101l160 -181z" />
<glyph unicode="&#xd3;" horiz-adv-x="759" d="M370 750l-70 73l160 181l97 -100zM388 80q87 0 129.5 68.5t42.5 189.5q0 58 -9 106t-30 89t-59 64t-91 23q-87 0 -129.5 -68.5t-42.5 -189.5q0 -58 9 -106t30 -89t59 -64t91 -23zM368 -10q-98 0 -170.5 50.5t-106.5 127.5t-34 169q0 171 85.5 272t248.5 101 q98 0 170.5 -50.5t106.5 -127.5t34 -169q0 -171 -85.5 -272t-248.5 -101z" />
<glyph unicode="&#xd4;" horiz-adv-x="759" d="M267 757l-61 69l151 124h38l148 -118l-59 -73l-108 74zM388 80q87 0 129.5 68.5t42.5 189.5q0 58 -9 106t-30 89t-59 64t-91 23q-87 0 -129.5 -68.5t-42.5 -189.5q0 -58 9 -106t30 -89t59 -64t91 -23zM368 -10q-98 0 -170.5 50.5t-106.5 127.5t-34 169q0 171 85.5 272 t248.5 101q98 0 170.5 -50.5t106.5 -127.5t34 -169q0 -171 -85.5 -272t-248.5 -101z" />
<glyph unicode="&#xd5;" horiz-adv-x="759" d="M388 80q87 0 129.5 68.5t42.5 189.5q0 58 -9 106t-30 89t-59 64t-91 23q-87 0 -129.5 -68.5t-42.5 -189.5q0 -58 9 -106t30 -89t59 -64t91 -23zM368 -10q-98 0 -170.5 50.5t-106.5 127.5t-34 169q0 171 85.5 272t248.5 101q98 0 170.5 -50.5t106.5 -127.5t34 -169 q0 -171 -85.5 -272t-248.5 -101zM456 761q-36 0 -72.5 18t-50.5 18q-16 0 -28 -12t-16 -27l-82 20q8 48 41 83.5t83 35.5q38 0 73.5 -18t48.5 -18q15 0 25 12.5t13 26.5l80 -20q-9 -57 -41.5 -88t-73.5 -31z" />
<glyph unicode="&#xd6;" horiz-adv-x="759" d="M262 775q-34 0 -55.5 22t-21.5 59q0 39 23.5 60.5t60.5 21.5q36 0 56 -20.5t20 -57.5q0 -41 -22.5 -63t-60.5 -22zM470 775q-34 0 -55.5 22t-21.5 59q0 39 23.5 60.5t60.5 21.5q36 0 56 -20.5t20 -57.5q0 -41 -22.5 -63t-60.5 -22zM388 80q87 0 129.5 68.5t42.5 189.5 q0 58 -9 106t-30 89t-59 64t-91 23q-87 0 -129.5 -68.5t-42.5 -189.5q0 -58 9 -106t30 -89t59 -64t91 -23zM368 -10q-98 0 -170.5 50.5t-106.5 127.5t-34 169q0 171 85.5 272t248.5 101q98 0 170.5 -50.5t106.5 -127.5t34 -169q0 -171 -85.5 -272t-248.5 -101z" />
<glyph unicode="&#xd7;" horiz-adv-x="547" d="M146 74l-86 84l129 130l-127 127l84 84l127 -128l127 128l87 -85l-129 -128l128 -128l-83 -83l-128 127z" />
<glyph unicode="&#xd8;" horiz-adv-x="759" d="M154 -70l-87 55l75 103q-85 99 -85 249q0 171 85.5 272t248.5 101q87 0 155 -41l53 75l85 -55l-61 -86q79 -97 79 -240q0 -171 -85.5 -272t-248.5 -101q-84 0 -148 36zM199 362q0 -98 25 -165l263 380q-45 43 -116 43q-87 0 -129.5 -68.5t-42.5 -189.5zM388 80 q87 0 129.5 68.5t42.5 189.5q0 86 -20 150l-260 -373q43 -35 108 -35z" />
<glyph unicode="&#xd9;" horiz-adv-x="753" d="M374 -14q-130 0 -207.5 76.5t-77.5 217.5v318l-6 103l144 5v-425q0 -104 40 -152t122 -48q75 0 121 50t46 150v317l-6 103l114 5v-425q0 -140 -74 -217.5t-216 -77.5zM390 749l-187 154l96 101l160 -181z" />
<glyph unicode="&#xda;" horiz-adv-x="753" d="M378 750l-70 73l160 181l97 -100zM374 -14q-130 0 -207.5 76.5t-77.5 217.5v318l-6 103l144 5v-425q0 -104 40 -152t122 -48q75 0 121 50t46 150v317l-6 103l114 5v-425q0 -140 -74 -217.5t-216 -77.5z" />
<glyph unicode="&#xdb;" horiz-adv-x="753" d="M276 756l-61 69l151 124h38l148 -118l-59 -73l-108 74zM374 -14q-130 0 -207.5 76.5t-77.5 217.5v318l-6 103l144 5v-425q0 -104 40 -152t122 -48q75 0 121 50t46 150v317l-6 103l114 5v-425q0 -140 -74 -217.5t-216 -77.5z" />
<glyph unicode="&#xdc;" horiz-adv-x="753" d="M273 775q-34 0 -55.5 22t-21.5 59q0 39 23.5 60.5t60.5 21.5q36 0 56 -20.5t20 -57.5q0 -41 -22.5 -63t-60.5 -22zM481 775q-34 0 -55.5 22t-21.5 59q0 39 23.5 60.5t60.5 21.5q36 0 56 -20.5t20 -57.5q0 -41 -22.5 -63t-60.5 -22zM374 -14q-130 0 -207.5 76.5 t-77.5 217.5v318l-6 103l144 5v-425q0 -104 40 -152t122 -48q75 0 121 50t46 150v317l-6 103l114 5v-425q0 -140 -74 -217.5t-216 -77.5z" />
<glyph unicode="&#xdd;" horiz-adv-x="602" d="M234 0v284l-186 324q-11 20 -25.5 43t-23.5 36l-9 13l158 5l178 -324l99 200q16 33 28.5 63t16.5 43l4 13h117q-36 -80 -76 -158l-143 -259v-190l5 -93h-143zM319 750l-70 73l160 181l97 -100z" />
<glyph unicode="&#xde;" horiz-adv-x="605" d="M96 0v598l-6 102h144v-104h72q127 0 195 -64.5t68 -172.5q0 -97 -71.5 -166.5t-181.5 -69.5h-82v-30l5 -93h-143zM292 501h-58v-282h54q70 0 105.5 39t35.5 100q0 143 -137 143z" />
<glyph unicode="&#xdf;" horiz-adv-x="652" d="M468 -10q-35 0 -88.5 9.5t-73.5 11.5l8 92q17 -2 56 -8t67 -6q22 0 35 12.5t13 32.5q0 29 -16.5 50t-40.5 36t-48 31.5t-40.5 45.5t-16.5 69q0 44 20.5 83t41.5 72t21 62q0 85 -84 85q-32 0 -57.5 -22.5t-25.5 -53.5v-499l6 -93h-139v410h-66v90h67v47q0 102 64 157.5 t183 55.5q74 0 132 -44t58 -117q0 -43 -13.5 -74.5t-29.5 -47t-29.5 -41t-13.5 -57.5q0 -22 16.5 -44t40.5 -42.5t48 -44t40.5 -59t16.5 -77.5q0 -55 -43.5 -88.5t-108.5 -33.5z" />
<glyph unicode="&#xe0;" horiz-adv-x="546" d="M191 -10q-74 0 -112 38t-38 94q0 134 171 162q55 9 116 9v31q0 46 -27.5 70t-76.5 24q-37 0 -73 -5.5t-53 -10.5l-18 -6v87q67 27 172 27q113 0 162 -49t47 -131q0 -21 -1 -72t-2 -93.5t-1 -64.5q0 -18 11 -18q8 0 17.5 5t14.5 10l6 5v-83q-32 -29 -78 -29q-63 0 -79 62 q-68 -62 -158 -62zM232 84q46 0 92 36q0 23 2 107q-48 -2 -85 -13q-66 -19 -66 -78q0 -24 14.5 -38t42.5 -14zM290 571l-187 154l96 101l160 -181z" />
<glyph unicode="&#xe1;" horiz-adv-x="546" d="M191 -10q-74 0 -112 38t-38 94q0 134 171 162q55 9 116 9v31q0 46 -27.5 70t-76.5 24q-37 0 -73 -5.5t-53 -10.5l-18 -6v87q67 27 172 27q113 0 162 -49t47 -131q0 -21 -1 -72t-2 -93.5t-1 -64.5q0 -18 11 -18q8 0 17.5 5t14.5 10l6 5v-83q-32 -29 -78 -29q-63 0 -79 62 q-68 -62 -158 -62zM232 84q46 0 92 36q0 23 2 107q-48 -2 -85 -13q-66 -19 -66 -78q0 -24 14.5 -38t42.5 -14zM271 570l-70 73l160 181l97 -100z" />
<glyph unicode="&#xe2;" horiz-adv-x="546" d="M191 -10q-74 0 -112 38t-38 94q0 134 171 162q55 9 116 9v31q0 46 -27.5 70t-76.5 24q-37 0 -73 -5.5t-53 -10.5l-18 -6v87q67 27 172 27q113 0 162 -49t47 -131q0 -21 -1 -72t-2 -93.5t-1 -64.5q0 -18 11 -18q8 0 17.5 5t14.5 10l6 5v-83q-32 -29 -78 -29q-63 0 -79 62 q-68 -62 -158 -62zM232 84q46 0 92 36q0 23 2 107q-48 -2 -85 -13q-66 -19 -66 -78q0 -24 14.5 -38t42.5 -14zM157 582l-61 69l151 124h38l148 -118l-59 -73l-108 74z" />
<glyph unicode="&#xe3;" horiz-adv-x="546" d="M191 -10q-74 0 -112 38t-38 94q0 134 171 162q55 9 116 9v31q0 46 -27.5 70t-76.5 24q-37 0 -73 -5.5t-53 -10.5l-18 -6v87q67 27 172 27q113 0 162 -49t47 -131q0 -21 -1 -72t-2 -93.5t-1 -64.5q0 -18 11 -18q8 0 17.5 5t14.5 10l6 5v-83q-32 -29 -78 -29q-63 0 -79 62 q-68 -62 -158 -62zM232 84q46 0 92 36q0 23 2 107q-48 -2 -85 -13q-66 -19 -66 -78q0 -24 14.5 -38t42.5 -14zM342 594q-36 0 -72.5 18t-50.5 18q-16 0 -28 -12t-16 -27l-82 20q8 48 41 83.5t83 35.5q38 0 73.5 -18t48.5 -18q15 0 25 12.5t13 26.5l80 -20q-9 -57 -41.5 -88 t-73.5 -31z" />
<glyph unicode="&#xe4;" horiz-adv-x="546" d="M191 -10q-74 0 -112 38t-38 94q0 134 171 162q55 9 116 9v31q0 46 -27.5 70t-76.5 24q-37 0 -73 -5.5t-53 -10.5l-18 -6v87q67 27 172 27q113 0 162 -49t47 -131q0 -21 -1 -72t-2 -93.5t-1 -64.5q0 -18 11 -18q8 0 17.5 5t14.5 10l6 5v-83q-32 -29 -78 -29q-63 0 -79 62 q-68 -62 -158 -62zM232 84q46 0 92 36q0 23 2 107q-48 -2 -85 -13q-66 -19 -66 -78q0 -24 14.5 -38t42.5 -14zM152 597q-34 0 -55.5 22t-21.5 59q0 39 23.5 60.5t60.5 21.5q36 0 56 -20.5t20 -57.5q0 -41 -22.5 -63t-60.5 -22zM360 597q-34 0 -55.5 22t-21.5 59 q0 39 23.5 60.5t60.5 21.5q36 0 56 -20.5t20 -57.5q0 -41 -22.5 -63t-60.5 -22z" />
<glyph unicode="&#xe5;" horiz-adv-x="546" d="M191 -10q-74 0 -112 38t-38 94q0 134 171 162q55 9 116 9v31q0 46 -27.5 70t-76.5 24q-37 0 -73 -5.5t-53 -10.5l-18 -6v87q67 27 172 27q113 0 162 -49t47 -131q0 -21 -1 -72t-2 -93.5t-1 -64.5q0 -18 11 -18q8 0 17.5 5t14.5 10l6 5v-83q-32 -29 -78 -29q-63 0 -79 62 q-68 -62 -158 -62zM232 84q46 0 92 36q0 23 2 107q-48 -2 -85 -13q-66 -19 -66 -78q0 -24 14.5 -38t42.5 -14zM267 656q22 0 22 38q0 36 -22 36q-11 0 -18 -10t-7 -26t7.5 -27t17.5 -11zM267 583q-54 0 -89.5 30t-35.5 81t35.5 81t89.5 30t89 -30t35 -81t-35 -81t-89 -30z " />
<glyph unicode="&#xe6;" horiz-adv-x="836" d="M213 -10q-86 0 -129 39.5t-43 102.5q0 60 46.5 101t124.5 53q55 9 116 9v21q0 52 -25 73t-75 21q-39 0 -76 -7t-54 -13l-18 -7v95q67 32 190 32q101 0 142 -57q64 57 163 57q119 0 172 -77.5t39 -195.5h-327q3 -67 46 -107t112 -40q37 0 74 7t56 13l19 7v-93 q-60 -34 -179 -34q-124 0 -198 72q-64 -72 -176 -72zM175 144q0 -15 9.5 -28t26 -19.5t37.5 -7.5t47 9.5t50 31.5q-18 40 -21 94q-149 -2 -149 -80zM466 321l185 4q-1 51 -21 74t-59 23q-85 0 -105 -101z" />
<glyph unicode="&#xe7;" horiz-adv-x="485" d="M276 -212q-64 0 -116 20l24 61q39 -10 76 -10q33 0 33 22q0 13 -16.5 17t-41.5 -8l-13 15l31 88q-95 13 -149 78.5t-54 162.5q0 123 67 199.5t179 76.5q30 0 75 -9.5t67 -10.5l-10 -102q-24 2 -69 12.5t-68 10.5q-47 0 -76.5 -39t-29.5 -114q0 -77 38 -122.5t107 -45.5 q27 0 54 7t41 13l14 7v-94q-45 -28 -122 -32v-35q41 -4 64.5 -23t23.5 -53q0 -41 -35.5 -66.5t-93.5 -25.5z" />
<glyph unicode="&#xe8;" horiz-adv-x="560" d="M321 -10q-126 0 -199.5 67t-73.5 185q0 124 70 196t181 72q119 0 172 -77.5t39 -195.5h-327q3 -67 46 -107t112 -40q37 0 74 7t56 13l19 7v-93q-60 -34 -169 -34zM190 321l185 4q-1 51 -21 74t-59 23q-42 0 -71 -28t-34 -73zM346 571l-187 154l96 101l160 -181z" />
<glyph unicode="&#xe9;" horiz-adv-x="560" d="M297 571l-70 73l160 181l97 -100zM321 -10q-126 0 -199.5 67t-73.5 185q0 124 70 196t181 72q119 0 172 -77.5t39 -195.5h-327q3 -67 46 -107t112 -40q37 0 74 7t56 13l19 7v-93q-60 -34 -169 -34zM190 321l185 4q-1 51 -21 74t-59 23q-42 0 -71 -28t-34 -73z" />
<glyph unicode="&#xea;" horiz-adv-x="560" d="M193 582l-61 69l151 124h38l148 -118l-59 -73l-108 74zM321 -10q-126 0 -199.5 67t-73.5 185q0 124 70 196t181 72q119 0 172 -77.5t39 -195.5h-327q3 -67 46 -107t112 -40q37 0 74 7t56 13l19 7v-93q-60 -34 -169 -34zM190 321l185 4q-1 51 -21 74t-59 23q-42 0 -71 -28 t-34 -73z" />
<glyph unicode="&#xeb;" horiz-adv-x="560" d="M176 596q-34 0 -55.5 22t-21.5 59q0 39 23.5 60.5t60.5 21.5q36 0 56 -20.5t20 -57.5q0 -41 -22.5 -63t-60.5 -22zM384 596q-34 0 -55.5 22t-21.5 59q0 39 23.5 60.5t60.5 21.5q36 0 56 -20.5t20 -57.5q0 -41 -22.5 -63t-60.5 -22zM321 -10q-126 0 -199.5 67t-73.5 185 q0 124 70 196t181 72q119 0 172 -77.5t39 -195.5h-327q3 -67 46 -107t112 -40q37 0 74 7t56 13l19 7v-93q-60 -34 -169 -34zM190 321l185 4q-1 51 -21 74t-59 23q-42 0 -71 -28t-34 -73z" />
<glyph unicode="&#xec;" horiz-adv-x="291" d="M79 0v397l-6 103l139 5v-412l5 -93h-138zM177 571l-187 154l96 101l160 -181z" />
<glyph unicode="&#xed;" horiz-adv-x="291" d="M145 572l-70 73l160 181l97 -100zM79 0v397l-6 103l139 5v-412l5 -93h-138z" />
<glyph unicode="&#xee;" horiz-adv-x="291" d="M39 581l-61 69l151 124h38l148 -118l-59 -73l-108 74zM79 0v397l-6 103l139 5v-412l5 -93h-138z" />
<glyph unicode="&#xef;" horiz-adv-x="291" d="M36 594q-34 0 -55.5 22t-21.5 59q0 39 23.5 60.5t60.5 21.5q36 0 56 -20.5t20 -57.5q0 -41 -22.5 -63t-60.5 -22zM244 594q-34 0 -55.5 22t-21.5 59q0 39 23.5 60.5t60.5 21.5q36 0 56 -20.5t20 -57.5q0 -41 -22.5 -63t-60.5 -22zM79 0v397l-6 103l139 5v-412l5 -93h-138 z" />
<glyph unicode="&#xf0;" horiz-adv-x="582" d="M208 505l-76 48l56 86q-43 19 -109 36l28 101q81 -18 141 -43l63 98l75 -50l-58 -90q195 -124 195 -384q0 -137 -63.5 -227t-180.5 -90q-106 0 -167 67t-61 162q0 108 59.5 176t163.5 68q46 0 91 -18q-28 92 -100 149zM384 303q0 6 -0.5 17.5t-0.5 17.5q-41 29 -87 29 q-50 0 -79 -38t-29 -101q0 -60 23 -102.5t73 -42.5q52 0 76 62.5t24 157.5z" />
<glyph unicode="&#xf1;" horiz-adv-x="605" d="M79 0v397l-6 103l132 5l3 -56q39 31 76.5 46t94.5 15q74 0 113 -48.5t39 -137.5v-241l5 -83h-138v309q0 101 -78 101q-46 0 -110 -34q2 -27 2 -75v-218l5 -83h-138zM388 593q-36 0 -72.5 18t-50.5 18q-16 0 -28 -12t-16 -27l-82 20q8 48 41 83.5t83 35.5q38 0 73.5 -18 t48.5 -18q15 0 25 12.5t13 26.5l80 -20q-9 -57 -41.5 -88t-73.5 -31z" />
<glyph unicode="&#xf2;" horiz-adv-x="584" d="M294 80q51 0 78 40.5t27 116.5q0 91 -24.5 137.5t-84.5 46.5q-52 0 -78.5 -42.5t-26.5 -120.5q0 -82 27 -130t82 -48zM279 -10q-107 0 -168 66t-61 177q0 129 68 203t187 74q107 0 168 -66t61 -177q0 -128 -68.5 -202.5t-186.5 -74.5zM319 572l-187 154l96 101l160 -181z " />
<glyph unicode="&#xf3;" horiz-adv-x="584" d="M287 572l-70 73l160 181l97 -100zM294 80q51 0 78 40.5t27 116.5q0 91 -24.5 137.5t-84.5 46.5q-52 0 -78.5 -42.5t-26.5 -120.5q0 -82 27 -130t82 -48zM279 -10q-107 0 -168 66t-61 177q0 129 68 203t187 74q107 0 168 -66t61 -177q0 -128 -68.5 -202.5t-186.5 -74.5z " />
<glyph unicode="&#xf4;" horiz-adv-x="584" d="M178 583l-61 69l151 124h38l148 -118l-59 -73l-108 74zM294 80q51 0 78 40.5t27 116.5q0 91 -24.5 137.5t-84.5 46.5q-52 0 -78.5 -42.5t-26.5 -120.5q0 -82 27 -130t82 -48zM279 -10q-107 0 -168 66t-61 177q0 129 68 203t187 74q107 0 168 -66t61 -177 q0 -128 -68.5 -202.5t-186.5 -74.5z" />
<glyph unicode="&#xf5;" horiz-adv-x="584" d="M294 80q51 0 78 40.5t27 116.5q0 91 -24.5 137.5t-84.5 46.5q-52 0 -78.5 -42.5t-26.5 -120.5q0 -82 27 -130t82 -48zM279 -10q-107 0 -168 66t-61 177q0 129 68 203t187 74q107 0 168 -66t61 -177q0 -128 -68.5 -202.5t-186.5 -74.5zM367 600q-36 0 -72.5 18t-50.5 18 q-16 0 -28 -12t-16 -27l-82 20q8 48 41 83.5t83 35.5q38 0 73.5 -18t48.5 -18q15 0 25 12.5t13 26.5l80 -20q-9 -57 -41.5 -88t-73.5 -31z" />
<glyph unicode="&#xf6;" horiz-adv-x="584" d="M184 597q-34 0 -55.5 22t-21.5 59q0 39 23.5 60.5t60.5 21.5q36 0 56 -20.5t20 -57.5q0 -41 -22.5 -63t-60.5 -22zM392 597q-34 0 -55.5 22t-21.5 59q0 39 23.5 60.5t60.5 21.5q36 0 56 -20.5t20 -57.5q0 -41 -22.5 -63t-60.5 -22zM294 80q51 0 78 40.5t27 116.5 q0 91 -24.5 137.5t-84.5 46.5q-52 0 -78.5 -42.5t-26.5 -120.5q0 -82 27 -130t82 -48zM279 -10q-107 0 -168 66t-61 177q0 129 68 203t187 74q107 0 168 -66t61 -177q0 -128 -68.5 -202.5t-186.5 -74.5z" />
<glyph unicode="&#xf7;" horiz-adv-x="527" d="M53 228v114h421v-114h-421zM270 195q32 0 54.5 -22t22.5 -56q0 -38 -24.5 -59.5t-60.5 -21.5q-35 0 -55.5 20t-20.5 55q0 40 23 62t61 22zM270 541q32 0 54.5 -22t22.5 -56q0 -38 -24.5 -59.5t-60.5 -21.5q-35 0 -55.5 20t-20.5 55q0 40 23 62t61 22z" />
<glyph unicode="&#xf8;" horiz-adv-x="583" d="M149 -54l-77 49l40 59q-62 65 -62 174q0 132 68 207t187 75q59 0 106 -21l43 64l77 -50l-48 -70q51 -63 51 -160q0 -132 -68 -207.5t-187 -75.5q-48 0 -90 14zM185 272q0 -66 9 -105l160 234q-26 20 -70 20q-99 0 -99 -149zM300 80q99 0 99 149q0 50 -4 82l-150 -220 q24 -11 55 -11z" />
<glyph unicode="&#xf9;" horiz-adv-x="606" d="M527 500v-397l6 -103l-132 -5l-3 56q-39 -31 -76.5 -46t-94.5 -15q-74 0 -113 48.5t-39 137.5v241l-5 83h138v-309q0 -101 78 -101q46 0 110 34q-2 27 -2 75v218l-5 83h138zM327 571l-187 154l96 101l160 -181z" />
<glyph unicode="&#xfa;" horiz-adv-x="606" d="M305 571l-70 73l160 181l97 -100zM527 500v-397l6 -103l-132 -5l-3 56q-39 -31 -76.5 -46t-94.5 -15q-74 0 -113 48.5t-39 137.5v241l-5 83h138v-309q0 -101 78 -101q46 0 110 34q-2 27 -2 75v218l-5 83h138z" />
<glyph unicode="&#xfb;" horiz-adv-x="606" d="M206 580l-61 69l151 124h38l148 -118l-59 -73l-108 74zM527 500v-397l6 -103l-132 -5l-3 56q-39 -31 -76.5 -46t-94.5 -15q-74 0 -113 48.5t-39 137.5v241l-5 83h138v-309q0 -101 78 -101q46 0 110 34q-2 27 -2 75v218l-5 83h138z" />
<glyph unicode="&#xfc;" horiz-adv-x="606" d="M189 591q-34 0 -55.5 22t-21.5 59q0 39 23.5 60.5t60.5 21.5q36 0 56 -20.5t20 -57.5q0 -41 -22.5 -63t-60.5 -22zM397 591q-34 0 -55.5 22t-21.5 59q0 39 23.5 60.5t60.5 21.5q36 0 56 -20.5t20 -57.5q0 -41 -22.5 -63t-60.5 -22zM527 500v-397l6 -103l-132 -5l-3 56 q-39 -31 -76.5 -46t-94.5 -15q-74 0 -113 48.5t-39 137.5v241l-5 83h138v-309q0 -101 78 -101q46 0 110 34q-2 27 -2 75v218l-5 83h138z" />
<glyph unicode="&#xfd;" horiz-adv-x="524" d="M235 -254l-129 6q29 80 87 185l16 29l-155 431l-42 103l147 5l96 -293q8 -26 14.5 -51t8.5 -37l3 -11h4q9 47 26 101l46 143q31 96 36 143h108q-7 -86 -56 -202l-126 -307q-23 -55 -44 -116t-31 -95zM276 571l-70 73l160 181l97 -100z" />
<glyph unicode="&#xfe;" horiz-adv-x="614" d="M79 -250v896l-6 103l137 5l-2 -297q53 53 147 53q96 0 152.5 -68t56.5 -165q0 -132 -67.5 -209.5t-173.5 -77.5q-63 0 -111 29v-186l5 -83h-138zM293 80q66 0 100 47t34 120q0 85 -30.5 124t-79.5 39q-53 0 -107 -33q2 -16 2 -76v-182q35 -39 81 -39z" />
<glyph unicode="&#xff;" horiz-adv-x="524" d="M235 -254l-129 6q29 80 87 185l16 29l-155 431l-42 103l147 5l96 -293q8 -26 14.5 -51t8.5 -37l3 -11h4q9 47 26 101l46 143q31 96 36 143h108q-7 -86 -56 -202l-126 -307q-23 -55 -44 -116t-31 -95zM170 596q-34 0 -55.5 22t-21.5 59q0 39 23.5 60.5t60.5 21.5 q36 0 56 -20.5t20 -57.5q0 -41 -22.5 -63t-60.5 -22zM378 596q-34 0 -55.5 22t-21.5 59q0 39 23.5 60.5t60.5 21.5q36 0 56 -20.5t20 -57.5q0 -41 -22.5 -63t-60.5 -22z" />
<glyph unicode="&#x100;" horiz-adv-x="636" d="M491 -4l-56 153h-267q-29 -91 -38 -149h-107q9 64 49 177l188 520l109 6l216 -583q12 -33 24 -62.5t19 -42.5l6 -13zM280 480l-81 -240h203l-87 240l-16 61h-4q-5 -31 -15 -61zM172 776v104h274v-104h-274z" />
<glyph unicode="&#x101;" horiz-adv-x="546" d="M191 -10q-74 0 -112 38t-38 94q0 134 171 162q55 9 116 9v31q0 46 -27.5 70t-76.5 24q-37 0 -73 -5.5t-53 -10.5l-18 -6v87q67 27 172 27q113 0 162 -49t47 -131q0 -21 -1 -72t-2 -93.5t-1 -64.5q0 -18 11 -18q8 0 17.5 5t14.5 10l6 5v-83q-32 -29 -78 -29q-63 0 -79 62 q-68 -62 -158 -62zM232 84q46 0 92 36q0 23 2 107q-48 -2 -85 -13q-66 -19 -66 -78q0 -24 14.5 -38t42.5 -14zM136 608v104h274v-104h-274z" />
<glyph unicode="&#x102;" horiz-adv-x="636" d="M491 -4l-56 153h-267q-29 -91 -38 -149h-107q9 64 49 177l188 520l109 6l216 -583q12 -33 24 -62.5t19 -42.5l6 -13zM280 480l-81 -240h203l-87 240l-16 61h-4q-5 -31 -15 -61zM315 781q-57 0 -100 33.5t-60 96.5l90 36l1 -3q2 -4 4.5 -8.5t6 -10t9.5 -11.5t12.5 -10.5 t16 -7.5t20.5 -3q15 0 27.5 5.5t20 13.5t12.5 15.5t7 13.5l3 6l92 -37q-17 -61 -62.5 -95t-99.5 -34z" />
<glyph unicode="&#x103;" horiz-adv-x="546" d="M191 -10q-74 0 -112 38t-38 94q0 134 171 162q55 9 116 9v31q0 46 -27.5 70t-76.5 24q-37 0 -73 -5.5t-53 -10.5l-18 -6v87q67 27 172 27q113 0 162 -49t47 -131q0 -21 -1 -72t-2 -93.5t-1 -64.5q0 -18 11 -18q8 0 17.5 5t14.5 10l6 5v-83q-32 -29 -78 -29q-63 0 -79 62 q-68 -62 -158 -62zM232 84q46 0 92 36q0 23 2 107q-48 -2 -85 -13q-66 -19 -66 -78q0 -24 14.5 -38t42.5 -14zM265 596q-57 0 -100 33.5t-60 96.5l90 36l1 -4q2 -3 4.5 -7.5t6 -10t9.5 -11.5t12.5 -10.5t16 -7.5t20.5 -3q15 0 27.5 5.5t20 13.5t12.5 15.5t7 13.5l3 6l92 -37 q-17 -61 -62.5 -95t-99.5 -34z" />
<glyph unicode="&#x104;" horiz-adv-x="637" d="M491 -4l-56 153h-267q-29 -91 -38 -149h-107q9 64 49 177l188 520l109 6l216 -583q12 -33 24 -62.5t19 -42.5l6 -13q-35 -16 -59 -41t-24 -49q0 -38 52 -38q14 0 29.5 3t24.5 5l9 3v-65q-36 -17 -82 -17q-62 0 -95.5 24.5t-33.5 65.5q0 35 26 62.5t60 42.5zM280 480 l-81 -240h203l-87 240l-16 61h-4q-5 -31 -15 -61z" />
<glyph unicode="&#x105;" horiz-adv-x="545" d="M436 -193q-62 0 -95.5 24.5t-33.5 65.5q0 63 80 102q-29 14 -38 53q-68 -62 -158 -62q-74 0 -112 38t-38 94q0 134 171 162q55 9 116 9v31q0 46 -27.5 70t-76.5 24q-37 0 -73 -5.5t-53 -10.5l-18 -6v87q67 27 172 27q113 0 162 -49t47 -131q0 -21 -1 -72t-2 -93.5 t-1 -64.5q0 -18 11 -18q8 0 17.5 5t14.5 10l6 5v-83q-32 -29 -78 -29q-24 0 -41 9l16 7h83q-35 -16 -59 -41t-24 -49q0 -38 52 -38q14 0 29.5 3t24.5 5l9 3v-65q-36 -17 -82 -17zM232 84q46 0 92 36q0 23 2 107q-48 -2 -85 -13q-66 -19 -66 -78q0 -24 14.5 -38t42.5 -14z " />
<glyph unicode="&#x106;" horiz-adv-x="594" d="M359 749l-70 73l160 181l97 -100zM404 -10q-162 0 -255 94t-93 245q0 174 87 279t242 105q28 0 57 -3.5t61 -9t49 -7.5l-14 -98q-26 1 -73.5 10.5t-81.5 9.5q-86 0 -135.5 -68t-49.5 -183q0 -123 51 -198.5t161 -75.5q35 0 67.5 5t47.5 9l15 5l17 -90q-52 -29 -153 -29z " />
<glyph unicode="&#x107;" horiz-adv-x="484" d="M274 572l-70 73l160 181l97 -100zM297 -10q-115 0 -181.5 67.5t-66.5 176.5q0 123 67 199.5t179 76.5q30 0 75 -9.5t67 -10.5l-10 -102q-24 2 -69 12.5t-68 10.5q-47 0 -76.5 -39t-29.5 -114q0 -77 38 -122.5t107 -45.5q27 0 54 7t41 13l14 7v-94q-52 -33 -141 -33z" />
<glyph unicode="&#x108;" horiz-adv-x="594" d="M255 762l-61 69l151 124h38l148 -118l-59 -73l-108 74zM404 -10q-162 0 -255 94t-93 245q0 174 87 279t242 105q28 0 57 -3.5t61 -9t49 -7.5l-14 -98q-26 1 -73.5 10.5t-81.5 9.5q-86 0 -135.5 -68t-49.5 -183q0 -123 51 -198.5t161 -75.5q35 0 67.5 5t47.5 9l15 5 l17 -90q-52 -29 -153 -29z" />
<glyph unicode="&#x109;" horiz-adv-x="484" d="M176 583l-61 69l151 124h38l148 -118l-59 -73l-108 74zM297 -10q-115 0 -181.5 67.5t-66.5 176.5q0 123 67 199.5t179 76.5q30 0 75 -9.5t67 -10.5l-10 -102q-24 2 -69 12.5t-68 10.5q-47 0 -76.5 -39t-29.5 -114q0 -77 38 -122.5t107 -45.5q27 0 54 7t41 13l14 7v-94 q-52 -33 -141 -33z" />
<glyph unicode="&#x10a;" horiz-adv-x="594" d="M404 -10q-162 0 -255 94t-93 245q0 174 87 279t242 105q28 0 57 -3.5t61 -9t49 -7.5l-14 -98q-26 1 -73.5 10.5t-81.5 9.5q-86 0 -135.5 -68t-49.5 -183q0 -123 51 -198.5t161 -75.5q35 0 67.5 5t47.5 9l15 5l17 -90q-52 -29 -153 -29zM348 775q-32 0 -55.5 23t-23.5 56 q0 32 24.5 55.5t56.5 23.5q33 0 55.5 -23t22.5 -56t-24 -56t-56 -23z" />
<glyph unicode="&#x10b;" horiz-adv-x="484" d="M297 -10q-115 0 -181.5 67.5t-66.5 176.5q0 123 67 199.5t179 76.5q30 0 75 -9.5t67 -10.5l-10 -102q-24 2 -69 12.5t-68 10.5q-47 0 -76.5 -39t-29.5 -114q0 -77 38 -122.5t107 -45.5q27 0 54 7t41 13l14 7v-94q-52 -33 -141 -33zM279 590q-32 0 -55.5 23t-23.5 56 q0 32 24.5 55.5t56.5 23.5q33 0 55.5 -23t22.5 -56t-24 -56t-56 -23z" />
<glyph unicode="&#x10c;" horiz-adv-x="594" d="M463 957l61 -69l-151 -124h-38l-148 118l59 73l108 -74zM404 -10q-162 0 -255 94t-93 245q0 174 87 279t242 105q28 0 57 -3.5t61 -9t49 -7.5l-14 -98q-26 1 -73.5 10.5t-81.5 9.5q-86 0 -135.5 -68t-49.5 -183q0 -123 51 -198.5t161 -75.5q35 0 67.5 5t47.5 9l15 5 l17 -90q-52 -29 -153 -29z" />
<glyph unicode="&#x10d;" horiz-adv-x="484" d="M383 777l61 -69l-151 -124h-38l-148 118l59 73l108 -74zM297 -10q-115 0 -181.5 67.5t-66.5 176.5q0 123 67 199.5t179 76.5q30 0 75 -9.5t67 -10.5l-10 -102q-24 2 -69 12.5t-68 10.5q-47 0 -76.5 -39t-29.5 -114q0 -77 38 -122.5t107 -45.5q27 0 54 7t41 13l14 7v-94 q-52 -33 -141 -33z" />
<glyph unicode="&#x10e;" horiz-adv-x="743" d="M434 954l61 -69l-151 -124h-38l-148 118l59 73l108 -74zM96 0v598l-6 102h217q184 0 283.5 -85.5t99.5 -251.5q0 -92 -30.5 -163t-84.5 -114t-122 -64.5t-147 -21.5h-210zM234 92h47q264 0 264 254q0 126 -63.5 194t-195.5 68h-52v-516z" />
<glyph unicode="&#x10f;" horiz-adv-x="705" d="M273 -10q-101 0 -162 67.5t-61 173.5q0 132 68.5 205.5t170.5 73.5q71 0 112 -33v170q0 25 -1.5 51t-3.5 39l-2 13l139 5v-651l6 -103l-130 -5l-3 46q-44 -52 -133 -52zM308 85q60 0 93 39v256q-30 41 -92 41q-59 0 -90.5 -44t-31.5 -123q0 -77 29 -123t92 -46zM647 435 l-64 53q57 53 78 117q-28 5 -45 26t-17 51q0 38 24 60t59 22q36 0 58 -22.5t22 -68.5q0 -63 -33.5 -129.5t-81.5 -108.5z" />
<glyph unicode="&#x110;" horiz-adv-x="752" d="M15 305v84h90v209l-6 102h217q184 0 283.5 -85.5t99.5 -251.5q0 -92 -30.5 -163t-84.5 -114t-122 -64.5t-147 -21.5h-210v305h-90zM243 92h47q264 0 264 254q0 126 -63.5 194t-195.5 68h-52v-219h106v-84h-106v-213z" />
<glyph unicode="&#x111;" horiz-adv-x="612" d="M235 564v89h166l-7 97l139 5v-102h56v-89h-56v-460l6 -103l-130 -5l-3 46q-44 -52 -133 -52q-101 0 -162 67.5t-61 173.5q0 132 68.5 205.5t170.5 73.5q71 0 112 -33v87h-166zM308 85q60 0 93 39v256q-30 41 -92 41q-59 0 -90.5 -44t-31.5 -123q0 -77 29 -123t92 -46z " />
<glyph unicode="&#x112;" horiz-adv-x="598" d="M96 0v598l-6 102h453l-5 -99q-39 5 -85 6l-219 3v-210l259 5l-5 -106l-254 8v-216l204 3l105 6l-5 -100h-442zM195 774v104h274v-104h-274z" />
<glyph unicode="&#x113;" horiz-adv-x="560" d="M321 -10q-126 0 -199.5 67t-73.5 185q0 124 70 196t181 72q119 0 172 -77.5t39 -195.5h-327q3 -67 46 -107t112 -40q37 0 74 7t56 13l19 7v-93q-60 -34 -169 -34zM190 321l185 4q-1 51 -21 74t-59 23q-42 0 -71 -28t-34 -73zM149 609v104h274v-104h-274z" />
<glyph unicode="&#x114;" horiz-adv-x="598" d="M96 0v598l-6 102h453l-5 -99q-39 5 -85 6l-219 3v-210l259 5l-5 -106l-254 8v-216l204 3l105 6l-5 -100h-442zM319 776q-57 0 -100 33.5t-60 96.5l90 36l1 -4q2 -3 4.5 -7.5t6 -10t9.5 -11.5t12.5 -10.5t16 -7.5t20.5 -3q15 0 27.5 5.5t20 13.5t12.5 15.5t7 13.5l3 6 l92 -37q-17 -61 -62.5 -95t-99.5 -34z" />
<glyph unicode="&#x115;" horiz-adv-x="560" d="M321 -10q-126 0 -199.5 67t-73.5 185q0 124 70 196t181 72q119 0 172 -77.5t39 -195.5h-327q3 -67 46 -107t112 -40q37 0 74 7t56 13l19 7v-93q-60 -34 -169 -34zM190 321l185 4q-1 51 -21 74t-59 23q-42 0 -71 -28t-34 -73zM302 596q-57 0 -100 33.5t-60 96.5l90 36 l2 -4q1 -3 3.5 -7.5t6 -10t9.5 -11.5t12.5 -10.5t16 -7.5t20.5 -3q15 0 27.5 5.5t20 13.5t12.5 15.5t8 13.5l2 6l92 -37q-17 -61 -62.5 -95t-99.5 -34z" />
<glyph unicode="&#x116;" horiz-adv-x="598" d="M96 0v598l-6 102h453l-5 -99q-39 5 -85 6l-219 3v-210l259 5l-5 -106l-254 8v-216l204 3l105 6l-5 -100h-442zM334 775q-32 0 -55.5 23t-23.5 56q0 32 24.5 55.5t56.5 23.5q33 0 55.5 -23t22.5 -56t-24 -56t-56 -23z" />
<glyph unicode="&#x117;" horiz-adv-x="560" d="M321 -10q-126 0 -199.5 67t-73.5 185q0 124 70 196t181 72q119 0 172 -77.5t39 -195.5h-327q3 -67 46 -107t112 -40q37 0 74 7t56 13l19 7v-93q-60 -34 -169 -34zM190 321l185 4q-1 51 -21 74t-59 23q-42 0 -71 -28t-34 -73zM291 591q-32 0 -55.5 23t-23.5 56 q0 32 24.5 55.5t56.5 23.5q33 0 55.5 -23t22.5 -56t-24 -56t-56 -23z" />
<glyph unicode="&#x118;" horiz-adv-x="598" d="M96 0v598l-6 102h453l-5 -99q-39 5 -85 6l-219 3v-210l259 5l-5 -106l-254 8v-216l204 3l105 6l-5 -100h-3q-35 -16 -59 -41t-24 -49q0 -38 52 -38q14 0 29.5 3t24.5 5l9 3v-65q-36 -17 -82 -17q-62 0 -95.5 24.5t-33.5 65.5q0 38 29.5 66.5t66.5 42.5h-356z" />
<glyph unicode="&#x119;" horiz-adv-x="562" d="M380 -197q-62 0 -95.5 24.5t-33.5 65.5q0 59 70 97q-126 1 -199 67.5t-73 184.5q0 124 70 196t181 72q119 0 172 -77.5t39 -195.5h-327q3 -67 46 -107t112 -40q37 0 74 7t56 13l19 7v-93q-23 -13 -62 -22h1q-35 -16 -59 -41t-24 -49q0 -38 52 -38q14 0 29.5 3t24.5 5l9 3 v-65q-36 -17 -82 -17zM191 321l185 4q-1 51 -21 74t-59 23q-42 0 -71 -28t-34 -73z" />
<glyph unicode="&#x11a;" horiz-adv-x="598" d="M443 956l61 -69l-151 -124h-38l-148 118l59 73l108 -74zM96 0v598l-6 102h453l-5 -99q-39 5 -85 6l-219 3v-210l259 5l-5 -106l-254 8v-216l204 3l105 6l-5 -100h-442z" />
<glyph unicode="&#x11b;" horiz-adv-x="560" d="M407 777l61 -69l-151 -124h-38l-148 118l59 73l108 -74zM321 -10q-126 0 -199.5 67t-73.5 185q0 124 70 196t181 72q119 0 172 -77.5t39 -195.5h-327q3 -67 46 -107t112 -40q37 0 74 7t56 13l19 7v-93q-60 -34 -169 -34zM190 321l185 4q-1 51 -21 74t-59 23 q-42 0 -71 -28t-34 -73z" />
<glyph unicode="&#x11c;" horiz-adv-x="684" d="M284 761l-61 69l151 124h38l148 -118l-59 -73l-108 74zM439 -10q-183 0 -284 87.5t-101 269.5q0 160 99 263t265 103q32 0 64 -3.5t67.5 -9t50.5 -7.5l-14 -98q-15 2 -48.5 7.5t-66 9t-61.5 3.5q-50 0 -88.5 -17t-61.5 -44t-38 -64t-20.5 -74t-5.5 -78 q0 -120 67.5 -185.5t175.5 -65.5l48 5v117l-6 103l139 5v-302q-96 -25 -181 -25z" />
<glyph unicode="&#x11d;" horiz-adv-x="562" d="M173 584l-61 69l151 124h38l148 -118l-59 -73l-108 74zM275 -262q-105 -2 -172.5 35.5t-67.5 117.5q0 84 80 123q-21 23 -21 66q0 21 13 45.5t38 41.5q-42 19 -66.5 58.5t-24.5 92.5q0 86 58.5 139t162.5 53q51 0 104 -20l159 12l-3 -72l-96 1v-4q34 -34 34 -104 q0 -73 -57 -127.5t-164 -54.5q-23 0 -53 4q-5 -8 -5 -18q0 -31 49 -34l97 -6q171 -10 171 -161q0 -77 -61 -132t-175 -56zM296 -180q53 0 84.5 24t31.5 60q0 32 -22 46.5t-70 16.5l-81 5q-51 4 -78 14q-12 -24 -12 -57q0 -49 40 -79t107 -30zM263 225q36 0 55.5 28.5 t19.5 71.5q0 47 -20 73.5t-54 26.5q-35 0 -55 -28t-20 -69q0 -46 20.5 -74.5t53.5 -28.5z" />
<glyph unicode="&#x11e;" horiz-adv-x="684" d="M439 -10q-183 0 -284 87.5t-101 269.5q0 160 99 263t265 103q32 0 64 -3.5t67.5 -9t50.5 -7.5l-14 -98q-15 2 -48.5 7.5t-66 9t-61.5 3.5q-50 0 -88.5 -17t-61.5 -44t-38 -64t-20.5 -74t-5.5 -78q0 -120 67.5 -185.5t175.5 -65.5l48 5v117l-6 103l139 5v-302 q-96 -25 -181 -25zM398 777q-57 0 -100 33.5t-60 96.5l90 36l2 -3q1 -4 3.5 -8.5t6 -10t9.5 -11.5t12.5 -10.5t16 -7.5t20.5 -3q15 0 27.5 5.5t20 13.5t12.5 15.5t8 13.5l2 6l92 -37q-17 -61 -62.5 -95t-99.5 -34z" />
<glyph unicode="&#x11f;" horiz-adv-x="562" d="M275 -262q-105 -2 -172.5 35.5t-67.5 117.5q0 84 80 123q-21 23 -21 66q0 21 13 45.5t38 41.5q-42 19 -66.5 58.5t-24.5 92.5q0 86 58.5 139t162.5 53q51 0 104 -20l159 12l-3 -72l-96 1v-4q34 -34 34 -104q0 -73 -57 -127.5t-164 -54.5q-23 0 -53 4q-5 -8 -5 -18 q0 -31 49 -34l97 -6q171 -10 171 -161q0 -77 -61 -132t-175 -56zM296 -180q53 0 84.5 24t31.5 60q0 32 -22 46.5t-70 16.5l-81 5q-51 4 -78 14q-12 -24 -12 -57q0 -49 40 -79t107 -30zM263 225q36 0 55.5 28.5t19.5 71.5q0 47 -20 73.5t-54 26.5q-35 0 -55 -28t-20 -69 q0 -46 20.5 -74.5t53.5 -28.5zM272 596q-57 0 -100 33.5t-60 96.5l90 36l2 -4q1 -3 3.5 -7.5t6 -10t9.5 -11.5t12.5 -10.5t16 -7.5t20.5 -3q15 0 27.5 5.5t20 13.5t12.5 15.5t8 13.5l2 6l92 -37q-17 -61 -62.5 -95t-99.5 -34z" />
<glyph unicode="&#x120;" horiz-adv-x="684" d="M439 -10q-183 0 -284 87.5t-101 269.5q0 160 99 263t265 103q32 0 64 -3.5t67.5 -9t50.5 -7.5l-14 -98q-15 2 -48.5 7.5t-66 9t-61.5 3.5q-50 0 -88.5 -17t-61.5 -44t-38 -64t-20.5 -74t-5.5 -78q0 -120 67.5 -185.5t175.5 -65.5l48 5v117l-6 103l139 5v-302 q-96 -25 -181 -25zM382 775q-32 0 -55.5 23t-23.5 56q0 32 24.5 55.5t56.5 23.5q33 0 55.5 -23t22.5 -56t-24 -56t-56 -23z" />
<glyph unicode="&#x121;" horiz-adv-x="562" d="M275 -262q-105 -2 -172.5 35.5t-67.5 117.5q0 84 80 123q-21 23 -21 66q0 21 13 45.5t38 41.5q-42 19 -66.5 58.5t-24.5 92.5q0 86 58.5 139t162.5 53q51 0 104 -20l159 12l-3 -72l-96 1v-4q34 -34 34 -104q0 -73 -57 -127.5t-164 -54.5q-23 0 -53 4q-5 -8 -5 -18 q0 -31 49 -34l97 -6q171 -10 171 -161q0 -77 -61 -132t-175 -56zM296 -180q53 0 84.5 24t31.5 60q0 32 -22 46.5t-70 16.5l-81 5q-51 4 -78 14q-12 -24 -12 -57q0 -49 40 -79t107 -30zM263 225q36 0 55.5 28.5t19.5 71.5q0 47 -20 73.5t-54 26.5q-35 0 -55 -28t-20 -69 q0 -46 20.5 -74.5t53.5 -28.5zM257 593q-32 0 -55.5 23t-23.5 56q0 32 24.5 55.5t56.5 23.5q33 0 55.5 -23t22.5 -56t-24 -56t-56 -23z" />
<glyph unicode="&#x122;" horiz-adv-x="684" d="M393 -375l-66 39q32 39 45 94q-28 5 -45 26t-17 51q0 38 24 60t59 22q36 0 58 -22.5t22 -68.5q0 -104 -80 -201zM439 -10q-183 0 -284 87.5t-101 269.5q0 160 99 263t265 103q32 0 64 -3.5t67.5 -9t50.5 -7.5l-14 -98q-15 2 -48.5 7.5t-66 9t-61.5 3.5q-50 0 -88.5 -17 t-61.5 -44t-38 -64t-20.5 -74t-5.5 -78q0 -120 67.5 -185.5t175.5 -65.5l48 5v117l-6 103l139 5v-302q-96 -25 -181 -25z" />
<glyph unicode="&#x123;" horiz-adv-x="562" d="M296 905l64 -53q-57 -53 -78 -117q28 -5 45 -26t17 -51q0 -38 -24 -60t-59 -22q-36 0 -58 22.5t-22 68.5q0 63 33.5 129.5t81.5 108.5zM275 -262q-105 -2 -172.5 35.5t-67.5 117.5q0 84 80 123q-21 23 -21 66q0 21 13 45.5t38 41.5q-42 19 -66.5 58.5t-24.5 92.5 q0 86 58.5 139t162.5 53q51 0 104 -20l159 12l-3 -72l-96 1v-4q34 -34 34 -104q0 -73 -57 -127.5t-164 -54.5q-23 0 -53 4q-5 -8 -5 -18q0 -31 49 -34l97 -6q171 -10 171 -161q0 -77 -61 -132t-175 -56zM296 -180q53 0 84.5 24t31.5 60q0 32 -22 46.5t-70 16.5l-81 5 q-51 4 -78 14q-12 -24 -12 -57q0 -49 40 -79t107 -30zM263 225q36 0 55.5 28.5t19.5 71.5q0 47 -20 73.5t-54 26.5q-35 0 -55 -28t-20 -69q0 -46 20.5 -74.5t53.5 -28.5z" />
<glyph unicode="&#x124;" horiz-adv-x="782" d="M277 763l-61 69l151 124h38l148 -118l-59 -73l-108 74zM96 0v598l-6 103l144 5v-297h314v189l-6 103l144 5v-613l5 -93h-143v315h-314v-222l5 -93h-143z" />
<glyph unicode="&#x125;" horiz-adv-x="606" d="M39 782l-61 69l151 124h38l148 -118l-59 -73l-108 74zM79 0v647l-6 103l139 5l-2 -305q73 60 164 60q75 0 116 -47t41 -128v-252l5 -83h-138v297q0 60 -18 86.5t-63 26.5q-22 0 -42 -5.5t-29.5 -10t-35.5 -18.5q2 -20 2 -95v-198l5 -83h-138z" />
<glyph unicode="&#x126;" horiz-adv-x="791" d="M30 475v94h71v29l-6 103l144 5v-137h314v29l-6 103l144 5v-137h69v-94h-69v-382l5 -93h-143v315h-314v-222l5 -93h-143v475h-71zM239 409h314v66h-314v-66z" />
<glyph unicode="&#x127;" horiz-adv-x="606" d="M22 569v94h57l-6 87l139 5l-1 -92h145v-94h-145l-1 -119q73 60 164 60q75 0 116 -47t41 -128v-252l5 -83h-138v297q0 60 -18 86.5t-63 26.5q-22 0 -42 -5.5t-29.5 -10t-35.5 -18.5q2 -20 2 -95v-198l5 -83h-138v569h-57z" />
<glyph unicode="&#x128;" horiz-adv-x="330" d="M96 0v598l-6 103l144 5v-613l5 -93h-143zM243 770q-36 0 -72.5 18t-50.5 18q-16 0 -28 -12t-16 -27l-82 20q8 48 41 83.5t83 35.5q38 0 73.5 -18t48.5 -18q15 0 25 12.5t13 26.5l80 -20q-9 -57 -41.5 -88t-73.5 -31z" />
<glyph unicode="&#x129;" horiz-adv-x="291" d="M79 0v397l-6 103l139 5v-412l5 -93h-138zM210 599q-36 0 -72.5 18t-50.5 18q-16 0 -28 -12t-16 -27l-82 20q8 48 41 83.5t83 35.5q38 0 73.5 -18t48.5 -18q15 0 25 12.5t13 26.5l80 -20q-9 -57 -41.5 -88t-73.5 -31z" />
<glyph unicode="&#x12a;" horiz-adv-x="330" d="M96 0v598l-6 103l144 5v-613l5 -93h-143zM27 776v104h274v-104h-274z" />
<glyph unicode="&#x12b;" horiz-adv-x="291" d="M79 0v397l-6 103l139 5v-412l5 -93h-138zM5 609v104h274v-104h-274z" />
<glyph unicode="&#x12c;" horiz-adv-x="330" d="M96 0v598l-6 103l144 5v-613l5 -93h-143zM168 776q-57 0 -100 33.5t-60 96.5l90 36l2 -4q1 -3 3.5 -7.5t6 -10t9.5 -11.5t12.5 -10.5t16 -7.5t20.5 -3q15 0 27.5 5.5t20 13.5t12.5 15.5t8 13.5l2 6l92 -37q-17 -61 -62.5 -95t-99.5 -34z" />
<glyph unicode="&#x12d;" horiz-adv-x="291" d="M79 0v397l-6 103l139 5v-412l5 -93h-138zM144 609q-57 0 -100 33.5t-60 96.5l90 36l2 -3q1 -4 3.5 -8.5t6 -10t9.5 -11.5t12.5 -10.5t16 -7.5t20.5 -3q15 0 27.5 5.5t20 13.5t12.5 15.5t8 13.5l2 6l92 -37q-17 -61 -62.5 -95t-99.5 -34z" />
<glyph unicode="&#x12e;" horiz-adv-x="330" d="M96 0v598l-6 103l144 5v-613l5 -93h1q-35 -16 -59 -41t-24 -49q0 -38 52 -38q14 0 29.5 3t24.5 5l9 3v-65q-36 -17 -82 -17q-62 0 -95.5 24.5t-33.5 65.5q0 38 29.5 66.5t66.5 42.5h-61z" />
<glyph unicode="&#x12f;" horiz-adv-x="291" d="M79 0v397l-6 103l139 5v-412l5 -93h-138zM139 596q-32 0 -53.5 20.5t-21.5 52.5q0 33 23 51.5t59 18.5q34 0 54 -18t20 -50q0 -35 -22 -55t-59 -20zM167 -199q-62 0 -95.5 24.5t-33.5 65.5q0 38 29.5 66.5t66.5 42.5h83q-35 -16 -59 -41t-24 -49q0 -38 52 -38 q14 0 29.5 3t24.5 5l9 3v-65q-36 -17 -82 -17z" />
<glyph unicode="&#x130;" horiz-adv-x="330" d="M96 0v598l-6 103l144 5v-613l5 -93h-143zM164 775q-32 0 -55.5 23t-23.5 56q0 32 24.5 55.5t56.5 23.5q33 0 55.5 -23t22.5 -56t-24 -56t-56 -23z" />
<glyph unicode="&#x131;" horiz-adv-x="291" d="M79 0v397l-6 103l139 5v-412l5 -93h-138z" />
<glyph unicode="&#x132;" horiz-adv-x="651" d="M96 0v598l-6 103l144 5v-613l5 -93h-143zM386 -209l-76 61q15 19 34.5 43.5t26.5 33.5t16 22t13 21.5t8 20.5q10 29 10 97v508l-6 103l144 5v-615q0 -69 -18 -114q-10 -26 -31 -54t-40.5 -49t-80.5 -83z" />
<glyph unicode="&#x133;" horiz-adv-x="574" d="M79 0v397l-6 103l139 5v-412l5 -93h-138zM139 596q-32 0 -53.5 20.5t-21.5 52.5q0 33 23 51.5t59 18.5q34 0 54 -18t20 -50q0 -35 -22 -55t-59 -20zM333 -257l-63 50q49 63 76 121q16 31 16 112v371l-6 103l139 5v-479q0 -76 -19 -111q-30 -58 -143 -172zM426 596 q-32 0 -53.5 20.5t-21.5 52.5q0 33 23 51.5t59 18.5q34 0 54 -18t20 -50q0 -35 -22 -55t-59 -20z" />
<glyph unicode="&#x134;" horiz-adv-x="329" d="M54 764l-61 69l151 124h38l148 -118l-59 -73l-108 74zM64 -209l-76 61q15 19 34.5 43.5t26.5 33.5t16 22t13 21.5t8 20.5q10 29 10 97v508l-6 103l144 5v-615q0 -69 -18 -114q-10 -26 -31 -54t-40.5 -49t-80.5 -83z" />
<glyph unicode="&#x135;" horiz-adv-x="291" d="M50 -257l-63 50q49 63 76 121q16 31 16 112v371l-6 103l139 5v-479q0 -76 -19 -111q-30 -58 -143 -172zM42 580l-61 69l151 124h38l148 -118l-59 -73l-108 74z" />
<glyph unicode="&#x136;" horiz-adv-x="652" d="M348 -376l-66 39q32 39 45 94q-28 5 -45 26t-17 51q0 38 24 60t59 22q36 0 58 -22.5t22 -68.5q0 -104 -80 -201zM495 -5l-215 317h-46v-219l5 -93h-143v598l-6 103l144 5v-301h58q17 23 32.5 44.5t27 38t24 36.5t19.5 31t17.5 29.5t14.5 25t13.5 25t11.5 21.5t11.5 23 t10.5 21h133q-88 -157 -218 -321l208 -309l51 -70z" />
<glyph unicode="&#x137;" horiz-adv-x="551" d="M281 -370l-66 39q32 39 45 94q-28 5 -45 26t-17 51q0 38 24 60t59 22q36 0 58 -22.5t22 -68.5q0 -104 -80 -201zM385 -5l-145 214h-28v-116l5 -93h-138v648l-6 103l139 5v-458h32l61 87q26 37 44.5 65.5t24.5 39.5l5 10h131q-36 -63 -107 -146l-67 -75l145 -203l60 -76z " />
<glyph unicode="&#x139;" horiz-adv-x="560" d="M181 750l-70 73l160 181l97 -100zM96 0v598l-6 102l144 5v-614l215 2q24 0 47.5 1.5t35.5 3.5l11 2l-5 -100h-442z" />
<glyph unicode="&#x13a;" horiz-adv-x="291" d="M145 796l-70 73l160 181l97 -100zM79 0v648l-6 103l139 5v-663l5 -93h-138z" />
<glyph unicode="&#x13b;" horiz-adv-x="559" d="M307 -376l-66 39q32 39 45 94q-28 5 -45 26t-17 51q0 38 24 60t59 22q36 0 58 -22.5t22 -68.5q0 -104 -80 -201zM96 0v598l-6 102l144 5v-614l215 2q24 0 47.5 1.5t35.5 3.5l11 2l-5 -100h-442z" />
<glyph unicode="&#x13c;" horiz-adv-x="291" d="M151 -376l-66 39q32 39 45 94q-28 5 -45 26t-17 51q0 38 24 60t59 22q36 0 58 -22.5t22 -68.5q0 -104 -80 -201zM79 0v648l-6 103l139 5v-663l5 -93h-138z" />
<glyph unicode="&#x13d;" horiz-adv-x="560" d="M421 403l-61 50q54 51 74 112q-26 5 -42.5 25t-16.5 48q0 36 23 57t56 21q34 0 55 -21.5t21 -65.5q0 -59 -31.5 -123t-77.5 -103zM96 0v598l-6 102l144 5v-614l215 2q24 0 47.5 1.5t35.5 3.5l11 2l-5 -100h-442z" />
<glyph unicode="&#x13e;" horiz-adv-x="374" d="M79 0v648l-6 103l139 5v-663l5 -93h-138zM315 435l-64 53q57 53 78 117q-28 5 -45 26t-17 51q0 38 24 60t59 22q36 0 58 -22.5t22 -68.5q0 -63 -33.5 -129.5t-81.5 -108.5z" />
<glyph unicode="&#x13f;" horiz-adv-x="620" d="M504 293q-32 0 -54.5 22t-22.5 56q0 38 24.5 59.5t60.5 21.5q35 0 55.5 -20t20.5 -55q0 -40 -23 -62t-61 -22zM96 0v598l-6 102l144 5v-614l215 2q24 0 47.5 1.5t35.5 3.5l11 2l-5 -100h-442z" />
<glyph unicode="&#x140;" horiz-adv-x="482" d="M376 293q-32 0 -54.5 22t-22.5 56q0 38 24.5 59.5t60.5 21.5q35 0 55.5 -20t20.5 -55q0 -40 -23 -62t-61 -22zM79 0v648l-6 103l139 5v-663l5 -93h-138z" />
<glyph unicode="&#x141;" horiz-adv-x="572" d="M44 190l-39 73l103 58v277l-6 102l144 5v-306l68 39l39 -72l-107 -61v-214l215 2q24 0 47.5 1.5t35.5 3.5l11 2l-5 -100h-442v226z" />
<glyph unicode="&#x142;" horiz-adv-x="406" d="M54 177l-42 76l124 70v325l-6 103l139 5v-358l84 48l42 -75l-126 -72v-206l5 -93h-138v223z" />
<glyph unicode="&#x143;" horiz-adv-x="755" d="M388 752l-70 73l160 181l97 -100zM565 -10l-335 459l-33 61h-3q7 -45 7 -71v-346l5 -93h-110v598l-6 103l101 5l334 -459q10 -14 18 -28t11 -21l3 -6l3 1q-5 28 -5 68v337l-6 103l111 5v-706z" />
<glyph unicode="&#x144;" horiz-adv-x="605" d="M321 572l-70 73l160 181l97 -100zM79 0v397l-6 103l132 5l3 -56q39 31 76.5 46t94.5 15q74 0 113 -48.5t39 -137.5v-241l5 -83h-138v309q0 101 -78 101q-46 0 -110 -34q2 -27 2 -75v-218l5 -83h-138z" />
<glyph unicode="&#x145;" horiz-adv-x="755" d="M373 -376l-66 39q32 39 45 94q-28 5 -45 26t-17 51q0 38 24 60t59 22q36 0 58 -22.5t22 -68.5q0 -104 -80 -201zM565 -10l-335 459l-33 61h-3q7 -45 7 -71v-346l5 -93h-110v598l-6 103l101 5l334 -459q10 -14 18 -28t11 -21l3 -6l3 1q-5 28 -5 68v337l-6 103l111 5v-706z " />
<glyph unicode="&#x146;" horiz-adv-x="606" d="M304 -376l-66 39q32 39 45 94q-28 5 -45 26t-17 51q0 38 24 60t59 22q36 0 58 -22.5t22 -68.5q0 -104 -80 -201zM79 0v397l-6 103l132 5l3 -56q39 31 76.5 46t94.5 15q74 0 113 -48.5t39 -137.5v-241l5 -83h-138v309q0 101 -78 101q-46 0 -110 -34q2 -27 2 -75v-218 l5 -83h-138z" />
<glyph unicode="&#x147;" horiz-adv-x="755" d="M485 955l61 -69l-151 -124h-38l-148 118l59 73l108 -74zM565 -10l-335 459l-33 61h-3q7 -45 7 -71v-346l5 -93h-110v598l-6 103l101 5l334 -459q10 -14 18 -28t11 -21l3 -6l3 1q-5 28 -5 68v337l-6 103l111 5v-706z" />
<glyph unicode="&#x148;" horiz-adv-x="605" d="M411 777l61 -69l-151 -124h-38l-148 118l59 73l108 -74zM79 0v397l-6 103l132 5l3 -56q39 31 76.5 46t94.5 15q74 0 113 -48.5t39 -137.5v-241l5 -83h-138v309q0 101 -78 101q-46 0 -110 -34q2 -27 2 -75v-218l5 -83h-138z" />
<glyph unicode="&#x14a;" horiz-adv-x="755" d="M490 -209l-87 66q31 39 54.5 69.5t32.5 42t13 15.5q12 34 17 70l-290 395l-33 61h-3q7 -45 7 -71v-346l5 -93h-110v598l-6 103l101 5l334 -459q10 -14 18 -28t11 -21l3 -6l3 1q-5 28 -5 68v337l-6 103l111 5v-615q0 -69 -18 -114q-14 -33 -44.5 -70t-107.5 -116z" />
<glyph unicode="&#x14b;" horiz-adv-x="604" d="M398 92v217q0 101 -78 101q-46 0 -110 -34q2 -27 2 -75v-218l5 -83h-138v397l-6 103l132 5l3 -56q39 31 76.5 46t94.5 15q74 0 113 -48.5t39 -137.5v-203q0 -109 -32 -174.5t-113 -143.5l-67 47q47 67 63 111t16 131z" />
<glyph unicode="&#x14c;" horiz-adv-x="759" d="M231 776v104h274v-104h-274zM388 80q87 0 129.5 68.5t42.5 189.5q0 58 -9 106t-30 89t-59 64t-91 23q-87 0 -129.5 -68.5t-42.5 -189.5q0 -58 9 -106t30 -89t59 -64t91 -23zM368 -10q-98 0 -170.5 50.5t-106.5 127.5t-34 169q0 171 85.5 272t248.5 101q98 0 170.5 -50.5 t106.5 -127.5t34 -169q0 -171 -85.5 -272t-248.5 -101z" />
<glyph unicode="&#x14d;" horiz-adv-x="584" d="M151 596v104h274v-104h-274zM294 80q51 0 78 40.5t27 116.5q0 91 -24.5 137.5t-84.5 46.5q-52 0 -78.5 -42.5t-26.5 -120.5q0 -82 27 -130t82 -48zM279 -10q-107 0 -168 66t-61 177q0 129 68 203t187 74q107 0 168 -66t61 -177q0 -128 -68.5 -202.5t-186.5 -74.5z" />
<glyph unicode="&#x14e;" horiz-adv-x="759" d="M388 80q87 0 129.5 68.5t42.5 189.5q0 58 -9 106t-30 89t-59 64t-91 23q-87 0 -129.5 -68.5t-42.5 -189.5q0 -58 9 -106t30 -89t59 -64t91 -23zM368 -10q-98 0 -170.5 50.5t-106.5 127.5t-34 169q0 171 85.5 272t248.5 101q98 0 170.5 -50.5t106.5 -127.5t34 -169 q0 -171 -85.5 -272t-248.5 -101zM366 778q-57 0 -100 33.5t-60 96.5l90 36l2 -4q1 -3 3.5 -7.5t6 -10t9.5 -11.5t12.5 -10.5t16 -7.5t20.5 -3q15 0 27.5 5.5t20 13.5t12.5 15.5t8 13.5l2 6l92 -37q-17 -61 -62.5 -95t-99.5 -34z" />
<glyph unicode="&#x14f;" horiz-adv-x="584" d="M294 80q51 0 78 40.5t27 116.5q0 91 -24.5 137.5t-84.5 46.5q-52 0 -78.5 -42.5t-26.5 -120.5q0 -82 27 -130t82 -48zM279 -10q-107 0 -168 66t-61 177q0 129 68 203t187 74q107 0 168 -66t61 -177q0 -128 -68.5 -202.5t-186.5 -74.5zM289 595q-57 0 -100 33.5t-60 96.5 l90 36l1 -3q2 -4 4.5 -8.5t6 -10t9.5 -11.5t12.5 -10.5t16 -7.5t20.5 -3q15 0 27.5 5.5t20 13.5t12.5 15.5t7 13.5l3 6l92 -37q-17 -61 -62.5 -95t-99.5 -34z" />
<glyph unicode="&#x150;" horiz-adv-x="759" d="M295 750l-66 70l160 181l93 -97zM484 750l-66 70l160 181l93 -97zM388 80q87 0 129.5 68.5t42.5 189.5q0 58 -9 106t-30 89t-59 64t-91 23q-87 0 -129.5 -68.5t-42.5 -189.5q0 -58 9 -106t30 -89t59 -64t91 -23zM368 -10q-98 0 -170.5 50.5t-106.5 127.5t-34 169 q0 171 85.5 272t248.5 101q98 0 170.5 -50.5t106.5 -127.5t34 -169q0 -171 -85.5 -272t-248.5 -101z" />
<glyph unicode="&#x151;" horiz-adv-x="584" d="M202 580l-66 70l160 181l93 -97zM391 580l-66 70l160 181l93 -97zM294 80q51 0 78 40.5t27 116.5q0 91 -24.5 137.5t-84.5 46.5q-52 0 -78.5 -42.5t-26.5 -120.5q0 -82 27 -130t82 -48zM279 -10q-107 0 -168 66t-61 177q0 129 68 203t187 74q107 0 168 -66t61 -177 q0 -128 -68.5 -202.5t-186.5 -74.5z" />
<glyph unicode="&#x152;" horiz-adv-x="1004" d="M388 -10q-84 0 -148.5 29t-103.5 78.5t-58.5 110t-19.5 129.5q0 173 82 273t248 100q49 0 124 -10h437l-5 -99l-304 9v-210l259 5l-5 -106l-254 8v-216l309 9l-5 -100h-428q-50 -10 -128 -10zM406 82q53 0 96 9v513q-48 16 -94 16q-105 0 -156.5 -69t-51.5 -189 q0 -126 57 -203t149 -77z" />
<glyph unicode="&#x153;" horiz-adv-x="941" d="M269 -10q-97 0 -158 68t-61 182q0 123 67 196.5t178 73.5q143 0 195 -116q53 116 190 116q119 0 172 -77.5t39 -195.5h-327q3 -67 46 -107t112 -40q37 0 74 7t56 13l19 7v-93q-60 -34 -179 -34q-164 0 -212 128q-46 -128 -211 -128zM300 80q49 0 79.5 43.5t30.5 100.5 q-1 11 -1 22l1 18q0 66 -29 111.5t-83 45.5t-83.5 -45t-29.5 -128q0 -74 27 -121t88 -47zM571 321l185 4q-1 51 -21 74t-59 23q-85 0 -105 -101z" />
<glyph unicode="&#x154;" horiz-adv-x="647" d="M312 750l-70 73l160 181l97 -100zM463 -5l-146 252h-83v-154l5 -93h-143v598l-6 102h216q129 0 201 -59.5t72 -162.5q0 -64 -41 -113t-103 -70l130 -219l52 -76zM234 338h38q84 0 125.5 39t41.5 106q0 59 -38 92t-109 33h-58v-270z" />
<glyph unicode="&#x155;" horiz-adv-x="444" d="M259 572l-70 73l160 181l97 -100zM79 0v397l-6 103l134 5l2 -76q30 42 54 61.5t52 19.5q20 0 37.5 -6t41 -18t42.5 -18l-49 -107q-15 6 -39 17t-39 16.5t-28 5.5q-28 0 -71 -39q2 -24 2 -71v-207l5 -83h-138z" />
<glyph unicode="&#x156;" horiz-adv-x="647" d="M334 -376l-66 39q32 39 45 94q-28 5 -45 26t-17 51q0 38 24 60t59 22q36 0 58 -22.5t22 -68.5q0 -104 -80 -201zM463 -5l-146 252h-83v-154l5 -93h-143v598l-6 102h216q129 0 201 -59.5t72 -162.5q0 -64 -41 -113t-103 -70l130 -219l52 -76zM234 338h38q84 0 125.5 39 t41.5 106q0 59 -38 92t-109 33h-58v-270z" />
<glyph unicode="&#x157;" horiz-adv-x="445" d="M159 -376l-66 39q32 39 45 94q-28 5 -45 26t-17 51q0 38 24 60t59 22q36 0 58 -22.5t22 -68.5q0 -104 -80 -201zM79 0v397l-6 103l134 5l2 -76q30 42 54 61.5t52 19.5q20 0 37.5 -6t41 -18t42.5 -18l-49 -107q-15 6 -39 17t-39 16.5t-28 5.5q-28 0 -71 -39q2 -24 2 -71 v-207l5 -83h-138z" />
<glyph unicode="&#x158;" horiz-adv-x="647" d="M412 956l61 -69l-151 -124h-38l-148 118l59 73l108 -74zM463 -5l-146 252h-83v-154l5 -93h-143v598l-6 102h216q129 0 201 -59.5t72 -162.5q0 -64 -41 -113t-103 -70l130 -219l52 -76zM234 338h38q84 0 125.5 39t41.5 106q0 59 -38 92t-109 33h-58v-270z" />
<glyph unicode="&#x159;" horiz-adv-x="444" d="M359 781l61 -69l-151 -124h-38l-148 118l59 73l108 -74zM79 0v397l-6 103l134 5l2 -76q30 42 54 61.5t52 19.5q20 0 37.5 -6t41 -18t42.5 -18l-49 -107q-15 6 -39 17t-39 16.5t-28 5.5q-28 0 -71 -39q2 -24 2 -71v-207l5 -83h-138z" />
<glyph unicode="&#x15a;" horiz-adv-x="549" d="M273 750l-70 73l160 181l97 -100zM231 -10q-49 0 -91.5 6t-59.5 12l-18 7v97q73 -23 169 -23q67 0 98.5 27t31.5 64q0 42 -22 70t-96 54q-92 33 -137 81.5t-45 125.5q0 92 62 147t163 55q49 0 113 -9.5t79 -10.5l-16 -100q-29 2 -79.5 11t-76.5 9q-108 0 -108 -89 q0 -37 24.5 -64.5t87.5 -51.5q103 -40 145.5 -88t42.5 -130q0 -94 -70 -147t-197 -53z" />
<glyph unicode="&#x15b;" horiz-adv-x="455" d="M230 573l-70 73l160 181l97 -100zM217 -10q-35 0 -88.5 9.5t-73.5 11.5l10 102q19 -2 73 -13t86 -11q75 0 75 40q0 19 -22 34t-74 35q-83 31 -117 64.5t-34 99.5q0 70 50 109t123 39q39 0 91.5 -9.5t73.5 -10.5l-10 -101q-29 2 -79 12t-81 10q-58 0 -58 -36q0 -19 17 -35 t73 -35q80 -28 118.5 -65.5t38.5 -98.5q0 -76 -51.5 -113.5t-140.5 -37.5z" />
<glyph unicode="&#x15c;" horiz-adv-x="549" d="M179 764l-61 69l151 124h38l148 -118l-59 -73l-108 74zM231 -10q-49 0 -91.5 6t-59.5 12l-18 7v97q73 -23 169 -23q67 0 98.5 27t31.5 64q0 42 -22 70t-96 54q-92 33 -137 81.5t-45 125.5q0 92 62 147t163 55q49 0 113 -9.5t79 -10.5l-16 -100q-29 2 -79.5 11t-76.5 9 q-108 0 -108 -89q0 -37 24.5 -64.5t87.5 -51.5q103 -40 145.5 -88t42.5 -130q0 -94 -70 -147t-197 -53z" />
<glyph unicode="&#x15d;" horiz-adv-x="455" d="M126 581l-61 69l151 124h38l148 -118l-59 -73l-108 74zM217 -10q-35 0 -88.5 9.5t-73.5 11.5l10 102q19 -2 73 -13t86 -11q75 0 75 40q0 19 -22 34t-74 35q-83 31 -117 64.5t-34 99.5q0 70 50 109t123 39q39 0 91.5 -9.5t73.5 -10.5l-10 -101q-29 2 -79 12t-81 10 q-58 0 -58 -36q0 -19 17 -35t73 -35q80 -28 118.5 -65.5t38.5 -98.5q0 -76 -51.5 -113.5t-140.5 -37.5z" />
<glyph unicode="&#x15e;" horiz-adv-x="550" d="M250 -218q-64 0 -116 20l24 61q39 -10 76 -10q33 0 33 22q0 13 -16.5 17t-41.5 -8l-13 15l32 91q-48 0 -89 6.5t-59 12.5l-17 6v97q73 -23 169 -23q67 0 98.5 27t31.5 64q0 42 -22 70t-96 54q-92 33 -137 81.5t-45 125.5q0 92 62 147t163 55q49 0 113 -9.5t79 -10.5 l-16 -100q-29 2 -79.5 11t-76.5 9q-108 0 -108 -89q0 -37 24.5 -64.5t87.5 -51.5q103 -40 145.5 -88t42.5 -130q0 -83 -54 -134t-154 -62v-44q41 -4 64.5 -23t23.5 -53q0 -41 -35.5 -66.5t-93.5 -25.5z" />
<glyph unicode="&#x15f;" horiz-adv-x="457" d="M212 -223q-64 0 -116 20l24 61q39 -10 76 -10q33 0 33 22q0 13 -16.5 17t-41.5 -8l-13 15l35 97q-27 2 -72 10t-65 10l10 102q19 -2 73 -13t86 -11q75 0 75 40q0 19 -22 34t-74 35q-83 31 -117 64.5t-34 99.5q0 70 50 109t123 39q39 0 91.5 -9.5t73.5 -10.5l-10 -101 q-29 2 -79 12t-81 10q-58 0 -58 -36q0 -19 17 -35t73 -35q80 -28 118.5 -65.5t38.5 -98.5q0 -68 -42 -105.5t-115 -43.5v-47q41 -4 64.5 -23t23.5 -53q0 -41 -35.5 -66.5t-93.5 -25.5z" />
<glyph unicode="&#x160;" horiz-adv-x="549" d="M398 956l61 -69l-151 -124h-38l-148 118l59 73l108 -74zM231 -10q-49 0 -91.5 6t-59.5 12l-18 7v97q73 -23 169 -23q67 0 98.5 27t31.5 64q0 42 -22 70t-96 54q-92 33 -137 81.5t-45 125.5q0 92 62 147t163 55q49 0 113 -9.5t79 -10.5l-16 -100q-29 2 -79.5 11t-76.5 9 q-108 0 -108 -89q0 -37 24.5 -64.5t87.5 -51.5q103 -40 145.5 -88t42.5 -130q0 -94 -70 -147t-197 -53z" />
<glyph unicode="&#x161;" horiz-adv-x="455" d="M331 776l61 -69l-151 -124h-38l-148 118l59 73l108 -74zM217 -10q-35 0 -88.5 9.5t-73.5 11.5l10 102q19 -2 73 -13t86 -11q75 0 75 40q0 19 -22 34t-74 35q-83 31 -117 64.5t-34 99.5q0 70 50 109t123 39q39 0 91.5 -9.5t73.5 -10.5l-10 -101q-29 2 -79 12t-81 10 q-58 0 -58 -36q0 -19 17 -35t73 -35q80 -28 118.5 -65.5t38.5 -98.5q0 -76 -51.5 -113.5t-140.5 -37.5z" />
<glyph unicode="&#x162;" horiz-adv-x="588" d="M297 -375l-66 39q32 39 45 94q-28 5 -45 26t-17 51q0 38 24 60t59 22q36 0 58 -22.5t22 -68.5q0 -104 -80 -201zM226 0v605l-117 2q-18 0 -40 -1.5t-35 -3.5l-12 -2l5 100h540l-4 -99q-32 3 -80 4h-119v-512l5 -93h-143z" />
<glyph unicode="&#x163;" horiz-adv-x="430" d="M256 -374l-66 39q32 39 45 94q-28 5 -45 26t-17 51q0 38 24 60t59 22q36 0 58 -22.5t22 -68.5q0 -104 -80 -201zM290 -10q-98 0 -146 39.5t-48 125.5v176l5 81l-60 1v76l57 11l71 116h59v-116h165l-3 -92l-162 2v-231q0 -95 81 -95q19 0 40 4t33 8l11 4v-89 q-46 -21 -103 -21z" />
<glyph unicode="&#x164;" horiz-adv-x="589" d="M406 956l61 -69l-151 -124h-38l-148 118l59 73l108 -74zM227 0v605l-117 2q-18 0 -40 -1.5t-34 -3.5l-13 -2l5 100h540l-4 -99q-32 3 -80 4h-119v-512l5 -93h-143z" />
<glyph unicode="&#x165;" horiz-adv-x="432" d="M361 522l-45 33q17 16 29 37.5t15 34.5l4 13q-31 1 -51 21t-20 48q0 38 20.5 57t53.5 19q32 0 53 -19.5t21 -58.5q0 -108 -80 -185zM290 -10q-98 0 -146 39.5t-48 125.5v176l5 81l-60 1v76l57 11l71 116h59v-116h165l-3 -92l-162 2v-231q0 -95 81 -95q19 0 40 4t33 8 l11 4v-89q-46 -21 -103 -21z" />
<glyph unicode="&#x166;" horiz-adv-x="609" d="M115 305v94h120v206l-117 2q-18 0 -40 -1.5t-34 -3.5l-13 -2l5 100h540l-4 -99q-32 3 -80 4h-119v-206h140v-94h-140v-212l5 -93h-143v305h-120z" />
<glyph unicode="&#x167;" horiz-adv-x="434" d="M49 247v83h48v1l5 81l-60 1v76l57 11l71 116h59v-116h165l-3 -92l-162 2v-80h138v-83h-138v-68q0 -95 81 -95q19 0 40 4t32 8l12 4v-89q-46 -21 -103 -21q-98 0 -146 39.5t-48 125.5v92h-48z" />
<glyph unicode="&#x168;" horiz-adv-x="753" d="M374 -14q-130 0 -207.5 76.5t-77.5 217.5v318l-6 103l144 5v-425q0 -104 40 -152t122 -48q75 0 121 50t46 150v317l-6 103l114 5v-425q0 -140 -74 -217.5t-216 -77.5zM461 762q-36 0 -72.5 18t-50.5 18q-16 0 -28 -12t-16 -27l-82 20q8 48 41 83.5t83 35.5q38 0 73.5 -18 t48.5 -18q15 0 25 12.5t13 26.5l80 -20q-9 -57 -41.5 -88t-73.5 -31z" />
<glyph unicode="&#x169;" horiz-adv-x="606" d="M527 500v-397l6 -103l-132 -5l-3 56q-39 -31 -76.5 -46t-94.5 -15q-74 0 -113 48.5t-39 137.5v241l-5 83h138v-309q0 -101 78 -101q46 0 110 34q-2 27 -2 75v218l-5 83h138zM377 610q-36 0 -72.5 18t-50.5 18q-16 0 -28 -12t-16 -27l-82 20q8 48 41 83.5t83 35.5 q38 0 73.5 -18t48.5 -18q15 0 25 12.5t13 26.5l80 -20q-9 -57 -41.5 -88t-73.5 -31z" />
<glyph unicode="&#x16a;" horiz-adv-x="753" d="M374 -14q-130 0 -207.5 76.5t-77.5 217.5v318l-6 103l144 5v-425q0 -104 40 -152t122 -48q75 0 121 50t46 150v317l-6 103l114 5v-425q0 -140 -74 -217.5t-216 -77.5zM248 776v104h274v-104h-274z" />
<glyph unicode="&#x16b;" horiz-adv-x="606" d="M527 500v-397l6 -103l-132 -5l-3 56q-39 -31 -76.5 -46t-94.5 -15q-74 0 -113 48.5t-39 137.5v241l-5 83h138v-309q0 -101 78 -101q46 0 110 34q-2 27 -2 75v218l-5 83h138zM172 609v104h274v-104h-274z" />
<glyph unicode="&#x16c;" horiz-adv-x="753" d="M374 -14q-130 0 -207.5 76.5t-77.5 217.5v318l-6 103l144 5v-425q0 -104 40 -152t122 -48q75 0 121 50t46 150v317l-6 103l114 5v-425q0 -140 -74 -217.5t-216 -77.5zM380 767q-57 0 -100 33.5t-60 96.5l90 36l2 -3q1 -4 3.5 -8.5t6 -10t9.5 -11.5t12.5 -10.5t16 -7.5 t20.5 -3q15 0 27.5 5.5t20 13.5t12.5 15.5t8 13.5l2 6l92 -37q-17 -61 -62.5 -95t-99.5 -34z" />
<glyph unicode="&#x16d;" horiz-adv-x="606" d="M527 500v-397l6 -103l-132 -5l-3 56q-39 -31 -76.5 -46t-94.5 -15q-74 0 -113 48.5t-39 137.5v241l-5 83h138v-309q0 -101 78 -101q46 0 110 34q-2 27 -2 75v218l-5 83h138zM308 592q-57 0 -100 33.5t-60 96.5l90 36l2 -4q1 -3 3.5 -7.5t6 -10t9.5 -11.5t12.5 -10.5 t16 -7.5t20.5 -3q15 0 27.5 5.5t20 13.5t12.5 15.5t8 13.5l2 6l92 -37q-17 -61 -62.5 -95t-99.5 -34z" />
<glyph unicode="&#x16e;" horiz-adv-x="753" d="M385 821q22 0 22 38q0 36 -22 36q-11 0 -18 -10t-7 -26t7.5 -27t17.5 -11zM385 748q-54 0 -89.5 30t-35.5 81t35.5 81t89.5 30t89 -30t35 -81t-35 -81t-89 -30zM374 -14q-130 0 -207.5 76.5t-77.5 217.5v318l-6 103l144 5v-425q0 -104 40 -152t122 -48q75 0 121 50 t46 150v317l-6 103l114 5v-425q0 -140 -74 -217.5t-216 -77.5z" />
<glyph unicode="&#x16f;" horiz-adv-x="606" d="M300 656q22 0 22 38q0 36 -22 36q-11 0 -18 -10t-7 -26t7.5 -27t17.5 -11zM300 583q-54 0 -89.5 30t-35.5 81t35.5 81t89.5 30t89 -30t35 -81t-35 -81t-89 -30zM527 500v-397l6 -103l-132 -5l-3 56q-39 -31 -76.5 -46t-94.5 -15q-74 0 -113 48.5t-39 137.5v241l-5 83h138 v-309q0 -101 78 -101q46 0 110 34q-2 27 -2 75v218l-5 83h138z" />
<glyph unicode="&#x170;" horiz-adv-x="753" d="M374 -14q-130 0 -207.5 76.5t-77.5 217.5v318l-6 103l144 5v-425q0 -104 40 -152t122 -48q75 0 121 50t46 150v317l-6 103l114 5v-425q0 -140 -74 -217.5t-216 -77.5zM306 749l-66 70l160 181l93 -97zM495 749l-66 70l160 181l93 -97z" />
<glyph unicode="&#x171;" horiz-adv-x="606" d="M527 500v-397l6 -103l-132 -5l-3 56q-39 -31 -76.5 -46t-94.5 -15q-74 0 -113 48.5t-39 137.5v241l-5 83h138v-309q0 -101 78 -101q46 0 110 34q-2 27 -2 75v218l-5 83h138zM217 577l-66 70l160 181l93 -97zM406 577l-66 70l160 181l93 -97z" />
<glyph unicode="&#x172;" horiz-adv-x="752" d="M374 -14q-130 0 -207.5 76.5t-77.5 217.5v318l-6 103l144 5v-425q0 -104 40 -152t122 -48q75 0 121 50t46 150v317l-6 103l114 5v-425q0 -111 -46.5 -183t-136.5 -98h6q-35 -16 -59 -41t-24 -49q0 -38 52 -38q14 0 29.5 3t24.5 5l9 3v-65q-36 -17 -82 -17 q-62 0 -95.5 24.5t-33.5 65.5q0 58 67 95h-1z" />
<glyph unicode="&#x173;" horiz-adv-x="606" d="M527 500v-397l6 -103h-4q-34 -16 -57 -40.5t-23 -48.5q0 -38 52 -38q14 0 29.5 2.5t24.5 5.5l9 3v-65q-36 -17 -82 -17q-62 0 -95.5 24.5t-33.5 65.5q0 35 25.5 62t59.5 43l-37 -2l-3 56q-39 -31 -76.5 -46t-94.5 -15q-74 0 -113 48.5t-39 137.5v241l-5 83h138v-309 q0 -101 78 -101q46 0 110 34q-2 27 -2 75v218l-5 83h138z" />
<glyph unicode="&#x174;" horiz-adv-x="971" d="M378 762l-61 69l151 124h38l148 -118l-59 -73l-108 74zM228 -4l-171 583l-39 118l143 6l123 -435q8 -28 14 -56.5t8 -43.5l3 -15h4q5 53 21 118l104 429l119 5l115 -433q8 -29 13.5 -59.5t7.5 -46.5l2 -17h4q6 57 24 119l74 258q26 90 35 174h111q-15 -108 -53 -221 l-152 -477l-120 -6l-105 398l-24 121h-5q-9 -71 -19 -115l-95 -398z" />
<glyph unicode="&#x175;" horiz-adv-x="794" d="M293 585l-61 69l151 124h38l148 -118l-59 -73l-108 74zM177 -5l-123 402l-35 103l132 5l84 -282q7 -24 12 -48t7 -37l1 -12h4q4 41 21 103l46 170q8 32 13 57t6 34l1 10l106 7l86 -276q8 -25 15 -52t9 -41l3 -14h4q7 49 24 109l33 113q23 90 28 154h104q-3 -76 -45 -202 l-102 -298l-121 -5l-77 257q-7 21 -12.5 44t-7.5 35l-2 12h-4q-7 -45 -21 -101l-61 -242z" />
<glyph unicode="&#x176;" horiz-adv-x="602" d="M234 0v284l-186 324q-11 20 -25.5 43t-23.5 36l-9 13l158 5l178 -324l99 200q16 33 28.5 63t16.5 43l4 13h117q-36 -80 -76 -158l-143 -259v-190l5 -93h-143zM205 762l-61 69l151 124h38l148 -118l-59 -73l-108 74z" />
<glyph unicode="&#x177;" horiz-adv-x="524" d="M235 -254l-129 6q29 80 87 185l16 29l-155 431l-42 103l147 5l96 -293q8 -26 14.5 -51t8.5 -37l3 -11h4q9 47 26 101l46 143q31 96 36 143h108q-7 -86 -56 -202l-126 -307q-23 -55 -44 -116t-31 -95zM171 584l-61 69l151 124h38l148 -118l-59 -73l-108 74z" />
<glyph unicode="&#x178;" horiz-adv-x="602" d="M234 0v284l-186 324q-11 20 -25.5 43t-23.5 36l-9 13l158 5l178 -324l99 200q16 33 28.5 63t16.5 43l4 13h117q-36 -80 -76 -158l-143 -259v-190l5 -93h-143zM207 770q-34 0 -55.5 22t-21.5 59q0 39 23.5 60.5t60.5 21.5q36 0 56 -20.5t20 -57.5q0 -41 -22.5 -63 t-60.5 -22zM415 770q-34 0 -55.5 22t-21.5 59q0 39 23.5 60.5t60.5 21.5q36 0 56 -20.5t20 -57.5q0 -41 -22.5 -63t-60.5 -22z" />
<glyph unicode="&#x179;" horiz-adv-x="578" d="M314 751l-70 73l160 181l97 -100zM42 0v50l322 566l-218 -9l-90 -6l5 99h470v-50l-327 -572l204 9l119 9l-5 -96h-480z" />
<glyph unicode="&#x17a;" horiz-adv-x="485" d="M215 573l-70 73l160 181l97 -100zM45 0v40l227 370l-114 -5l-106 -8l7 103h377v-40l-228 -372l129 3l103 8l-8 -99h-387z" />
<glyph unicode="&#x17b;" horiz-adv-x="578" d="M42 0v50l322 566l-218 -9l-90 -6l5 99h470v-50l-327 -572l204 9l119 9l-5 -96h-480zM297 775q-32 0 -55.5 23t-23.5 56q0 32 24.5 55.5t56.5 23.5q33 0 55.5 -23t22.5 -56t-24 -56t-56 -23z" />
<glyph unicode="&#x17c;" horiz-adv-x="485" d="M45 0v40l227 370l-114 -5l-106 -8l7 103h377v-40l-228 -372l129 3l103 8l-8 -99h-387zM248 588q-32 0 -55.5 23t-23.5 56q0 32 24.5 55.5t56.5 23.5q33 0 55.5 -23t22.5 -56t-24 -56t-56 -23z" />
<glyph unicode="&#x17d;" horiz-adv-x="578" d="M408 965l61 -69l-151 -124h-38l-148 118l59 73l108 -74zM42 0v50l322 566l-218 -9l-90 -6l5 99h470v-50l-327 -572l204 9l119 9l-5 -96h-480z" />
<glyph unicode="&#x17e;" horiz-adv-x="485" d="M356 777l61 -69l-151 -124h-38l-148 118l59 73l108 -74zM45 0v40l227 370l-114 -5l-106 -8l7 103h377v-40l-228 -372l129 3l103 8l-8 -99h-387z" />
<glyph unicode="&#x192;" horiz-adv-x="404" d="M32 -249q-30 0 -75 9t-67 11l8 102q27 -2 70.5 -12.5t66.5 -10.5q38 0 51.5 24.5t13.5 85.5v451l-56 1v88h57v47q0 213 201 213q30 0 75 -9t67 -11l-12 -102q-27 2 -70.5 12.5t-66.5 10.5q-62 0 -62 -70v-91h151l-5 -93l-146 2v-445q0 -106 -46 -159.5t-155 -53.5z" />
<glyph unicode="&#x1fa;" horiz-adv-x="636" d="M491 -4l-56 153h-267q-29 -91 -38 -149h-107q9 64 49 177l188 520l109 6l216 -583q12 -33 24 -62.5t19 -42.5l6 -13zM311 760q-63 0 -104.5 31t-41.5 84q0 48 35.5 78.5t91.5 35.5l-47 50l147 167l89 -92l-151 -125q56 -5 91 -35.5t35 -78.5q0 -53 -41 -84t-104 -31z M280 480l-81 -240h203l-87 240l-16 61h-4q-5 -31 -15 -61zM311 836q26 0 26 39q0 37 -26 37q-12 0 -20.5 -10.5t-8.5 -26.5t8.5 -27.5t20.5 -11.5z" />
<glyph unicode="&#x1fb;" horiz-adv-x="546" d="M191 -10q-74 0 -112 38t-38 94q0 134 171 162q55 9 116 9v31q0 46 -27.5 70t-76.5 24q-37 0 -73 -5.5t-53 -10.5l-18 -6v87q67 27 172 27q113 0 162 -49t47 -131q0 -21 -1 -72t-2 -93.5t-1 -64.5q0 -18 11 -18q8 0 17.5 5t14.5 10l6 5v-83q-32 -29 -78 -29q-63 0 -79 62 q-68 -62 -158 -62zM232 84q46 0 92 36q0 23 2 107q-48 -2 -85 -13q-66 -19 -66 -78q0 -24 14.5 -38t42.5 -14zM256 826l-68 70l155 175l93 -96zM257 652q11 0 17.5 12t6.5 29q0 39 -24 39q-11 0 -19 -11t-8 -28t8 -29t19 -12zM257 573q-58 0 -97 33t-39 87q0 55 38.5 88 t97.5 33q58 0 96.5 -33t38.5 -88q0 -54 -38.5 -87t-96.5 -33z" />
<glyph unicode="&#x1fc;" horiz-adv-x="925" d="M-5 0q19 61 85 177l302 523h488l-5 -99l-304 9v-210l259 5l-5 -106l-254 8v-216l309 9l-5 -100h-442v159h-241l-4 -8q-45 -82 -68 -151h-115zM423 250v356h-3q-22 -54 -48 -101l-140 -255h191zM619 750l-70 73l160 181l97 -100z" />
<glyph unicode="&#x1fd;" horiz-adv-x="836" d="M438 571l-70 73l160 181l97 -100zM213 -10q-86 0 -129 39.5t-43 102.5q0 60 46.5 101t124.5 53q55 9 116 9v21q0 52 -25 73t-75 21q-39 0 -76 -7t-54 -13l-18 -7v95q67 32 190 32q101 0 142 -57q64 57 163 57q119 0 172 -77.5t39 -195.5h-327q3 -67 46 -107t112 -40 q37 0 74 7t56 13l19 7v-93q-60 -34 -179 -34q-124 0 -198 72q-64 -72 -176 -72zM175 144q0 -15 9.5 -28t26 -19.5t37.5 -7.5t47 9.5t50 31.5q-18 40 -21 94q-149 -2 -149 -80zM466 321l185 4q-1 51 -21 74t-59 23q-85 0 -105 -101z" />
<glyph unicode="&#x1fe;" horiz-adv-x="759" d="M154 -70l-87 55l75 103q-85 99 -85 249q0 171 85.5 272t248.5 101q87 0 155 -41l53 75l85 -55l-61 -86q79 -97 79 -240q0 -171 -85.5 -272t-248.5 -101q-84 0 -148 36zM199 362q0 -98 25 -165l263 380q-45 43 -116 43q-87 0 -129.5 -68.5t-42.5 -189.5zM388 80 q87 0 129.5 68.5t42.5 189.5q0 86 -20 150l-260 -373q43 -35 108 -35zM388 751l-70 73l160 181l97 -100z" />
<glyph unicode="&#x1ff;" horiz-adv-x="583" d="M149 -54l-77 49l40 59q-62 65 -62 174q0 132 68 207t187 75q59 0 106 -21l43 64l77 -50l-48 -70q51 -63 51 -160q0 -132 -68 -207.5t-187 -75.5q-48 0 -90 14zM185 272q0 -66 9 -105l160 234q-26 20 -70 20q-99 0 -99 -149zM300 80q99 0 99 149q0 50 -4 82l-150 -220 q24 -11 55 -11zM297 572l-70 73l160 181l97 -100z" />
<glyph unicode="&#x218;" horiz-adv-x="549" d="M273 -376l-66 39q32 39 45 94q-28 5 -45 26t-17 51q0 38 24 60t59 22q36 0 58 -22.5t22 -68.5q0 -104 -80 -201zM231 -10q-49 0 -91.5 6t-59.5 12l-18 7v97q73 -23 169 -23q67 0 98.5 27t31.5 64q0 42 -22 70t-96 54q-92 33 -137 81.5t-45 125.5q0 92 62 147t163 55 q49 0 113 -9.5t79 -10.5l-16 -100q-29 2 -79.5 11t-76.5 9q-108 0 -108 -89q0 -37 24.5 -64.5t87.5 -51.5q103 -40 145.5 -88t42.5 -130q0 -94 -70 -147t-197 -53z" />
<glyph unicode="&#x219;" horiz-adv-x="455" d="M229 -375l-66 39q32 39 45 94q-28 5 -45 26t-17 51q0 38 24 60t59 22q36 0 58 -22.5t22 -68.5q0 -104 -80 -201zM217 -10q-35 0 -88.5 9.5t-73.5 11.5l10 102q19 -2 73 -13t86 -11q75 0 75 40q0 19 -22 34t-74 35q-83 31 -117 64.5t-34 99.5q0 70 50 109t123 39 q39 0 91.5 -9.5t73.5 -10.5l-10 -101q-29 2 -79 12t-81 10q-58 0 -58 -36q0 -19 17 -35t73 -35q80 -28 118.5 -65.5t38.5 -98.5q0 -76 -51.5 -113.5t-140.5 -37.5z" />
<glyph unicode="&#x21a;" horiz-adv-x="588" d="M281 -375l-66 39q32 39 45 94q-28 5 -45 26t-17 51q0 38 24 60t59 22q36 0 58 -22.5t22 -68.5q0 -104 -80 -201zM226 0v605l-117 2q-18 0 -40 -1.5t-35 -3.5l-12 -2l5 100h540l-4 -99q-32 3 -80 4h-119v-512l5 -93h-143z" />
<glyph unicode="&#x21b;" horiz-adv-x="430" d="M256 -374l-66 39q32 39 45 94q-28 5 -45 26t-17 51q0 38 24 60t59 22q36 0 58 -22.5t22 -68.5q0 -104 -80 -201zM290 -10q-98 0 -146 39.5t-48 125.5v176l5 81l-60 1v76l57 11l71 116h59v-116h165l-3 -92l-162 2v-231q0 -95 81 -95q19 0 40 4t33 8l11 4v-89 q-46 -21 -103 -21z" />
<glyph unicode="&#x2c6;" horiz-adv-x="384" d="M91 526l-61 69l151 124h38l148 -118l-59 -73l-108 74z" />
<glyph unicode="&#x2c7;" horiz-adv-x="384" d="M305 772l61 -69l-151 -124h-38l-148 118l59 73l108 -74z" />
<glyph unicode="&#x2d8;" horiz-adv-x="398" d="M204 519q-57 0 -100 33.5t-60 96.5l90 36l2 -3q1 -4 3.5 -8.5t6 -10t9.5 -11.5t12.5 -10.5t16 -7.5t20.5 -3q15 0 27.5 5.5t20 13.5t12.5 15.5t8 13.5l2 6l92 -37q-17 -61 -62.5 -95t-99.5 -34z" />
<glyph unicode="&#x2d9;" horiz-adv-x="186" d="M112 508q-32 0 -55.5 23t-23.5 56q0 32 24.5 55.5t56.5 23.5q33 0 55.5 -23t22.5 -56t-24 -56t-56 -23z" />
<glyph unicode="&#x2da;" horiz-adv-x="308" d="M154 618q22 0 22 38q0 36 -22 36q-11 0 -18 -10t-7 -26t7.5 -27t17.5 -11zM154 545q-54 0 -89.5 30t-35.5 81t35.5 81t89.5 30t89 -30t35 -81t-35 -81t-89 -30z" />
<glyph unicode="&#x2db;" horiz-adv-x="213" d="M153 -199q-62 0 -95.5 24.5t-33.5 65.5q0 38 29.5 66.5t66.5 42.5h83q-35 -16 -59 -41t-24 -49q0 -38 52 -38q14 0 29.5 3t24.5 5l9 3v-65q-36 -17 -82 -17z" />
<glyph unicode="&#x2dc;" horiz-adv-x="424" d="M287 536q-36 0 -72.5 18t-50.5 18q-16 0 -28 -12t-16 -27l-82 20q8 48 41 83.5t83 35.5q38 0 73.5 -18t48.5 -18q15 0 25 12.5t13 26.5l80 -20q-9 -57 -41.5 -88t-73.5 -31z" />
<glyph unicode="&#x2dd;" horiz-adv-x="507" d="M110 488l-66 70l160 181l93 -97zM299 488l-66 70l160 181l93 -97z" />
<glyph unicode="&#x401;" horiz-adv-x="598" d="M213 768q-34 0 -55.5 22t-21.5 59q0 39 23.5 60.5t60.5 21.5q36 0 56 -20.5t20 -57.5q0 -41 -22.5 -63t-60.5 -22zM421 768q-34 0 -55.5 22t-21.5 59q0 39 23.5 60.5t60.5 21.5q36 0 56 -20.5t20 -57.5q0 -41 -22.5 -63t-60.5 -22zM96 0v598l-6 102h453l-5 -99 q-39 5 -85 6l-219 3v-210l259 5l-5 -106l-254 8v-216l204 3l105 6l-5 -100h-442z" />
<glyph unicode="&#x402;" horiz-adv-x="735" d="M515 -57l-60 95q52 29 81 81t29 118q0 113 -116 113q-24 0 -45.5 -2.5t-31.5 -5.5l-10 -2v-247l5 -93h-143v609l-109 2q-24 0 -47.5 -1.5t-35.5 -3.5l-12 -2l9 96h536l-4 -95l-98 6l-101 -2v-181q45 22 118 22q109 0 163 -56.5t54 -147.5q0 -100 -40.5 -174.5 t-141.5 -128.5z" />
<glyph unicode="&#x403;" horiz-adv-x="533" d="M291 750l-70 73l160 181l97 -100zM96 0v598l-6 102h423l-5 -109q-41 8 -107 8h-167v-506l5 -93h-143z" />
<glyph unicode="&#x404;" horiz-adv-x="599" d="M394 -10q-151 0 -244.5 94.5t-93.5 244.5q0 174 87 279t242 105q28 0 57 -3.5t61 -9t49 -7.5l-14 -96q-26 1 -73.5 10.5t-81.5 9.5q-84 0 -133.5 -62t-53.5 -154l280 4v-103l-276 4q4 -86 54 -152t137 -66q47 0 86 5.5t55 10.5l15 6v-95q-46 -25 -153 -25z" />
<glyph unicode="&#x405;" horiz-adv-x="549" d="M231 -10q-49 0 -91.5 6t-59.5 12l-18 7v97q73 -23 169 -23q67 0 98.5 27t31.5 64q0 42 -22 70t-96 54q-92 33 -137 81.5t-45 125.5q0 92 62 147t163 55q49 0 113 -9.5t79 -10.5l-16 -100q-29 2 -79.5 11t-76.5 9q-108 0 -108 -89q0 -37 24.5 -64.5t87.5 -51.5 q103 -40 145.5 -88t42.5 -130q0 -94 -70 -147t-197 -53z" />
<glyph unicode="&#x406;" horiz-adv-x="330" d="M96 0v598l-6 103l144 5v-613l5 -93h-143z" />
<glyph unicode="&#x407;" horiz-adv-x="330" d="M96 0v598l-6 103l144 5v-613l5 -93h-143zM62 752q-34 0 -55.5 22t-21.5 59q0 39 23.5 60.5t60.5 21.5q36 0 56 -20.5t20 -57.5q0 -41 -22.5 -63t-60.5 -22zM260 752q-34 0 -55.5 22t-21.5 59q0 39 23.5 60.5t60.5 21.5q36 0 56 -20.5t20 -57.5q0 -41 -22.5 -63t-60.5 -22 z" />
<glyph unicode="&#x408;" horiz-adv-x="329" d="M64 -209l-76 61q15 19 34.5 43.5t26.5 33.5t16 22t13 21.5t8 20.5q10 29 10 97v508l-6 103l144 5v-615q0 -69 -18 -114q-10 -26 -31 -54t-40.5 -49t-80.5 -83z" />
<glyph unicode="&#x409;" horiz-adv-x="988" d="M66 -12l-55 117q93 36 120.5 140.5t44.5 365.5q4 58 6 89h429v-247h91q99 0 176 -58.5t77 -151.5q0 -113 -68.5 -178t-194.5 -65h-219v606h-172q-17 -253 -34 -340q-33 -168 -126 -237q-32 -25 -75 -41zM611 95h31q92 0 132.5 41t40.5 99q0 54 -37 88.5t-112 34.5h-55 v-263z" />
<glyph unicode="&#x40a;" horiz-adv-x="1083" d="M96 0v598l-6 103l144 5v-299h334v191l-6 101l144 5v-251h91q99 0 176 -58.5t77 -151.5q0 -113 -68.5 -178t-194.5 -65h-219v313h-334v-220l5 -93h-143zM706 95h31q92 0 132.5 41t40.5 99q0 54 -37 88.5t-112 34.5h-55v-263z" />
<glyph unicode="&#x40b;" horiz-adv-x="767" d="M225 0v609l-103 2q-20 0 -45.5 -1.5t-40.5 -3.5l-15 -2l5 96h540l-4 -95l-84 4h-115v-189q52 30 160 30q96 0 143.5 -52t47.5 -162v-236h-138v216q0 74 -26 104t-103 30q-21 0 -42 -2t-31 -4l-11 -1v-250l5 -93h-143z" />
<glyph unicode="&#x40c;" horiz-adv-x="652" d="M348 750l-70 73l160 181l97 -100zM495 -5l-215 317h-46v-219l5 -93h-143v598l-6 103l144 5v-301h58q17 23 32.5 44.5t27 38t24 36.5t19.5 31t17.5 29.5t14.5 25t13.5 25t11.5 21.5t11.5 23t10.5 21h133q-88 -157 -218 -321l208 -309l51 -70z" />
<glyph unicode="&#x40e;" horiz-adv-x="608" d="M327 761q-101 0 -200 86l86 88q8 -7 32.5 -33.5t41.5 -37t40 -10.5q15 0 29 4t28 13.5t22.5 16.5t24.5 22t22 21l58 -90q-86 -80 -184 -80zM316 0h-127q23 58 82 153l-215 444l-53 103l147 3l146 -309q12 -25 22.5 -54.5t15.5 -45.5l4 -17h3q14 58 39 119l60 145 q17 43 29.5 82.5t16.5 58.5l4 18h107q-21 -85 -82 -225l-123 -279q-30 -69 -49 -118t-23 -64z" />
<glyph unicode="&#x40f;" horiz-adv-x="762" d="M326 -216l-8 216h-222v598l-6 103l144 5v-612h294v504l-6 103l144 5v-613l5 -93h-230v-120l5 -90z" />
<glyph unicode="&#x410;" horiz-adv-x="636" d="M491 -4l-56 153h-267q-29 -91 -38 -149h-107q9 64 49 177l188 520l109 6l216 -583q12 -33 24 -62.5t19 -42.5l6 -13zM280 480l-81 -240h203l-87 240l-16 61h-4q-5 -31 -15 -61z" />
<glyph unicode="&#x411;" horiz-adv-x="623" d="M96 0v598l-6 102h433l-3 -104q-47 8 -107 9l-179 4v-186h72q137 0 205 -53.5t68 -154.5q0 -96 -73.5 -155.5t-199.5 -59.5h-210zM234 92h64q70 0 105.5 32.5t35.5 87.5q0 53 -34.5 85.5t-106.5 32.5h-64v-238z" />
<glyph unicode="&#x412;" horiz-adv-x="641" d="M96 0v598l-6 102h230q111 0 175 -48.5t64 -127.5q0 -119 -118 -153v-4q70 -14 109 -56t39 -106q0 -96 -74.5 -150.5t-185.5 -54.5h-233zM233 90h96q58 0 90 30t32 83t-29.5 86t-91.5 33h-97v-232zM233 412h145q5 4 13 11.5t21 32.5t13 53q0 44 -28 72.5t-88 28.5h-76 v-198z" />
<glyph unicode="&#x413;" horiz-adv-x="533" d="M96 0v598l-6 102h423l-5 -109q-41 8 -107 8h-167v-506l5 -93h-143z" />
<glyph unicode="&#x414;" horiz-adv-x="737" d="M19 -206l-10 298h62q59 93 84 240t36 368h425v-608h73v-202l5 -90l-115 -6l-8 206h-442v-110l5 -90zM196 92h282v516h-176q-16 -346 -106 -516z" />
<glyph unicode="&#x415;" horiz-adv-x="598" d="M96 0v598l-6 102h453l-5 -99q-39 5 -85 6l-219 3v-210l259 5l-5 -106l-254 8v-216l204 3l105 6l-5 -100h-442z" />
<glyph unicode="&#x416;" horiz-adv-x="986" d="M826 -5l-226 312h-41v-214l5 -93h-143v307h-40l-226 -307h-153q31 38 51 65l224 303q-181 223 -242 331l131 6q47 -94 203 -302h52v195l-6 103l144 5v-303h55q107 147 139.5 194.5t62.5 102.5h124q-54 -105 -234 -327l221 -303l57 -70z" />
<glyph unicode="&#x417;" horiz-adv-x="523" d="M201 -10q-42 0 -82.5 6t-59.5 12l-19 7v98q72 -23 158 -23q58 0 94 32t36 91q0 46 -30 74.5t-81 28.5h-70v93h55q54 0 84 28.5t30 78.5q0 48 -29 75.5t-75 27.5q-32 0 -88 -9.5t-66 -10.5l-14 94q16 2 49 7.5t63 9t62 3.5q108 0 172 -48t64 -140q0 -57 -35.5 -101 t-95.5 -59v-3q59 -4 101 -48.5t42 -109.5q0 -93 -71.5 -153.5t-193.5 -60.5z" />
<glyph unicode="&#x418;" horiz-adv-x="782" d="M96 0v598l-6 103l141 5v-425l-6 -99l5 -1q18 45 43 81l300 439l113 5v-613l5 -93h-140v416l4 105l-4 1q-21 -50 -47 -89l-295 -433h-113z" />
<glyph unicode="&#x419;" horiz-adv-x="782" d="M395 767q-106 0 -200 81l86 92q11 -10 32.5 -35.5t39.5 -38t42 -12.5t42 12.5t39.5 38t32.5 35.5l86 -92q-94 -81 -200 -81zM96 0v598l-6 103l141 5v-425l-6 -99l5 -1q18 45 43 81l300 439l113 5v-613l5 -93h-140v416l4 105l-4 1q-21 -50 -47 -89l-295 -433h-113z" />
<glyph unicode="&#x41a;" horiz-adv-x="652" d="M495 -5l-215 317h-46v-219l5 -93h-143v598l-6 103l144 5v-301h58q17 23 32.5 44.5t27 38t24 36.5t19.5 31t17.5 29.5t14.5 25t13.5 25t11.5 21.5t11.5 23t10.5 21h133q-88 -157 -218 -321l208 -309l51 -70z" />
<glyph unicode="&#x41b;" horiz-adv-x="703" d="M62 -12l-55 117q25 11 44.5 25t35.5 37t27 46t20.5 62t15 75.5t11 97t9 114t8.5 138.5h429v-607l5 -93h-143v606h-174q-5 -91 -9.5 -153t-13 -124.5t-19.5 -104.5t-27.5 -81.5t-40 -66.5t-53.5 -49t-70 -39z" />
<glyph unicode="&#x41c;" horiz-adv-x="922" d="M96 0v587l-6 114l119 5l211 -321q11 -16 20 -33t12 -26l4 -8h3q12 28 33 60l210 323l124 5v-613l5 -93h-139v425l4 109l-4 1q-9 -28 -40 -75l-188 -290h-43l-171 257l-54 89l-3 -1q7 -43 7 -110v-322l5 -83h-109z" />
<glyph unicode="&#x41d;" horiz-adv-x="782" d="M96 0v598l-6 103l144 5v-297h314v189l-6 103l144 5v-613l5 -93h-143v315h-314v-222l5 -93h-143z" />
<glyph unicode="&#x41e;" horiz-adv-x="759" d="M388 80q87 0 129.5 68.5t42.5 189.5q0 58 -9 106t-30 89t-59 64t-91 23q-87 0 -129.5 -68.5t-42.5 -189.5q0 -58 9 -106t30 -89t59 -64t91 -23zM368 -10q-98 0 -170.5 50.5t-106.5 127.5t-34 169q0 171 85.5 272t248.5 101q98 0 170.5 -50.5t106.5 -127.5t34 -169 q0 -171 -85.5 -272t-248.5 -101z" />
<glyph unicode="&#x41f;" horiz-adv-x="752" d="M96 0v597l-6 103h566v-607l5 -93h-143v606h-284v-513l5 -93h-143z" />
<glyph unicode="&#x420;" horiz-adv-x="605" d="M96 0v598l-6 102h216q123 0 193 -61.5t70 -147.5q0 -103 -73.5 -173.5t-195.5 -70.5h-66v-154l5 -93h-143zM234 340h50q73 0 109 38.5t36 107.5q0 55 -35 88.5t-102 33.5h-58v-268z" />
<glyph unicode="&#x421;" horiz-adv-x="594" d="M404 -10q-162 0 -255 94t-93 245q0 174 87 279t242 105q28 0 57 -3.5t61 -9t49 -7.5l-14 -98q-26 1 -73.5 10.5t-81.5 9.5q-86 0 -135.5 -68t-49.5 -183q0 -123 51 -198.5t161 -75.5q35 0 67.5 5t47.5 9l15 5l17 -90q-52 -29 -153 -29z" />
<glyph unicode="&#x422;" horiz-adv-x="589" d="M227 0v605l-117 2q-18 0 -40 -1.5t-34 -3.5l-13 -2l5 100h540l-4 -99q-32 3 -80 4h-119v-512l5 -93h-143z" />
<glyph unicode="&#x423;" horiz-adv-x="608" d="M316 0h-127q23 58 82 153l-215 444l-53 103l147 3l146 -309q12 -25 22.5 -54.5t15.5 -45.5l4 -17h3q14 58 39 119l60 145q17 43 29.5 82.5t16.5 58.5l4 18h107q-21 -85 -82 -225l-123 -279q-30 -69 -49 -118t-23 -64z" />
<glyph unicode="&#x424;" horiz-adv-x="846" d="M359 -20l1 101q-159 1 -238.5 84.5t-79.5 200.5q0 122 78.5 202t239.5 81l-5 101l137 5v-106q160 -1 239 -81.5t79 -201.5q0 -55 -18.5 -104t-55 -90.5t-99.5 -66t-145 -24.5l5 -101h-138zM492 169q76 0 129.5 48.5t53.5 148.5q0 97 -55.5 146.5t-127.5 49.5v-393z M360 169v393q-69 -1 -126 -50.5t-57 -145.5q0 -100 52 -148.5t131 -48.5z" />
<glyph unicode="&#x425;" horiz-adv-x="654" d="M483 -5l-171 275l-73 -120l-90 -150h-125q39 82 116 183l117 160l-162 251l-73 106l162 5l155 -263l84 122q18 27 37 61.5t28 55.5l10 21h122q-24 -73 -93 -166l-129 -173l175 -267l66 -96z" />
<glyph unicode="&#x426;" horiz-adv-x="787" d="M629 -206l-8 206h-525v598l-6 103l144 5v-612h294v504l-6 103l144 5v-612h73v-204l5 -90z" />
<glyph unicode="&#x427;" horiz-adv-x="700" d="M466 0v278q-52 -23 -154 -23q-132 0 -196.5 69.5t-64.5 190.5v83l-6 103l144 5v-178q0 -96 40.5 -137.5t121.5 -41.5q30 0 59 3.5t42 7.5l14 3v235l-6 103l144 5v-613l5 -93h-143z" />
<glyph unicode="&#x428;" horiz-adv-x="1042" d="M96 0v598l-6 103l144 5v-612h218v504l-6 103l144 5v-612h218v504l-6 103l144 5v-613l5 -93h-855z" />
<glyph unicode="&#x429;" horiz-adv-x="1067" d="M909 -206l-8 206h-805v598l-6 103l144 5v-612h218v504l-6 103l144 5v-612h218v504l-6 103l144 5v-612h73v-204l5 -90z" />
<glyph unicode="&#x42a;" horiz-adv-x="706" d="M189 0v606h-70q-22 0 -46.5 -2t-38.5 -4l-13 -1l7 101h299v-247h82q116 0 189.5 -54.5t73.5 -150.5q0 -110 -69.5 -179t-193.5 -69h-220zM327 95h47q86 0 122 37.5t36 93.5q0 132 -157 132h-48v-263z" />
<glyph unicode="&#x42b;" horiz-adv-x="890" d="M96 0v598l-6 102l144 5v-252h82q116 0 189.5 -54.5t73.5 -150.5q0 -110 -69.5 -179t-193.5 -69h-220zM656 0v598l-6 103l144 5v-613l5 -93h-143zM234 95h47q86 0 122 37.5t36 93.5q0 132 -157 132h-48v-263z" />
<glyph unicode="&#x42c;" horiz-adv-x="613" d="M96 0v598l-6 102l144 5v-252h82q116 0 189.5 -54.5t73.5 -150.5q0 -110 -69.5 -179t-193.5 -69h-220zM234 95h47q86 0 122 37.5t36 93.5q0 132 -157 132h-48v-263z" />
<glyph unicode="&#x42d;" horiz-adv-x="585" d="M115 297v108l269 -5q-8 98 -58 155.5t-147 57.5q-28 0 -58.5 -4.5t-46.5 -9.5l-17 -5v90q53 29 159 29q142 0 227 -94.5t85 -244.5q0 -102 -35 -188t-109 -141t-175 -55q-28 0 -57 3.5t-61 9t-49 7.5l14 98q26 -1 73.5 -10.5t81.5 -9.5q75 0 119 58.5t53 158.5z" />
<glyph unicode="&#x42e;" horiz-adv-x="1035" d="M644 -10q-140 0 -222 94.5t-89 230.5h-99v-222l5 -93h-143v598l-6 103l144 5v-297h103q17 140 101 220.5t229 80.5q98 0 170.5 -50.5t106.5 -127.5t34 -169q0 -171 -85.5 -272t-248.5 -101zM664 80q82 0 127 70t45 188q0 58 -9 106t-30 89t-59 64t-91 23 q-83 0 -127.5 -70t-44.5 -188q0 -58 9 -106t30 -89t59 -64t91 -23z" />
<glyph unicode="&#x42f;" horiz-adv-x="644" d="M28 0l174 281q-57 21 -92 72.5t-35 120.5q0 102 72 164t190 62h211v-598l6 -102l-144 -5v252h-95l-141 -247h-146zM351 342h59v263h-56q-139 0 -139 -131q0 -66 36.5 -99t99.5 -33z" />
<glyph unicode="&#x430;" horiz-adv-x="545" d="M188 -10q-74 0 -112 38t-38 94q0 134 171 162q55 9 116 9v31q0 46 -27.5 70t-76.5 24q-37 0 -73 -5.5t-54 -10.5l-17 -6v87q67 27 172 27q113 0 162 -49t47 -131q0 -21 -1 -72t-2 -93.5t-1 -64.5q0 -18 11 -18q8 0 17.5 5t15.5 10l5 5v-83q-32 -29 -78 -29q-63 0 -79 62 q-68 -62 -158 -62zM229 84q46 0 92 36q0 23 2 107q-48 -2 -85 -13q-66 -19 -66 -78q0 -24 14.5 -38t42.5 -14z" />
<glyph unicode="&#x431;" horiz-adv-x="592" d="M306 -10q-116 0 -180 74.5t-64 222.5q0 106 14.5 182t50.5 135.5t99.5 93t157.5 43.5q47 5 78.5 10t39.5 7l8 3l23 -110q-32 -14 -135 -24q-123 -14 -178 -65.5t-71 -171.5l5 -1q17 45 64 72t107 27q100 0 159.5 -62t59.5 -168q0 -124 -65.5 -196t-172.5 -72zM297 76 q57 0 86.5 46.5t29.5 128.5q0 63 -28.5 99.5t-78.5 36.5q-55 0 -85 -41t-30 -117q0 -67 28.5 -110t77.5 -43z" />
<glyph unicode="&#x432;" horiz-adv-x="548" d="M76 0v397q0 29 -1.5 55t-2.5 37l-2 11h230q88 0 133 -33t45 -90q0 -44 -23.5 -75t-63.5 -40v-3q49 -6 80.5 -33.5t31.5 -77.5q0 -148 -203 -148h-224zM203 87h91q35 0 57 17.5t22 46.5q0 25 -20.5 43t-65.5 18h-84v-125zM203 299h84q29 0 47.5 15.5t18.5 42.5 q0 56 -73 56h-77v-114z" />
<glyph unicode="&#x433;" horiz-adv-x="430" d="M76 0v397l-6 103h343l-4 -102q-24 5 -60 5l-140 2v-322l5 -83h-138z" />
<glyph unicode="&#x434;" horiz-adv-x="612" d="M25 -167l-10 259h48q41 51 58 136.5t27 271.5h362v-408h63v-171l5 -83l-115 -5l-7 167h-321v-79l5 -83zM185 92h192v315h-123q-6 -123 -21 -192t-48 -123z" />
<glyph unicode="&#x435;" horiz-adv-x="554" d="M318 -10q-126 0 -199.5 67t-73.5 185q0 124 70 196t181 72q119 0 172 -77.5t39 -195.5h-327q3 -67 46 -107t112 -40q37 0 74 7t56 13l19 7v-93q-60 -34 -169 -34zM187 321l185 4q-1 51 -21 74t-59 23q-42 0 -71 -28t-34 -73z" />
<glyph unicode="&#x436;" horiz-adv-x="803" d="M650 -5l-150 216h-32v-118l5 -93h-138v211h-31l-151 -211h-148q29 28 65 75l146 188l-91 108q-28 32 -50 64.5t-31 48.5l-8 16l127 1q10 -33 69 -116l60 -89h43v101l-6 103l139 5v-209h47l58 89q23 36 39 65t20 40l4 10h120q-23 -58 -80 -129l-85 -106l142 -190 q16 -21 32.5 -39.5t24.5 -27.5l8 -8z" />
<glyph unicode="&#x437;" horiz-adv-x="464" d="M184 -10q-43 0 -80 8t-52 16l-16 9v89q56 -27 140 -27q44 0 74 16.5t30 49.5q0 60 -77 60h-72v93h62q75 0 75 55q0 24 -18.5 39.5t-51.5 15.5q-22 0 -45.5 -3.5t-55.5 -10t-41 -7.5l-16 96q13 2 46.5 8t61.5 9.5t57 3.5q86 0 143.5 -33t57.5 -102q0 -89 -95 -115v-3 q107 -17 107 -109q0 -69 -59 -113.5t-175 -44.5z" />
<glyph unicode="&#x438;" horiz-adv-x="632" d="M76 0v397l-6 103l137 5v-281l-4 -84h4q16 37 37 70l179 290l133 5v-412l5 -93h-136v257q0 25 1.5 49t3.5 35l2 11h-5q-14 -40 -44 -86l-174 -266h-133z" />
<glyph unicode="&#x439;" horiz-adv-x="632" d="M321 598q-106 0 -200 81l86 88q9 -8 32 -34t40.5 -36.5t41.5 -10.5q20 0 38.5 8t29 16.5t29.5 26.5t29 26l69 -84q-87 -81 -195 -81zM76 0v397l-6 103l137 5v-281l-4 -84h4q16 37 37 70l179 290l133 5v-412l5 -93h-136v257q0 25 1.5 49t3.5 35l2 11h-5q-14 -40 -44 -86 l-174 -266h-133z" />
<glyph unicode="&#x43a;" horiz-adv-x="549" d="M384 -2l-130 212h-45v-117l5 -93h-138v397l-6 103l139 5v-208h41l71 106q19 28 33.5 52.5t19.5 34.5l6 10h129q-14 -32 -83 -119l-80 -100l137 -205q11 -17 25.5 -36t23.5 -30l9 -10z" />
<glyph unicode="&#x43b;" horiz-adv-x="574" d="M62 -17l-54 104q41 23 64 47.5t38.5 73t21.5 113t10 179.5h356v-417l5 -83h-138v407h-111q-8 -191 -47 -289t-145 -135z" />
<glyph unicode="&#x43c;" horiz-adv-x="742" d="M74 0l3 397l-4 103l116 5l134 -209q14 -22 24 -39.5t13 -24.5l3 -6h5q14 24 39 62l140 212l115 5l6 -412l7 -93h-129l-6 238q0 26 1.5 53.5t2.5 42.5l2 15l-4 1q-12 -34 -45 -83l-126 -187h-41l-119 180q-12 17 -22.5 36.5t-14.5 30.5l-5 11l-5 -2q5 -40 5 -82l-1 -161 q0 -20 1.5 -43.5t2.5 -36.5l2 -13h-100z" />
<glyph unicode="&#x43d;" horiz-adv-x="607" d="M76 0v397l-6 103l139 5v-204h189v96l-6 103l139 5v-412l5 -93h-138v207h-189v-114l5 -93h-138z" />
<glyph unicode="&#x43e;" horiz-adv-x="578" d="M291 80q51 0 78 40.5t27 116.5q0 91 -24.5 137.5t-84.5 46.5q-52 0 -78.5 -42.5t-26.5 -120.5q0 -82 27 -130t82 -48zM276 -10q-107 0 -168 66t-61 177q0 129 68 203t187 74q107 0 168 -66t61 -177q0 -128 -68.5 -202.5t-186.5 -74.5z" />
<glyph unicode="&#x43f;" horiz-adv-x="599" d="M76 0v397l-6 103h453v-417l5 -83h-138v407h-181v-324l5 -83h-138z" />
<glyph unicode="&#x440;" horiz-adv-x="608" d="M76 -250v647l-6 103l132 5l3 -48q31 28 62.5 40.5t84.5 12.5q96 0 152.5 -68t56.5 -165q0 -132 -67.5 -209.5t-173.5 -77.5q-32 0 -60 7t-40 15l-11 7v-186l5 -83h-138zM298 80q60 0 93 47t33 120q0 85 -30.5 124t-79.5 39q-53 0 -107 -33q2 -16 2 -76v-191 q34 -30 89 -30z" />
<glyph unicode="&#x441;" horiz-adv-x="478" d="M294 -10q-115 0 -181.5 67.5t-66.5 176.5q0 123 67 199.5t179 76.5q30 0 75 -9.5t67 -10.5l-10 -102q-24 2 -69 12.5t-68 10.5q-47 0 -76.5 -39t-29.5 -114q0 -77 38 -122.5t107 -45.5q27 0 54 7t41 13l14 7v-94q-52 -33 -141 -33z" />
<glyph unicode="&#x442;" horiz-adv-x="461" d="M166 0v408l-63 -2l-85 -4l5 98h420l-4 -98q-30 5 -66 6l-74 2v-327l5 -83h-138z" />
<glyph unicode="&#x443;" horiz-adv-x="516" d="M231 -254l-129 6q29 80 87 185l16 29l-155 431l-42 103l147 5l96 -293q8 -26 14.5 -51t8.5 -37l3 -11h4q9 47 26 101l46 143q31 96 36 143h108q-7 -86 -56 -202l-126 -307q-23 -55 -44 -116t-31 -95z" />
<glyph unicode="&#x444;" horiz-adv-x="832" d="M351 -250v267q-36 -27 -99 -27q-103 0 -153.5 67.5t-50.5 172.5q0 127 66 203.5t168 76.5q19 0 36.5 -4.5t25.5 -9.5l7 -4v155l-6 103l137 5v-272q40 27 99 27q103 0 153.5 -67.5t50.5 -172.5q0 -127 -65 -203.5t-161 -76.5q-22 0 -41 4.5t-28 9.5l-8 4v-175l5 -83h-136z M288 79q15 0 31 3.5t24 6.5l8 3v317q-15 15 -49 15q-55 0 -86 -47.5t-31 -136.5q0 -76 27 -118.5t76 -42.5zM540 76q49 0 78.5 47.5t29.5 134.5q0 78 -27 120.5t-77 42.5q-16 0 -31.5 -3.5t-22.5 -6.5l-8 -3v-317q15 -15 58 -15z" />
<glyph unicode="&#x445;" horiz-adv-x="548" d="M382 -5l-125 175l-23 -34q-26 -39 -47.5 -73t-29.5 -49l-8 -14h-128q53 78 108 146l76 95l-122 176q-14 21 -30 41.5t-25 31.5l-8 10l156 5l113 -173l31 48l75 120h116q-46 -76 -113 -164l-58 -77l139 -183l59 -76z" />
<glyph unicode="&#x446;" horiz-adv-x="637" d="M491 -167l-7 167h-408v397l-6 103l139 5v-413h191v305l-6 103l139 5v-413h68v-171l5 -83z" />
<glyph unicode="&#x447;" horiz-adv-x="551" d="M342 0v192q-41 -31 -118 -31t-129.5 44t-52.5 133v59l-6 103l139 5v-148q0 -100 95 -100q21 0 39 4t25 8l8 4v124l-6 103l139 5v-412l5 -93h-138z" />
<glyph unicode="&#x448;" horiz-adv-x="869" d="M76 0v397l-6 103l139 5v-412h159v304l-6 103l139 5v-412h159v304l-6 103l139 5v-422l5 -83h-722z" />
<glyph unicode="&#x449;" horiz-adv-x="897" d="M751 -167l-7 167h-668v397l-6 103l139 5v-413h159v305l-6 103l139 5v-413h159v305l-6 103l139 5v-413h68v-171l5 -83z" />
<glyph unicode="&#x44a;" horiz-adv-x="597" d="M145 0v409h-43l-82 -5l4 96h256v-165h85q109 0 155 -45.5t46 -115.5q0 -33 -9 -61.5t-30.5 -55t-62.5 -42t-99 -15.5h-220zM280 88h57q37 0 62.5 22.5t25.5 57.5t-25 57t-63 22h-57v-159z" />
<glyph unicode="&#x44b;" horiz-adv-x="761" d="M76 0v397l-6 103l139 5v-170h77q93 0 151 -40t58 -121q0 -82 -59.5 -128t-149.5 -46h-210zM552 0v397l-6 103l139 5v-412l5 -93h-138zM209 88h57q37 0 62.5 22.5t25.5 57.5t-25 57t-63 22h-57v-159z" />
<glyph unicode="&#x44c;" horiz-adv-x="525" d="M76 0v397l-6 103l139 5v-170h77q93 0 151 -40t58 -121q0 -82 -59.5 -128t-149.5 -46h-210zM209 88h57q37 0 62.5 22.5t25.5 57.5t-25 57t-63 22h-57v-159z" />
<glyph unicode="&#x44d;" horiz-adv-x="477" d="M170 -10q-34 0 -67 7t-49 14l-16 7v95q49 -23 128 -23q114 0 128 117l-180 -9v103l180 -7q-3 50 -31 83.5t-78 33.5q-29 0 -75 -10t-58 -12l-20 100q15 2 44.5 8t55.5 9.5t55 3.5q105 0 175 -64.5t70 -182.5q0 -125 -71.5 -199t-190.5 -74z" />
<glyph unicode="&#x44e;" horiz-adv-x="829" d="M522 -6q-103 0 -165.5 57t-68.5 156h-79v-114l5 -93h-138v397l-6 103l139 5v-204h85q18 98 85 151t169 53q108 0 171 -63t63 -169q0 -131 -70 -205t-190 -74zM543 80q54 0 79 48t25 115q0 178 -116 178q-56 0 -82 -46.5t-26 -121.5q0 -78 28.5 -125.5t91.5 -47.5z" />
<glyph unicode="&#x44f;" horiz-adv-x="541" d="M32 0l116 190q-42 14 -67 49.5t-25 88.5q0 82 57.5 127t151.5 45h200v-407l5 -93h-138v157h-75l-86 -157h-139zM276 246h58v161h-59q-42 0 -61.5 -24.5t-19.5 -55.5q0 -35 22 -58t60 -23z" />
<glyph unicode="&#x451;" horiz-adv-x="554" d="M191 596q-34 0 -55.5 22t-21.5 59q0 39 23.5 60.5t60.5 21.5q36 0 56 -20.5t20 -57.5q0 -41 -22.5 -63t-60.5 -22zM399 596q-34 0 -55.5 22t-21.5 59q0 39 23.5 60.5t60.5 21.5q36 0 56 -20.5t20 -57.5q0 -41 -22.5 -63t-60.5 -22zM318 -10q-126 0 -199.5 67t-73.5 185 q0 124 70 196t181 72q119 0 172 -77.5t39 -195.5h-327q3 -67 46 -107t112 -40q37 0 74 7t56 13l19 7v-93q-60 -34 -169 -34zM187 321l185 4q-1 51 -21 74t-59 23q-42 0 -71 -28t-34 -73z" />
<glyph unicode="&#x452;" horiz-adv-x="603" d="M381 -219l-66 61q54 58 74.5 113t20.5 133v129q0 71 -25.5 102t-91.5 31q-24 0 -45 -3t-30 -5l-10 -3q1 -28 1 -58v-198l5 -83h-138v540h-75v93h75v14l-6 103l139 5l-1 -122h174v-93h-175v-114q70 24 135 24q87 0 141.5 -49.5t54.5 -155.5v-157q0 -86 -37 -159.5 t-120 -147.5z" />
<glyph unicode="&#x453;" horiz-adv-x="430" d="M236 572l-70 73l160 181l97 -100zM76 0v397l-6 103h343l-4 -102q-24 5 -60 5l-140 2v-322l5 -83h-138z" />
<glyph unicode="&#x454;" horiz-adv-x="468" d="M298 -10q-119 0 -186 68.5t-67 181.5q0 114 67 192t174 78q36 0 80 -9.5t64 -10.5l-17 -103q-25 1 -63.5 14t-68.5 13q-37 0 -66.5 -31t-32.5 -89l178 7v-103l-175 7q5 -50 38.5 -82.5t86.5 -32.5q32 0 61.5 7t43.5 13l14 7v-94q-50 -33 -131 -33z" />
<glyph unicode="&#x455;" horiz-adv-x="449" d="M214 -10q-35 0 -88.5 9.5t-73.5 11.5l10 102q19 -2 73 -13t86 -11q75 0 75 40q0 19 -22 34t-74 35q-83 31 -117 64.5t-34 99.5q0 70 50 109t123 39q39 0 91.5 -9.5t73.5 -10.5l-10 -101q-29 2 -79 12t-81 10q-58 0 -58 -36q0 -19 17 -35t73 -35q80 -28 118.5 -65.5 t38.5 -98.5q0 -76 -51.5 -113.5t-140.5 -37.5z" />
<glyph unicode="&#x456;" horiz-adv-x="285" d="M76 0v397l-6 103l139 5v-412l5 -93h-138zM136 596q-32 0 -53.5 20.5t-21.5 52.5q0 33 23 51.5t59 18.5q34 0 54 -18t20 -50q0 -35 -22 -55t-59 -20z" />
<glyph unicode="&#x457;" horiz-adv-x="285" d="M76 0v397l-6 103l139 5v-412l5 -93h-138zM41 576q-31 0 -50.5 20t-19.5 52q0 35 21 54t54 19q32 0 49.5 -18t17.5 -51q0 -36 -19.5 -56t-52.5 -20zM253 576q-31 0 -50.5 20t-19.5 52q0 35 21 54t54 19q67 0 67 -69q0 -36 -19.5 -56t-52.5 -20z" />
<glyph unicode="&#x458;" horiz-adv-x="285" d="M47 -257l-63 50q49 63 76 121q16 31 16 112v371l-6 103l139 5v-479q0 -76 -19 -111q-30 -58 -143 -172zM140 596q-32 0 -53.5 20.5t-21.5 52.5q0 33 23 51.5t59 18.5q34 0 54 -18t20 -50q0 -35 -22 -55t-59 -20z" />
<glyph unicode="&#x459;" horiz-adv-x="823" d="M62 -17l-54 103q50 28 74 61.5t39.5 115t20.5 237.5h356v-167h87q92 0 150.5 -42.5t58.5 -123.5q0 -76 -55 -121.5t-147 -45.5h-227v407h-111q-8 -198 -47 -293t-145 -131zM498 86h58q43 0 68.5 21t25.5 56q0 84 -85 84h-67v-161z" />
<glyph unicode="&#x45a;" horiz-adv-x="842" d="M76 0v397l-6 103l139 5v-204h174v96l-6 103l139 5v-172h87q94 0 151.5 -40t57.5 -126q0 -79 -54.5 -123t-147.5 -44h-227v207h-174v-114l5 -93h-138zM516 86h58q43 0 68.5 21t25.5 56q0 84 -85 84h-67v-161z" />
<glyph unicode="&#x45b;" horiz-adv-x="612" d="M76 0v540h-75v93h75v14l-6 103l139 5l-1 -122h174v-93h-175v-114q70 24 135 24q88 0 147 -50t59 -155v-162l5 -83h-143v217q0 133 -126 133q-19 0 -39 -3t-31 -5l-10 -3q5 -22 5 -58v-198l5 -83h-138z" />
<glyph unicode="&#x45c;" horiz-adv-x="549" d="M300 571l-70 73l160 181l97 -100zM384 -2l-130 212h-45v-117l5 -93h-138v397l-6 103l139 5v-208h41l71 106q19 28 33.5 52.5t19.5 34.5l6 10h129q-14 -32 -83 -119l-80 -100l137 -205q11 -17 25.5 -36t23.5 -30l9 -10z" />
<glyph unicode="&#x45e;" horiz-adv-x="516" d="M272 598q-106 0 -200 81l86 88q9 -8 32 -34t40.5 -36.5t41.5 -10.5q20 0 38.5 8t29 16.5t29.5 26.5t29 26l69 -84q-87 -81 -195 -81zM231 -254l-129 6q29 80 87 185l16 29l-155 431l-42 103l147 5l96 -293q8 -26 14.5 -51t8.5 -37l3 -11h4q9 47 26 101l46 143 q31 96 36 143h108q-7 -86 -56 -202l-126 -307q-23 -55 -44 -116t-31 -95z" />
<glyph unicode="&#x45f;" horiz-adv-x="609" d="M246 -167l-7 167h-163v397l-6 103l139 5v-412h191v304l-6 103l139 5v-422l5 -83h-179v-79l5 -83z" />
<glyph unicode="&#x490;" horiz-adv-x="534" d="M96 0v598l-6 102h319l15 163h89l-5 -265l-274 9v-514l5 -93h-143z" />
<glyph unicode="&#x491;" horiz-adv-x="430" d="M76 0v397l-6 103h240l2 40l2 94h105l-10 -237l-200 5v-319l5 -83h-138z" />
<glyph unicode="&#x1e80;" horiz-adv-x="971" d="M228 -4l-171 583l-39 118l143 6l123 -435q8 -28 14 -56.5t8 -43.5l3 -15h4q5 53 21 118l104 429l119 5l115 -433q8 -29 13.5 -59.5t7.5 -46.5l2 -17h4q6 57 24 119l74 258q26 90 35 174h111q-15 -108 -53 -221l-152 -477l-120 -6l-105 398l-24 121h-5q-9 -71 -19 -115 l-95 -398zM481 751l-187 154l96 101l160 -181z" />
<glyph unicode="&#x1e81;" horiz-adv-x="794" d="M177 -5l-123 402l-35 103l132 5l84 -282q7 -24 12 -48t7 -37l1 -12h4q4 41 21 103l46 170q8 32 13 57t6 34l1 10l106 7l86 -276q8 -25 15 -52t9 -41l3 -14h4q7 49 24 109l33 113q23 90 28 154h104q-3 -76 -45 -202l-102 -298l-121 -5l-77 257q-7 21 -12.5 44t-7.5 35 l-2 12h-4q-7 -45 -21 -101l-61 -242zM432 583l-187 154l96 101l160 -181z" />
<glyph unicode="&#x1e82;" horiz-adv-x="971" d="M484 751l-70 73l160 181l97 -100zM228 -4l-171 583l-39 118l143 6l123 -435q8 -28 14 -56.5t8 -43.5l3 -15h4q5 53 21 118l104 429l119 5l115 -433q8 -29 13.5 -59.5t7.5 -46.5l2 -17h4q6 57 24 119l74 258q26 90 35 174h111q-15 -108 -53 -221l-152 -477l-120 -6 l-105 398l-24 121h-5q-9 -71 -19 -115l-95 -398z" />
<glyph unicode="&#x1e83;" horiz-adv-x="794" d="M409 572l-70 73l160 181l97 -100zM177 -5l-123 402l-35 103l132 5l84 -282q7 -24 12 -48t7 -37l1 -12h4q4 41 21 103l46 170q8 32 13 57t6 34l1 10l106 7l86 -276q8 -25 15 -52t9 -41l3 -14h4q7 49 24 109l33 113q23 90 28 154h104q-3 -76 -45 -202l-102 -298l-121 -5 l-77 257q-7 21 -12.5 44t-7.5 35l-2 12h-4q-7 -45 -21 -101l-61 -242z" />
<glyph unicode="&#x1e84;" horiz-adv-x="971" d="M390 775q-34 0 -55.5 22t-21.5 59q0 39 23.5 60.5t60.5 21.5q36 0 56 -20.5t20 -57.5q0 -41 -22.5 -63t-60.5 -22zM598 775q-34 0 -55.5 22t-21.5 59q0 39 23.5 60.5t60.5 21.5q36 0 56 -20.5t20 -57.5q0 -41 -22.5 -63t-60.5 -22zM228 -4l-171 583l-39 118l143 6 l123 -435q8 -28 14 -56.5t8 -43.5l3 -15h4q5 53 21 118l104 429l119 5l115 -433q8 -29 13.5 -59.5t7.5 -46.5l2 -17h4q6 57 24 119l74 258q26 90 35 174h111q-15 -108 -53 -221l-152 -477l-120 -6l-105 398l-24 121h-5q-9 -71 -19 -115l-95 -398z" />
<glyph unicode="&#x1e85;" horiz-adv-x="794" d="M294 598q-34 0 -55.5 22t-21.5 59q0 39 23.5 60.5t60.5 21.5q36 0 56 -20.5t20 -57.5q0 -41 -22.5 -63t-60.5 -22zM502 598q-34 0 -55.5 22t-21.5 59q0 39 23.5 60.5t60.5 21.5q36 0 56 -20.5t20 -57.5q0 -41 -22.5 -63t-60.5 -22zM177 -5l-123 402l-35 103l132 5 l84 -282q7 -24 12 -48t7 -37l1 -12h4q4 41 21 103l46 170q8 32 13 57t6 34l1 10l106 7l86 -276q8 -25 15 -52t9 -41l3 -14h4q7 49 24 109l33 113q23 90 28 154h104q-3 -76 -45 -202l-102 -298l-121 -5l-77 257q-7 21 -12.5 44t-7.5 35l-2 12h-4q-7 -45 -21 -101l-61 -242z " />
<glyph unicode="&#x1ef2;" horiz-adv-x="602" d="M234 0v284l-186 324q-11 20 -25.5 43t-23.5 36l-9 13l158 5l178 -324l99 200q16 33 28.5 63t16.5 43l4 13h117q-36 -80 -76 -158l-143 -259v-190l5 -93h-143zM310 750l-187 154l96 101l160 -181z" />
<glyph unicode="&#x1ef3;" horiz-adv-x="524" d="M235 -254l-129 6q29 80 87 185l16 29l-155 431l-42 103l147 5l96 -293q8 -26 14.5 -51t8.5 -37l3 -11h4q9 47 26 101l46 143q31 96 36 143h108q-7 -86 -56 -202l-126 -307q-23 -55 -44 -116t-31 -95zM306 573l-187 154l96 101l160 -181z" />
<glyph unicode="&#x2009;" horiz-adv-x="40" />
<glyph unicode="&#x2013;" horiz-adv-x="656" d="M72 239v114h511v-114h-511z" />
<glyph unicode="&#x2014;" horiz-adv-x="830" d="M69 242v114h691v-114h-691z" />
<glyph unicode="&#x2018;" horiz-adv-x="267" d="M162 734l64 -53q-57 -53 -78 -117q28 -5 45 -26t17 -51q0 -38 -24 -60t-59 -22q-36 0 -58 22.5t-22 68.5q0 62 33.5 129t81.5 109z" />
<glyph unicode="&#x2019;" horiz-adv-x="259" d="M105 420l-64 53q57 53 78 117q-28 5 -45 26t-17 51q0 38 24 60t59 22q36 0 58 -22.5t22 -68.5q0 -62 -33.5 -129t-81.5 -109z" />
<glyph unicode="&#x201a;" horiz-adv-x="275" d="M103 -184l-64 53q57 53 78 117q-28 5 -45 26t-17 51q0 38 24 60t59 22q36 0 58 -22.5t22 -68.5q0 -62 -33.5 -129t-81.5 -109z" />
<glyph unicode="&#x201b;" horiz-adv-x="231" d="M140 416q-47 40 -72 98t-25 121q0 79 69 79q29 0 47.5 -16.5t18.5 -45.5q0 -30 -19.5 -46t-47.5 -15q5 -84 69 -142z" />
<glyph unicode="&#x201c;" horiz-adv-x="471" d="M162 734l64 -53q-57 -53 -78 -117q28 -5 45 -26t17 -51q0 -38 -24 -60t-59 -22q-36 0 -58 22.5t-22 68.5q0 62 33.5 129t81.5 109zM366 734l64 -53q-57 -53 -78 -117q28 -5 45 -26t17 -51q0 -38 -24 -60t-59 -22q-36 0 -58 22.5t-22 68.5q0 62 33.5 129t81.5 109z" />
<glyph unicode="&#x201d;" horiz-adv-x="463" d="M309 420l-64 53q57 53 78 117q-28 5 -45 26t-17 51q0 38 24 60t59 22q36 0 58 -22.5t22 -68.5q0 -62 -33.5 -129t-81.5 -109zM105 420l-64 53q57 53 78 117q-28 5 -45 26t-17 51q0 38 24 60t59 22q36 0 58 -22.5t22 -68.5q0 -62 -33.5 -129t-81.5 -109z" />
<glyph unicode="&#x201e;" horiz-adv-x="480" d="M103 -184l-64 53q57 53 78 117q-28 5 -45 26t-17 51q0 38 24 60t59 22q36 0 58 -22.5t22 -68.5q0 -62 -33.5 -129t-81.5 -109zM308 -184l-64 53q57 53 78 117q-28 5 -45 26t-17 51q0 38 24 60t59 22q36 0 58 -22.5t22 -68.5q0 -62 -33.5 -129t-81.5 -109z" />
<glyph unicode="&#x201f;" horiz-adv-x="435" d="M140 416q-47 40 -72 98t-25 121q0 79 69 79q29 0 47.5 -16.5t18.5 -45.5q0 -30 -19.5 -46t-47.5 -15q5 -84 69 -142zM344 416q-47 40 -72 98t-25 121q0 79 69 79q29 0 47.5 -16.5t18.5 -45.5q0 -30 -19.5 -46t-47.5 -15q5 -84 69 -142z" />
<glyph unicode="&#x2020;" horiz-adv-x="558" d="M280 -250l-70 47l5 577l-175 -8v134l175 -8l-5 223h138l-5 -223l175 8v-134l-175 8l5 -577z" />
<glyph unicode="&#x2021;" horiz-adv-x="604" d="M230 -250l9 194l-176 -9v154l176 -9l-14 155l22 146l-184 -15v154l184 -15l-17 210h144l-17 -210l184 15v-154l-184 15l22 -146l-14 -155l176 9v-154l-176 9l9 -194h-144z" />
<glyph unicode="&#x2022;" horiz-adv-x="348" d="M54 298q0 51 32 86t88 35t88 -35t32 -86t-32 -86t-88 -35t-88 35t-32 86z" />
<glyph unicode="&#x2024;" horiz-adv-x="250" d="M122 -15q-29 0 -47 17.5t-18 45.5q0 29 19.5 45.5t51.5 16.5q30 0 47 -16t17 -44q0 -30 -19 -47.5t-51 -17.5z" />
<glyph unicode="&#x2025;" horiz-adv-x="505" d="M122 -15q-29 0 -47 17.5t-18 45.5q0 29 19.5 45.5t51.5 16.5q30 0 47 -16t17 -44q0 -30 -19 -47.5t-51 -17.5zM377 -15q-29 0 -47 17.5t-18 45.5q0 29 19.5 45.5t51.5 16.5q30 0 47 -16t17 -44q0 -30 -19 -47.5t-51 -17.5z" />
<glyph unicode="&#x2026;" horiz-adv-x="783" d="M141 144q32 0 54.5 -22t22.5 -56q0 -38 -24.5 -59.5t-60.5 -21.5q-35 0 -55.5 20t-20.5 55q0 40 23 62t61 22zM398 144q32 0 54.5 -22t22.5 -56q0 -38 -24.5 -59.5t-60.5 -21.5q-35 0 -55.5 20t-20.5 55q0 40 23 62t61 22zM650 144q32 0 54.5 -22t22.5 -56 q0 -38 -24.5 -59.5t-60.5 -21.5q-35 0 -55.5 20t-20.5 55q0 40 23 62t61 22z" />
<glyph unicode="&#x2030;" horiz-adv-x="1407" d="M242 424q45 0 45 98q0 52 -10 80.5t-38 28.5q-45 0 -45 -97q0 -50 12.5 -80t35.5 -30zM232 337q-86 0 -137 52t-51 137q0 83 52.5 137.5t139.5 54.5q97 0 149.5 -48t52.5 -132q0 -88 -58 -144.5t-148 -56.5zM174 0l478 700h157l-477 -700h-158zM752 77q45 0 45 98 q0 52 -10 80.5t-38 28.5q-45 0 -45 -97q0 -50 12.5 -80t35.5 -30zM742 -10q-86 0 -137 52t-51 137q0 83 52.5 137.5t139.5 54.5q97 0 149.5 -48t52.5 -132q0 -88 -58 -144.5t-148 -56.5zM1169 77q45 0 45 98q0 52 -10 80.5t-38 28.5q-45 0 -45 -97q0 -50 12.5 -80t35.5 -30z M1159 -10q-86 0 -137 52t-51 137q0 83 52.5 137.5t139.5 54.5q97 0 149.5 -48t52.5 -132q0 -88 -58 -144.5t-148 -56.5z" />
<glyph unicode="&#x2039;" horiz-adv-x="363" d="M213 0l-188 240v29l188 240l106 -66l-140 -185l142 -187z" />
<glyph unicode="&#x203a;" horiz-adv-x="363" d="M338 240l-188 -240l-108 71l142 187l-140 185l106 66l188 -240v-29z" />
<glyph unicode="&#x2044;" horiz-adv-x="510" d="M-4 0l396 701h122l-395 -701h-123z" />
<glyph unicode="&#x20ac;" horiz-adv-x="703" d="M52 376v94h110q28 115 104.5 179t199.5 64q28 0 59 -3.5t67 -9t51 -7.5l-14 -98q-25 1 -78 10.5t-87 9.5q-130 0 -164 -145h295l-13 -94h-293v-12q0 -30 1 -44h275l-12 -94h-247q40 -136 183 -136q43 0 78 5t49 9l13 5l29 -86q-55 -33 -173 -33q-133 0 -216.5 63 t-110.5 173h-106v94h95v9q0 31 1 47h-96z" />
<glyph unicode="&#x2116;" horiz-adv-x="1175" d="M750 53v104h342v-104h-342zM919 300q30 0 47 34.5t17 93.5q0 62 -17 102.5t-51 40.5q-30 0 -46 -34.5t-16 -93.5q0 -61 17.5 -102t48.5 -41zM909 209q-85 0 -136.5 62t-51.5 154q0 102 54 169.5t152 67.5q85 0 135.5 -61.5t50.5 -154.5q0 -102 -53 -169.5t-151 -67.5z M565 -10l-335 459l-33 61h-3q7 -45 7 -71v-346l5 -93h-110v598l-6 103l101 5l334 -459q10 -14 18 -28t11 -21l3 -6l3 1q-5 28 -5 68v337l-6 103l111 5v-706z" />
<glyph unicode="&#x2122;" horiz-adv-x="835" d="M356 383v230l-6 88l100 4l74 -108q13 -19 21.5 -37t10.5 -26l3 -8h2q13 38 36 77l64 106l95 -4v-250l4 -72h-119v73q0 29 2 53t4 34l2 10l-3 1q-12 -29 -25 -49l-58 -87h-40l-57 78q-9 12 -18.5 28.5t-14.5 27.5l-5 10l-2 -1q14 -35 14 -88v-26l4 -64h-88zM128 382v243 l-85 -6l3 82h282l-3 -82l-81 6v-170l3 -73h-119z" />
<glyph unicode="&#x212e;" horiz-adv-x="818" d="M413 -53q-150 0 -255.5 95t-105.5 230q0 134 105.5 229.5t255.5 95.5q149 0 255 -95.5t106 -229.5v-9h-585q-5 0 -5 -4v-177q0 -12 8 -20q91 -96 222 -96q138 0 232 107h53q-51 -58 -126 -92t-160 -34zM189 281h448q5 0 5 5v178q0 11 -10 21q-90 92 -218 92 q-129 0 -221 -95q-9 -9 -9 -22v-174q0 -5 5 -5z" />
<glyph unicode="&#x2139;" horiz-adv-x="402" d="M57 -1v27q35 0 54 13.5t19 36.5v232q0 45 -72 54v35l228 26l-1 -343q0 -46 71 -52v-28zM210 474q-33 0 -56.5 21t-23.5 55q0 37 22 60.5t56 23.5q33 0 56 -23t23 -56t-22.5 -57t-54.5 -24z" />
<glyph unicode="&#x2150;" horiz-adv-x="797" d="M114 -18l-75 69l581 659l76 -66zM653 -21l-124 30q44 116 148 278l-87 -6l-92 -7l4 107h264v-60q-68 -146 -113 -342zM136 324v281l-91 -3l-9 64l186 42l34 -2v-382h-120z" />
<glyph unicode="&#x2151;" horiz-adv-x="805" d="M618 388q64 0 109 -41t45 -114q0 -111 -71 -179.5t-212 -79.5l-11 77q119 23 153 97q-26 -14 -64 -14q-58 0 -84.5 33.5t-26.5 78.5q0 66 42.5 104t119.5 38zM114 -18l-75 69l581 659l76 -66zM136 324v281l-91 -3l-9 64l186 42l34 -2v-382h-120zM619 211q7 0 14.5 2.5 t10.5 5.5l4 3q0 4 0.5 14t0.5 15q0 32 -9 52t-23 20q-17 0 -25 -18t-8 -41q0 -53 35 -53z" />
<glyph unicode="&#x2152;" horiz-adv-x="1143" d="M932 60q48 0 48 110q0 36 -1.5 58.5t-7 43.5t-16.5 31t-29 10q-50 0 -50 -111q0 -70 11.5 -106t44.5 -36zM930 -10q-79 0 -133 49t-54 137q0 103 54 156t141 53q73 0 124 -53t51 -136q0 -100 -51.5 -153t-131.5 -53zM137 324v281l-91 -3l-9 64l186 42l34 -2v-382h-120z M115 -18l-75 69l581 659l76 -66zM586 0v281l-91 -3l-9 64l186 42l34 -2v-382h-120z" />
<glyph unicode="&#x2153;" horiz-adv-x="835" d="M144 324v281l-91 -3l-9 64l186 42l34 -2v-382h-120zM142 -18l-75 69l581 659l76 -66zM618 -10q-36 0 -64.5 4t-39.5 8l-10 3l15 73q31 -10 72 -10q70 0 70 48q0 47 -84 47h-20l7 67h18q65 0 65 34q0 38 -56 38q-17 0 -34.5 -4t-26.5 -8l-10 -4v76q40 19 110 19 q64 0 102 -25t38 -76q0 -28 -19.5 -50t-54.5 -29q42 -6 66 -30.5t24 -61.5q0 -48 -41 -83.5t-127 -35.5z" />
<glyph unicode="&#x2154;" horiz-adv-x="895" d="M205 -18l-75 69l581 659l76 -66zM49 324v60l45 40q61 55 84.5 87.5t23.5 65.5q0 48 -63 48q-17 0 -35.5 -3t-27.5 -6l-10 -3v72q51 25 137 25q61 0 92 -29.5t31 -80.5t-34 -99t-117 -107l88 12q19 3 38.5 7.5t30.5 8.5l10 3l-3 -101h-290zM681 -10q-36 0 -64.5 4t-38.5 8 l-11 3l15 73q31 -10 72 -10q70 0 70 48q0 47 -84 47h-20l7 67h18q65 0 65 34q0 38 -56 38q-17 0 -34.5 -4t-27.5 -8l-9 -4v76q40 19 110 19q64 0 102 -25t38 -76q0 -28 -19.5 -50t-54.5 -29q42 -6 66 -30.5t24 -61.5q0 -48 -41 -83.5t-127 -35.5z" />
<glyph unicode="&#x2155;" horiz-adv-x="795" d="M114 -18l-75 69l581 659l76 -66zM586 -4q-50 0 -101 17l12 74q54 -15 81 -15q26 0 39 12t13 31q0 28 -31 48.5t-88 21.5l10 196h224l-5 -85q-27 5 -53 5l-103 1l-3 -48q71 -5 118 -37.5t47 -94.5q0 -58 -43 -92t-117 -34zM136 324v281l-91 -3l-9 64l186 42l34 -2v-382 h-120z" />
<glyph unicode="&#x2156;" horiz-adv-x="844" d="M195 -18l-75 69l581 659l76 -66zM39 324v60l45 40q61 55 84.5 87.5t23.5 65.5q0 48 -63 48q-17 0 -35.5 -3t-27.5 -6l-10 -3v72q51 25 137 25q61 0 92 -29.5t31 -80.5t-34 -99t-117 -107l88 12q19 3 38.5 7.5t30.5 8.5l10 3l-3 -101h-290zM629 -4q-50 0 -101 17l12 74 q54 -15 81 -15q26 0 39 12t13 31q0 28 -31 48.5t-88 21.5l10 196h224l-5 -85q-27 5 -53 5l-103 1l-3 -48q71 -5 118 -37.5t47 -94.5q0 -58 -43 -92t-117 -34z" />
<glyph unicode="&#x2157;" horiz-adv-x="814" d="M164 -18l-75 69l581 659l76 -66zM154 319q-36 0 -64.5 3.5t-39.5 7.5l-10 4l15 73q31 -10 72 -10q70 0 70 48q0 47 -84 47h-20l7 67h18q65 0 65 34q0 38 -56 38q-17 0 -34.5 -4t-26.5 -8l-10 -4v76q40 19 110 19q64 0 102 -25t38 -76q0 -28 -19.5 -50t-54.5 -29 q42 -6 66 -30.5t24 -61.5q0 -48 -41 -83.5t-127 -35.5zM600 -4q-50 0 -101 17l12 74q54 -15 81 -15q26 0 39 12t13 31q0 28 -31 48.5t-88 21.5l10 196h224l-5 -85q-27 5 -53 5l-103 1l-3 -48q71 -5 118 -37.5t47 -94.5q0 -58 -43 -92t-117 -34z" />
<glyph unicode="&#x2158;" horiz-adv-x="884" d="M222 -18l-75 69l581 659l76 -66zM199 316v75h-157l-16 57l180 282l106 -9v-251h63l-4 -79h-59v-23l2 -52h-115zM666 -4q-50 0 -101 17l12 74q54 -15 81 -15q26 0 39 12t13 31q0 28 -31 48.5t-88 21.5l10 196h224l-5 -85q-27 5 -53 5l-103 1l-3 -48q71 -5 118 -37.5 t47 -94.5q0 -58 -43 -92t-117 -34zM118 471l80 1v63l7 83h-4q-17 -41 -35 -70z" />
<glyph unicode="&#x2159;" horiz-adv-x="802" d="M598 -10q-64 0 -109 41t-45 114q0 111 71 179.5t212 79.5l11 -77q-120 -23 -154 -98q28 15 65 15q58 0 84.5 -33.5t26.5 -78.5q0 -66 -42.5 -104t-119.5 -38zM128 -18l-75 69l581 659l76 -66zM130 324v281l-91 -3l-9 64l186 42l34 -2v-382h-120zM597 167q-7 0 -14.5 -2.5 t-10.5 -5.5l-4 -3q-1 -10 -1 -29q0 -32 9 -52t23 -20q17 0 25 18t8 41q0 53 -35 53z" />
<glyph unicode="&#x215a;" horiz-adv-x="822" d="M619 -10q-64 0 -109 41t-45 114q0 111 71 179.5t212 79.5l11 -77q-120 -23 -154 -98q28 15 65 15q58 0 84.5 -33.5t26.5 -78.5q0 -66 -42.5 -104t-119.5 -38zM149 -18l-75 69l581 659l76 -66zM142 315q-50 0 -101 17l12 74q54 -15 81 -15q26 0 39 12t13 31q0 28 -31 48.5 t-88 21.5l10 196h224l-5 -85q-27 5 -53 5l-103 1l-3 -48q71 -5 118 -37.5t47 -94.5q0 -58 -43 -92t-117 -34zM618 167q-7 0 -14.5 -2.5t-11.5 -5.5l-3 -3q-1 -10 -1 -29q0 -32 9 -52t23 -20q17 0 25 18t8 41q0 53 -35 53z" />
<glyph unicode="&#x215b;" horiz-adv-x="836" d="M640 -11q-67 0 -105 26.5t-38 69.5q0 63 65 104q-54 45 -54 94q0 44 34.5 76t100.5 32q61 0 94.5 -27t33.5 -69q1 -49 -56 -87q70 -47 70 -104q0 -53 -37.5 -84t-107.5 -31zM142 -18l-75 69l581 659l76 -66zM144 324v281l-91 -3l-9 64l186 42l34 -2v-382h-120zM674 92 q0 14 -15.5 27.5t-46.5 33.5q-19 -35 -11.5 -65.5t40.5 -30.5q16 0 24.5 10t8.5 25zM611 291q0 -20 51 -50q17 27 12 50.5t-34 23.5q-13 0 -21 -7t-8 -17z" />
<glyph unicode="&#x215c;" horiz-adv-x="866" d="M664 -11q-73 0 -113 26t-40 75q0 60 65 99q-54 41 -54 87q0 53 37.5 84t107.5 31q62 0 100 -27.5t38 -68.5q1 -47 -62 -85q76 -49 76 -106q0 -54 -41.5 -84.5t-113.5 -30.5zM174 -18l-75 69l581 659l76 -66zM164 319q-36 0 -64.5 3.5t-39.5 7.5l-10 4l15 73 q31 -10 72 -10q70 0 70 48q0 47 -84 47h-20l7 67h18q65 0 65 34q0 38 -56 38q-17 0 -34.5 -4t-26.5 -8l-10 -4v76q40 19 110 19q64 0 102 -25t38 -76q0 -28 -19.5 -50t-54.5 -29q42 -6 66 -30.5t24 -61.5q0 -48 -41 -83.5t-127 -35.5zM698 92q0 22 -63 59q-11 -21 -11 -53 q0 -17 13 -29t28 -12q16 0 24.5 10t8.5 25zM635 294q0 -21 47 -49q10 21 11 44q1 9 -9 16.5t-19 7.5q-12 0 -21 -7t-9 -12z" />
<glyph unicode="&#x215d;" horiz-adv-x="838" d="M646 -11q-67 0 -105 26.5t-38 69.5q0 63 65 104q-54 45 -54 94q0 44 34.5 76t100.5 32q61 0 94.5 -27t33.5 -69q1 -49 -56 -87q70 -47 70 -104q0 -53 -37.5 -84t-107.5 -31zM150 -18l-75 69l581 659l76 -66zM153 315q-50 0 -101 17l12 74q54 -15 81 -15q26 0 39 12t13 31 q0 28 -31 48.5t-88 21.5l10 196h224l-5 -85q-27 5 -53 5l-103 1l-3 -48q71 -5 118 -37.5t47 -94.5q0 -58 -43 -92t-117 -34zM680 92q0 14 -15.5 27.5t-46.5 33.5q-19 -35 -11.5 -65.5t40.5 -30.5q16 0 24.5 10t8.5 25zM617 291q0 -20 51 -50q17 27 12 50.5t-34 23.5 q-13 0 -21 -7t-8 -17z" />
<glyph unicode="&#x215e;" horiz-adv-x="822" d="M625 -11q-67 0 -105 26.5t-38 69.5q0 63 65 104q-54 45 -54 94q0 44 34.5 76t100.5 32q61 0 94.5 -27t33.5 -69q1 -49 -56 -87q70 -47 70 -104q0 -53 -37.5 -84t-107.5 -31zM149 -18l-75 69l581 659l76 -66zM204 298l-124 30q44 116 148 278l-87 -6l-92 -7l4 107h264v-60 q-68 -146 -113 -342zM659 92q0 14 -15.5 27.5t-46.5 33.5q-19 -35 -11.5 -65.5t40.5 -30.5q16 0 24.5 10t8.5 25zM596 291q0 -20 51 -50q17 27 12 50.5t-34 23.5q-13 0 -21 -7t-8 -17z" />
<glyph unicode="&#x215f;" horiz-adv-x="729" d="M147 324v281l-91 -3l-9 64l186 42l34 -2v-382h-120zM125 -18l-75 69l581 659l76 -66z" />
<glyph unicode="&#x2192;" horiz-adv-x="785" d="M541 9l-64 34q15 33 49.5 80.5t72.5 82.5h-529v74h535l-4 3q-39 35 -74 83.5t-50 81.5l64 34q49 -90 143 -176l50 -46v-29l-50 -46q-94 -86 -143 -176z" />
<glyph unicode="&#x2194;" horiz-adv-x="965" d="M721 9l-64 34q15 33 49.5 80.5t72.5 82.5h-593q38 -35 72.5 -82.5t49.5 -80.5l-64 -34q-49 90 -143 176l-50 46v29l50 46q94 86 143 176l64 -34q-15 -33 -50 -81.5t-74 -83.5l-4 -3h605l-4 3q-39 35 -74 83.5t-50 81.5l64 34q49 -90 143 -176l50 -46v-29l-50 -46 q-94 -86 -143 -176z" />
<glyph unicode="&#x2195;" horiz-adv-x="579" d="M272 -186l-46 50q-89 97 -173 143l34 59q31 -15 79.5 -50.5t85.5 -76.5v613q-38 -41 -86.5 -77.5t-78.5 -49.5l-34 59q84 46 173 143l46 50h29l46 -50q83 -90 179 -143l-34 -59q-29 13 -80 51t-87 77v-615q36 38 86.5 76t80.5 52l34 -59q-96 -53 -179 -143l-46 -50h-29z " />
<glyph unicode="&#x2206;" horiz-adv-x="655" d="M171 88h306l-127 343q-6 16 -10.5 35t-6.5 30l-2 11h-2q1 0 -2 -12t-8.5 -30.5t-10.5 -32.5zM53 0l-18 29l285 671h52l245 -673l-15 -27h-549z" />
<glyph unicode="&#x2212;" horiz-adv-x="527" d="M78 234v102h371v-102h-371z" />
<glyph unicode="&#x221a;" horiz-adv-x="692" d="M262 -5l-149 414h-86v91h195l96 -292q8 -24 14.5 -49t9.5 -38l3 -13h4q6 48 29 117l175 525h143l-284 -750z" />
<glyph unicode="&#x221e;" horiz-adv-x="758" d="M399 352q73 82 154 82q58 0 101 -39t43 -95q0 -72 -47 -113.5t-105 -41.5q-95 0 -186 81q-73 -82 -154 -82q-58 0 -101 39t-43 95q0 72 47 113.5t105 41.5q95 0 186 -81zM210 235q23 0 46.5 8.5t35.5 16.5l12 9q-59 61 -101 61q-20 0 -33 -13t-13 -33q0 -22 14.5 -35.5 t38.5 -13.5zM548 343q-23 0 -46.5 -8.5t-35.5 -16.5l-12 -9q59 -61 101 -61q20 0 33 14t13 37q0 20 -14.5 32t-38.5 12z" />
<glyph unicode="&#x2248;" horiz-adv-x="589" d="M386 298q-46 0 -100 22.5t-92 22.5q-22 0 -39.5 -8.5t-24.5 -17.5l-6 -9l-57 67q1 4 4 10t15 21.5t27 27.5t41 22t57 10q53 0 102 -22.5t82 -22.5q25 0 43 8.5t24 17.5l5 9l55 -67q-1 -4 -4 -10t-14.5 -21.5t-25.5 -27.5t-38.5 -22t-53.5 -10zM386 106q-46 0 -100 22.5 t-92 22.5q-22 0 -39.5 -8.5t-24.5 -17.5l-6 -9l-57 67q1 4 4 10t15 21.5t27 27.5t41 22t57 10q53 0 102 -22.5t82 -22.5q25 0 43 8.5t24 17.5l5 9l55 -67q-1 -4 -4 -10t-14.5 -21.5t-25.5 -27.5t-38.5 -22t-53.5 -10z" />
<glyph unicode="&#x2260;" horiz-adv-x="549" d="M70 332v104h240l95 144l96 -70l-49 -74h29v-104h-98l-70 -106h168v-104h-236l-97 -147l-96 69l51 78h-33v104h102l70 106h-172z" />
<glyph unicode="&#x2264;" horiz-adv-x="503" d="M66 42v112h314l-314 131v59l348 165v-127l-147 -64l147 -52v-224h-348z" />
<glyph unicode="&#x2265;" horiz-adv-x="503" d="M89 42v224l147 52l-147 64v127l348 -165v-59l-315 -131h315v-112h-348z" />
<glyph unicode="&#x25a0;" horiz-adv-x="635" d="M563 85q-280 31 -490 1l-22 22q30 210 -1 489l23 23q279 -31 489 -1l22 -22q-30 -210 1 -490z" />
<glyph unicode="&#x25b2;" horiz-adv-x="723" d="M50 92v25l300 486h24l299 -486v-25h-623z" />
<glyph unicode="&#x25bc;" horiz-adv-x="723" d="M350 92l-300 486v25h623v-25l-299 -486h-24z" />
<glyph unicode="&#x25c6;" horiz-adv-x="534" d="M257 134q-102 131 -207 209v19q104 77 207 208h20q103 -131 207 -208v-19q-105 -78 -207 -209h-20z" />
<glyph unicode="&#x25ca;" horiz-adv-x="622" d="M265 -15l-245 333v51l245 331h92l245 -333v-51l-245 -331h-92zM317 121l145 215l-158 225l-146 -209z" />
<glyph unicode="&#x25cf;" horiz-adv-x="637" d="M318 83q-111 0 -189.5 78.5t-78.5 189.5t78.5 190t189.5 79t190 -79t79 -190t-79 -189.5t-190 -78.5z" />
<glyph unicode="&#x25fc;" horiz-adv-x="505" d="M0 505h505v-505h-505v505z" />
<glyph unicode="&#x2715;" horiz-adv-x="845" d="M183 466l-116 116l126 126l116 -116l-29 -29l148 -149l144 145l-29 30l126 126l116 -116l-126 -126l-25 25l-145 -146l147 -146l29 29l115 -114l-127 -128l-114 116l29 29l-145 148l-146 -146l25 -24l-126 -126l-116 116l126 126l29 -29l146 144l-149 148z" />
<glyph unicode="&#x271a;" horiz-adv-x="799" d="M301 0v256h-251v186h251v257h196v-257h252v-186h-252v-256h-196z" />
<glyph unicode="&#x271b;" horiz-adv-x="799" d="M331 0v286h-281v126h281v287h136v-287h282v-126h-282v-286h-136zM341 296h116v106h-116v-106z" />
<glyph unicode="&#x271c;" horiz-adv-x="799" d="M301 0v256h-251v186h251v257h196v-257h252v-186h-252v-256h-196zM311 266h176v166h-176v-166z" />
<glyph unicode="&#x2722;" horiz-adv-x="795" d="M598 273v39l-162 1v-168h39v-145h-154v145h44v167h-170v-39h-145v151h145v-36h170v168h-44v145h154v-145h-39v-168h162v36h147l-1 -151h-146z" />
<glyph unicode="&#x2723;" horiz-adv-x="921" d="M735 213q-47 0 -83 27.5t-47 71.5l-108 1v-109q43 -13 70 -49t27 -81q0 -56 -40 -95.5t-96 -39.5t-95.5 39.5t-39.5 95.5q0 48 29 84.5t74 47.5v106h-110q-12 -44 -48.5 -71.5t-82.5 -27.5q-56 0 -95.5 39.5t-39.5 95.5t39.5 96t95.5 40q45 0 81 -27t49 -69h111v110 q-45 11 -74 47t-29 84q0 56 39.5 96t95.5 40t96 -40t40 -96q0 -46 -27 -81.5t-70 -47.5v-112h109q13 42 48.5 69t80.5 27q56 0 96 -40t40 -96t-40 -95.5t-96 -39.5zM458 571q24 0 41.5 17t17.5 41t-17.5 41.5t-41.5 17.5t-41 -17.5t-17 -41.5t17 -41t41 -17zM735 290 q24 0 41.5 17t17.5 41t-17.5 41.5t-41.5 17.5t-41 -17.5t-17 -41.5t17 -41t41 -17zM458 16q24 0 41.5 17t17.5 41t-17.5 41.5t-41.5 17.5t-41 -17.5t-17 -41.5t17 -41t41 -17zM185 290q24 0 41.5 17t17.5 41t-17.5 41.5t-41.5 17.5t-41 -17.5t-17 -41.5t17 -41t41 -17z" />
<glyph unicode="&#x2724;" horiz-adv-x="865" d="M708 242q-35 0 -62 19.5t-38 50.5l-139 1v-141q30 -11 49 -38.5t19 -60.5q0 -44 -31.5 -75t-75.5 -31t-75 31t-31 75q0 35 20.5 63t53.5 39v137h-142q-11 -31 -38.5 -50.5t-61.5 -19.5q-44 0 -75 31t-31 75t31 75.5t75 31.5q33 0 60 -18.5t39 -48.5h143v140 q-33 10 -53.5 37.5t-20.5 63.5q0 44 31 75.5t75 31.5t75.5 -31.5t31.5 -75.5q0 -33 -19 -60.5t-49 -38.5v-142h140q12 30 39 48.5t60 18.5q44 0 75.5 -31.5t31.5 -75.5t-31.5 -75t-75.5 -31z" />
<glyph unicode="&#x2725;" horiz-adv-x="865" d="M708 242q-15 0 -42.5 22.5t-46.5 48.5l-157 10l10 -162q25 -20 46.5 -46.5t21.5 -40.5q0 -22 -42.5 -64t-64.5 -42t-64 42t-42 64q0 14 21.5 40.5t46.5 46.5l10 162l-159 -10q-20 -26 -48 -48.5t-42 -22.5q-22 0 -64 42t-42 64t42 64.5t64 42.5q14 0 40 -21t46 -46 l163 -10l-10 157q-25 20 -46.5 46.5t-21.5 40.5q0 22 42 64.5t64 42.5t64.5 -42.5t42.5 -64.5q0 -14 -21.5 -40.5t-46.5 -46.5l-10 -157l160 10q20 25 46 46t40 21q22 0 64.5 -42.5t42.5 -64.5t-42.5 -64t-64.5 -42z" />
<glyph unicode="&#x2726;" horiz-adv-x="825" d="M411 -10q-47 0 -135 69t-157 157t-69 135t69 135.5t157 158.5t135 70t135.5 -70t158.5 -158.5t70 -135.5t-70 -135t-158.5 -157t-135.5 -69z" />
<glyph unicode="&#x2727;" horiz-adv-x="822" d="M395 -10q-173 218 -345 347v31q172 129 345 347h32q173 -218 345 -347v-31q-172 -129 -345 -347h-32z" />
<glyph unicode="&#x2756;" horiz-adv-x="826" d="M213 181q-81 104 -163 164v15q84 64 163 164h16q79 -100 163 -164v-15q-82 -60 -163 -164h-16zM405 -10q-79 103 -163 165v15q80 58 163 164h16q81 -104 163 -164v-15q-86 -65 -163 -165h-16zM406 371q-79 103 -163 165v15q82 61 163 164h16q79 -100 163 -164v-15 q-86 -65 -163 -165h-16zM597 181q-81 104 -163 164v15q84 64 163 164h16q81 -103 163 -164v-15q-80 -58 -163 -164h-16z" />
<glyph unicode="&#x2766;" horiz-adv-x="885" d="M481 -9q-117 2 -196.5 81t-79.5 213q0 63 17.5 110t45.5 71.5t62 35t67 6t61 -20.5q-3 47 -18 84q-52 -15 -89 -15q-128 0 -166 138q-85 -36 -85 -151h-50q0 102 60 157t146 55q63 0 120 -32t92 -92q16 6 63 24t73 25.5t68 17t82 7.5t81 -13l-10 -50q-19 5 -38 7.5 t-39.5 2t-36 -1.5t-39 -6.5t-35.5 -8t-38.5 -11t-35.5 -11.5t-38.5 -13.5t-36.5 -13.5q17 -47 20 -101q30 21 69.5 23t74 -13t58.5 -51t24 -85q0 -55 -23.5 -98.5t-57.5 -68.5t-68 -43t-57.5 -32t-23.5 -26q0 -27 39 -27q98 0 169 73l36 -33q-100 -116 -267 -113z" />
<glyph unicode="&#x2776;" horiz-adv-x="815" d="M408 -8q-152 0 -255 104.5t-103 257.5q0 152 103 257.5t255 105.5q151 0 254 -105.5t103 -257.5q0 -150 -104 -256t-253 -106zM378 515v-394h92v471h-37l-154 -41l7 -45z" />
<glyph unicode="&#x2777;" horiz-adv-x="815" d="M408 -8q-152 0 -255 104.5t-103 257.5q0 152 103 257.5t255 105.5q151 0 254 -105.5t103 -257.5q0 -150 -104 -256t-253 -106zM267 167v-46h282l5 67q-22 -1 -61 -3l-128 -6l39 43q71 76 103.5 130.5t32.5 113.5q0 61 -38 93t-101 32q-33 0 -62.5 -5.5t-42.5 -11.5 l-13 -6v-54q42 9 85 9q80 0 80 -75q0 -86 -114 -210z" />
<glyph unicode="&#x2778;" horiz-adv-x="815" d="M408 -8q-152 0 -255 104.5t-103 257.5q0 152 103 257.5t255 105.5q151 0 254 -105.5t103 -257.5q0 -150 -104 -256t-253 -106zM382 115q78 0 127 39.5t49 96.5q0 49 -33 81t-87 40q47 10 73.5 41.5t26.5 70.5q0 49 -41 77.5t-104 28.5q-28 0 -55 -6t-40 -12l-13 -5v-54 q45 11 86 11q45 0 61 -14.5t16 -41.5q0 -30 -24 -50.5t-59 -20.5h-22l-3 -62h25q39 0 69.5 -21t30.5 -57q0 -78 -102 -78q-16 0 -37.5 4t-34.5 8l-13 4l-12 -60q53 -20 116 -20z" />
<glyph unicode="&#x2779;" horiz-adv-x="815" d="M408 -8q-152 0 -255 104.5t-103 257.5q0 152 103 257.5t255 105.5q151 0 254 -105.5t103 -257.5q0 -150 -104 -256t-253 -106zM415 221v-104h89q-4 31 -4 61v43h57l5 63l-62 -1v307h-64l-223 -326l18 -43h184zM417 283l-124 -3l93 140l31 55h2q-2 -31 -2 -67v-125z" />
<glyph unicode="&#x277a;" horiz-adv-x="815" d="M408 -8q-152 0 -255 104.5t-103 257.5q0 152 103 257.5t255 105.5q151 0 254 -105.5t103 -257.5q0 -150 -104 -256t-253 -106zM388 114q76 0 122 41t46 102q0 145 -193 169l5 91l166 -4l3 72h-227l-12 -218q79 -7 122 -34.5t43 -71.5q0 -41 -26 -61.5t-70 -20.5 q-19 0 -40 2.5t-33 5.5l-12 3l-13 -56q54 -20 119 -20z" />
<glyph unicode="&#x277b;" horiz-adv-x="815" d="M408 -8q-152 0 -255 104.5t-103 257.5q0 152 103 257.5t255 105.5q151 0 254 -105.5t103 -257.5q0 -150 -104 -256t-253 -106zM400 116q72 0 114.5 44.5t42.5 108.5q0 63 -38 101.5t-95 38.5q-46 0 -86 -18q14 59 57 92.5t121 53.5l-14 58q-136 -21 -197.5 -92 t-61.5 -198q0 -83 40.5 -136t116.5 -53zM403 178q-32 0 -51.5 32t-19.5 90v30q30 18 65 18q34 0 52 -24.5t18 -64.5q0 -39 -17 -60t-47 -21z" />
<glyph unicode="&#x277c;" horiz-adv-x="815" d="M407 -9q-151 0 -254 105.5t-103 257.5q0 150 104 256t253 106q152 0 255 -104.5t103 -257.5q0 -152 -103 -257.5t-255 -105.5zM305 126l94 -20q33 137 64.5 238t84.5 214v27h-277l-5 -73q20 3 57 4l152 3q-133 -250 -170 -393z" />
<glyph unicode="&#x277d;" horiz-adv-x="815" d="M407 -9q-151 0 -254 105.5t-103 257.5q0 150 104 256t253 106q152 0 255 -104.5t103 -257.5q0 -152 -103 -257.5t-255 -105.5zM404 115q62 0 106.5 36.5t44.5 93.5q0 76 -86 131q74 47 73 111q-2 49 -35.5 77.5t-91.5 28.5q-65 0 -105 -31.5t-40 -84.5q0 -38 19 -64 t54 -49q-85 -44 -85 -127q0 -58 40 -90t106 -32zM334 249q0 55 53 87q40 -24 60.5 -45.5t20.5 -51.5q0 -29 -17.5 -45t-49.5 -16q-27 0 -47 18t-20 53zM465 481q0 -43 -41 -77q-66 42 -66 79q0 20 15 33.5t41 13.5q23 0 37.5 -13.5t13.5 -35.5z" />
<glyph unicode="&#x277e;" horiz-adv-x="815" d="M407 -9q-151 0 -254 105.5t-103 257.5q0 150 104 256t253 106q152 0 255 -104.5t103 -257.5q0 -152 -103 -257.5t-255 -105.5zM418 590q-72 0 -114.5 -44.5t-42.5 -108.5q0 -63 38 -102t95 -39q46 0 86 17q-14 -60 -57 -92.5t-122 -53.5l15 -58q260 43 260 291 q0 90 -42 140t-116 50zM486 412v-37q-30 -18 -65 -18q-31 0 -51 21t-20 63q0 38 17 62.5t47 24.5q35 0 53.5 -30.5t18.5 -85.5z" />
<glyph unicode="&#x277f;" horiz-adv-x="815" d="M407 -9q-151 0 -254 105.5t-103 257.5q0 150 104 256t253 106q152 0 255 -104.5t103 -257.5q0 -152 -103 -257.5t-255 -105.5zM409 179q-71 0 -71 194q0 154 69 154q70 0 70 -194q0 -29 -3 -54.5t-10.5 -49t-21.5 -37t-33 -13.5zM400 116q84 0 127.5 67.5t43.5 183.5 q0 90 -41.5 156t-114.5 66q-83 0 -126.5 -67t-43.5 -183q0 -90 41.5 -156.5t113.5 -66.5z" />
<glyph unicode="&#x2780;" horiz-adv-x="815" d="M408 26q135 0 229 96t94 232q0 138 -93 233.5t-230 95.5t-231 -95.5t-94 -233.5t93.5 -233t231.5 -95zM408 -8q-152 0 -255 104.5t-103 257.5q0 152 103 257.5t255 105.5q151 0 254 -105.5t103 -257.5q0 -150 -104 -256t-253 -106zM378 121v394l-92 -9l-7 45l154 41h37 v-471h-92z" />
<glyph unicode="&#x2781;" horiz-adv-x="815" d="M408 26q135 0 229 96t94 232q0 138 -93 233.5t-230 95.5t-231 -95.5t-94 -233.5t93.5 -233t231.5 -95zM408 -8q-152 0 -255 104.5t-103 257.5q0 152 103 257.5t255 105.5q151 0 254 -105.5t103 -257.5q0 -150 -104 -256t-253 -106zM267 121v46l67 71q114 124 114 210 q0 75 -80 75q-19 0 -40.5 -2.5t-33.5 -4.5l-11 -2v54q44 23 118 23q63 0 101 -32t38 -93q0 -59 -32.5 -113.5t-103.5 -130.5l-39 -43l128 6l61 3l-5 -67h-282z" />
<glyph unicode="&#x2782;" horiz-adv-x="815" d="M408 26q135 0 229 96t94 232q0 138 -93 233.5t-230 95.5t-231 -95.5t-94 -233.5t93.5 -233t231.5 -95zM408 -8q-152 0 -255 104.5t-103 257.5q0 152 103 257.5t255 105.5q151 0 254 -105.5t103 -257.5q0 -150 -104 -256t-253 -106zM382 115q-28 0 -57 5t-44 10l-15 5 l12 60q48 -16 85 -16q102 0 102 78q0 36 -30.5 57t-69.5 21h-25l3 62h22q35 0 59 20.5t24 50.5q0 27 -16 41.5t-61 14.5q-18 0 -39.5 -3t-33.5 -5l-13 -3v54q45 23 108 23t104 -28.5t41 -77.5q0 -39 -26.5 -70.5t-73.5 -41.5q54 -8 87 -40t33 -81q0 -57 -49 -96.5 t-127 -39.5z" />
<glyph unicode="&#x2783;" horiz-adv-x="815" d="M408 26q135 0 229 96t94 232q0 138 -93 233.5t-230 95.5t-231 -95.5t-94 -233.5t93.5 -233t231.5 -95zM408 -8q-152 0 -255 104.5t-103 257.5q0 152 103 257.5t255 105.5q151 0 254 -105.5t103 -257.5q0 -150 -104 -256t-253 -106zM415 117v104h-184l-18 43l223 326h64 v-307l62 1l-5 -63h-57v-43l4 -61h-89zM293 280l124 3v125l2 67h-2q-9 -20 -31 -55z" />
<glyph unicode="&#x2784;" horiz-adv-x="815" d="M408 26q135 0 229 96t94 232q0 138 -93 233.5t-230 95.5t-231 -95.5t-94 -233.5t93.5 -233t231.5 -95zM408 -8q-152 0 -255 104.5t-103 257.5q0 152 103 257.5t255 105.5q151 0 254 -105.5t103 -257.5q0 -150 -104 -256t-253 -106zM388 114q-65 0 -119 20l13 56 q43 -11 85 -11q44 0 70 20.5t26 61.5q0 44 -43 71.5t-122 34.5l12 218h227l-3 -72l-166 4l-5 -91q193 -24 193 -169q0 -61 -46 -102t-122 -41z" />
<glyph unicode="&#x2785;" horiz-adv-x="815" d="M408 26q135 0 229 96t94 232q0 138 -93 233.5t-230 95.5t-231 -95.5t-94 -233.5t93.5 -233t231.5 -95zM408 -8q-152 0 -255 104.5t-103 257.5q0 152 103 257.5t255 105.5q151 0 254 -105.5t103 -257.5q0 -150 -104 -256t-253 -106zM400 116q-76 0 -116.5 53t-40.5 136 q0 127 61.5 198t197.5 92l14 -58q-78 -20 -121 -53.5t-57 -92.5q40 18 86 18q57 0 95 -38.5t38 -101.5q0 -64 -42.5 -108.5t-114.5 -44.5zM403 178q30 0 47 21t17 60q0 40 -18 64.5t-52 24.5q-35 0 -65 -18v-30q0 -58 19.5 -90t51.5 -32z" />
<glyph unicode="&#x2786;" horiz-adv-x="815" d="M408 26q135 0 229 96t94 232q0 138 -93 233.5t-230 95.5t-231 -95.5t-94 -233.5t93.5 -233t231.5 -95zM408 -8q-152 0 -255 104.5t-103 257.5q0 152 103 257.5t255 105.5q151 0 254 -105.5t103 -257.5q0 -150 -104 -256t-253 -106zM399 106l-94 20q37 143 170 393 l-152 -3l-57 -4l5 73h277v-27q-53 -113 -84.5 -214t-64.5 -238z" />
<glyph unicode="&#x2787;" horiz-adv-x="815" d="M408 26q135 0 229 96t94 232q0 138 -93 233.5t-230 95.5t-231 -95.5t-94 -233.5t93.5 -233t231.5 -95zM408 -8q-152 0 -255 104.5t-103 257.5q0 152 103 257.5t255 105.5q151 0 254 -105.5t103 -257.5q0 -150 -104 -256t-253 -106zM404 115q-66 0 -106 32t-40 90 q0 83 85 127q-35 23 -54 49t-19 64q0 53 40 84.5t105 31.5q58 0 91.5 -28.5t35.5 -77.5q1 -64 -73 -111q86 -55 86 -131q0 -57 -44.5 -93.5t-106.5 -36.5zM334 249q0 -35 20 -53t47 -18q32 0 49.5 16t17.5 45q0 30 -20.5 51.5t-60.5 45.5q-53 -32 -53 -87zM465 481 q1 22 -13.5 35.5t-37.5 13.5q-26 0 -41 -13.5t-15 -33.5q0 -37 66 -79q41 34 41 77z" />
<glyph unicode="&#x2788;" horiz-adv-x="815" d="M408 26q135 0 229 96t94 232q0 138 -93 233.5t-230 95.5t-231 -95.5t-94 -233.5t93.5 -233t231.5 -95zM408 -8q-152 0 -255 104.5t-103 257.5q0 152 103 257.5t255 105.5q151 0 254 -105.5t103 -257.5q0 -150 -104 -256t-253 -106zM418 590q74 0 116 -50t42 -140 q0 -248 -260 -291l-15 58q79 21 122 53.5t57 92.5q-40 -17 -86 -17q-57 0 -95 39t-38 102q0 64 42.5 108.5t114.5 44.5zM486 375v37q0 55 -18.5 85.5t-53.5 30.5q-30 0 -47 -24.5t-17 -62.5q0 -42 20 -63t51 -21q35 0 65 18z" />
<glyph unicode="&#x2789;" horiz-adv-x="815" d="M408 26q135 0 229 96t94 232q0 138 -93 233.5t-230 95.5t-231 -95.5t-94 -233.5t93.5 -233t231.5 -95zM408 -8q-152 0 -255 104.5t-103 257.5q0 152 103 257.5t255 105.5q151 0 254 -105.5t103 -257.5q0 -150 -104 -256t-253 -106zM409 179q19 0 33 13.5t21.5 37t10.5 49 t3 54.5q0 194 -70 194q-69 0 -69 -154q0 -194 71 -194zM400 116q-72 0 -113.5 66.5t-41.5 156.5q0 116 43.5 183t126.5 67q73 0 114.5 -66t41.5 -156q0 -116 -43.5 -183.5t-127.5 -67.5z" />
<glyph unicode="&#x278a;" horiz-adv-x="815" d="M86 0l-30 29v642l30 29h643l29 -29v-643l-29 -28h-643zM378 515v-394h92v471h-37l-154 -41l7 -45z" />
<glyph unicode="&#x278b;" horiz-adv-x="815" d="M86 0l-30 29v642l30 29h643l29 -29v-643l-29 -28h-643zM267 167v-46h282l5 67q-22 -1 -61 -3l-128 -6l39 43q71 76 103.5 130.5t32.5 113.5q0 61 -38 93t-101 32q-33 0 -62.5 -5.5t-42.5 -11.5l-13 -6v-54q42 9 85 9q80 0 80 -75q0 -86 -114 -210z" />
<glyph unicode="&#x278c;" horiz-adv-x="815" d="M86 0l-30 29v642l30 29h643l29 -29v-643l-29 -28h-643zM382 115q78 0 127 39.5t49 96.5q0 49 -33 81t-87 40q47 10 73.5 41.5t26.5 70.5q0 49 -41 77.5t-104 28.5q-28 0 -55 -6t-40 -12l-13 -5v-54q45 11 86 11q45 0 61 -14.5t16 -41.5q0 -30 -24 -50.5t-59 -20.5h-22 l-3 -62h25q39 0 69.5 -21t30.5 -57q0 -78 -102 -78q-16 0 -37.5 4t-34.5 8l-13 4l-12 -60q53 -20 116 -20z" />
<glyph unicode="&#x278d;" horiz-adv-x="815" d="M86 0l-30 29v642l30 29h643l29 -29v-643l-29 -28h-643zM415 221v-104h89q-4 31 -4 61v43h57l5 63l-62 -1v307h-64l-223 -326l18 -43h184zM417 283l-124 -3l93 140l31 55h2q-2 -31 -2 -67v-125z" />
<glyph unicode="&#x278e;" horiz-adv-x="815" d="M86 0l-30 29v642l30 29h643l29 -29v-643l-29 -28h-643zM388 114q76 0 122 41t46 102q0 145 -193 169l5 91l166 -4l3 72h-227l-12 -218q79 -7 122 -34.5t43 -71.5q0 -41 -26 -61.5t-70 -20.5q-19 0 -40 2.5t-33 5.5l-12 3l-13 -56q54 -20 119 -20z" />
<glyph unicode="&#x278f;" horiz-adv-x="815" d="M86 0l-30 29v642l30 29h643l29 -29v-643l-29 -28h-643zM400 116q72 0 114.5 44.5t42.5 108.5q0 63 -38 101.5t-95 38.5q-46 0 -86 -18q14 59 57 92.5t121 53.5l-14 58q-136 -21 -197.5 -92t-61.5 -198q0 -83 40.5 -136t116.5 -53zM403 178q-32 0 -51.5 32t-19.5 90v30 q30 18 65 18q34 0 52 -24.5t18 -64.5q0 -39 -17 -60t-47 -21z" />
<glyph unicode="&#x2790;" horiz-adv-x="815" d="M86 0l-30 29v642l30 29h643l29 -29v-643l-29 -28h-643zM305 126l94 -20q33 137 64.5 238t84.5 214v27h-277l-5 -73q20 3 57 4l152 3q-133 -250 -170 -393z" />
<glyph unicode="&#x2791;" horiz-adv-x="815" d="M86 0l-30 29v642l30 29h643l29 -29v-643l-29 -28h-643zM404 115q62 0 106.5 36.5t44.5 93.5q0 76 -86 131q74 47 73 111q-2 49 -35.5 77.5t-91.5 28.5q-65 0 -105 -31.5t-40 -84.5q0 -38 19 -64t54 -49q-85 -44 -85 -127q0 -58 40 -90t106 -32zM334 249q0 55 53 87 q40 -24 60.5 -45.5t20.5 -51.5q0 -29 -17.5 -45t-49.5 -16q-27 0 -47 18t-20 53zM465 481q0 -43 -41 -77q-66 42 -66 79q0 20 15 33.5t41 13.5q23 0 37.5 -13.5t13.5 -35.5z" />
<glyph unicode="&#x2792;" horiz-adv-x="815" d="M86 0l-30 29v642l30 29h643l29 -29v-643l-29 -28h-643zM418 590q-72 0 -114.5 -44.5t-42.5 -108.5q0 -63 38 -102t95 -39q46 0 86 17q-14 -60 -57 -92.5t-122 -53.5l15 -58q260 43 260 291q0 90 -42 140t-116 50zM486 412v-37q-30 -18 -65 -18q-31 0 -51 21t-20 63 q0 38 17 62.5t47 24.5q35 0 53.5 -30.5t18.5 -85.5z" />
<glyph unicode="&#x2793;" horiz-adv-x="815" d="M86 0l-30 29v642l30 29h643l29 -29v-643l-29 -28h-643zM409 179q-71 0 -71 194q0 154 69 154q70 0 70 -194q0 -29 -3 -54.5t-10.5 -49t-21.5 -37t-33 -13.5zM400 116q84 0 127.5 67.5t43.5 183.5q0 90 -41.5 156t-114.5 66q-83 0 -126.5 -67t-43.5 -183 q0 -90 41.5 -156.5t113.5 -66.5z" />
<glyph unicode="&#x2794;" horiz-adv-x="793" d="M477 43q12 26 54.5 74.5t86.5 88.5h-542v74h545l-4 3q-43 39 -85 88.5t-55 76.5h90q50 -76 123 -142l50 -46v-29l-50 -46q-72 -67 -123 -142h-90z" />
<glyph unicode="&#x2799;" horiz-adv-x="785" d="M504 9v197h-434v74h434v202h37q49 -90 143 -176l50 -46v-29l-50 -46q-94 -86 -143 -176h-37z" />
<glyph unicode="&#x279b;" horiz-adv-x="779" d="M382 -3l-70 46q22 47 87 97t140 70l-475 1v69l475 1q-75 20 -140 70t-87 97l70 46q26 -47 137.5 -125t208.5 -109v-29q-97 -31 -208.5 -109t-137.5 -125z" />
<glyph unicode="&#x27b3;" horiz-adv-x="1179" d="M339 9l-64 34q15 33 50 81.5t74 83.5l42 37l-42 38q-39 35 -74 83.5t-50 81.5l64 34q49 -90 143 -176l29 -26h289v153h10q21 -7 56 -21t120 -61.5t142 -100.5v-9q-57 -52 -136.5 -97t-130.5 -64l-51 -19h-10v145h-295l-23 -21q-94 -86 -143 -176zM139 26l-65 35 q48 86 115 147l42 37l-42 38q-66 60 -116 150l65 34q46 -79 134 -161l50 -46v-29l-50 -46q-84 -77 -133 -159z" />
<glyph unicode="&#x27b4;" horiz-adv-x="971" d="M924 -131q-77 3 -165.5 27.5t-138.5 47.5l-49 22l-7 7l103 103l-209 209l-31 1q-125 6 -225 -23l-22 69q35 13 93.5 22.5t111.5 6.5l56 -4l-3 57q-3 52 6.5 110.5t22.5 93.5l69 -21q-29 -102 -23 -225l2 -39l204 -205l108 109l7 -8q10 -20 25 -54.5t41.5 -128 t29.5 -171.5zM72 416l-21 71q93 28 185 22l56 -3l-3 56q-4 87 24 189l70 -22q-23 -93 -19 -209l3 -68l-20 -20l-68 3q-115 4 -207 -19z" />
<glyph unicode="&#x27b5;" horiz-adv-x="1179" d="M840 9q-49 90 -143 176l-23 21h-295v-145h-10q-8 3 -21.5 7.5t-53 21.5t-76.5 36.5t-84 50.5t-83 64v9q57 53 136.5 98.5t130.5 65.5l51 19h10v-153h289l29 26q94 86 143 176l64 -34q-15 -33 -50 -81.5t-74 -83.5l-42 -38l42 -37q39 -35 74 -83.5t50 -81.5zM1040 26 q-49 82 -133 159l-50 46v29l50 46q88 82 134 161l65 -34q-50 -90 -116 -150l-42 -38l42 -37q67 -61 115 -147z" />
<glyph unicode="&#x27b6;" horiz-adv-x="975" d="M461 2q-13 35 -22.5 93.5t-6.5 110.5l3 57l-56 -4q-53 -3 -111.5 6.5t-93.5 22.5l22 69q100 -29 225 -23l31 1l209 209l-103 103l7 7q20 10 54.5 25t128 42t170.5 30l6 -6q-3 -78 -27 -166.5t-47 -138.5l-22 -49l-7 -8l-108 109l-204 -205l-2 -39q-6 -123 23 -225z M307 -131q-28 102 -24 189l3 56l-56 -3q-92 -6 -185 22l21 71q92 -23 207 -19l68 3l20 -20l-3 -68q-4 -116 19 -209z" />
<glyph unicode="&#x27bb;" horiz-adv-x="866" d="M622 9l-64 34q15 33 49.5 80.5t72.5 82.5h-163q-112 0 -233.5 -21.5t-205.5 -46.5v216q11 -2 75 -18t111.5 -26t120.5 -20t133 -10h168l-4 3q-39 35 -74 83.5t-50 81.5l64 34q49 -90 143 -176l50 -46v-29l-50 -46q-94 -86 -143 -176z" />
<glyph unicode="&#x27bc;" horiz-adv-x="897" d="M653 9l-64 34q15 33 49.5 80.5t72.5 82.5h-284q-15 -29 -61.5 -48t-101.5 -19h-192q5 1 14.5 6.5t23.5 16.5t24 30t10 41v24q0 30 -16 53.5t-28.5 31t-22.5 10.5h40h47.5t44.5 0.5t35 0.5h13q57 0 105.5 -20.5t64.5 -52.5h290l-4 3q-39 35 -74 83.5t-50 81.5l64 34 q49 -90 143 -176l50 -46v-29l-50 -46q-94 -86 -143 -176z" />
<glyph unicode="&#x27bd;" horiz-adv-x="901" d="M657 9l-64 34q15 33 49.5 80.5t72.5 82.5h-284l-54 -67h-301l72 84v44l-72 85l301 1l54 -73h290l-4 3q-39 35 -74 83.5t-50 81.5l64 34q49 -90 143 -176l50 -46v-29l-50 -46q-94 -86 -143 -176z" />
<glyph unicode="&#x27be;" horiz-adv-x="784" d="M531 27q47 82 135 162l47 42v27l-47 43q-90 81 -135 162l-60 -31q14 -31 47 -76t70 -77l4 -2h-505v-69h499q-36 -32 -68 -76t-47 -74zM540 2l-94 48q13 28 40.5 69t54.5 71h-473v105h477q-63 69 -99 145l94 48q51 -92 139 -174l53 -48v-43l-53 -48q-87 -80 -139 -173z " />
<glyph unicode="&#xf6c3;" horiz-adv-x="170" d="M95 -339l-66 39q32 39 45 94q-28 5 -45 26t-17 51q0 38 24 60t59 22q36 0 58 -22.5t22 -68.5q0 -104 -80 -201z" />
<glyph unicode="&#xfffd;" horiz-adv-x="1022" d="M511 132q35 0 71 30l-33 42q-11 -9 -21 -9q-7 0 -12 6.5t-5 13.5q0 14 15.5 30.5t37.5 33t44.5 36t38 48t15.5 60.5q0 49 -37.5 84t-117.5 35q-38 0 -69.5 -9.5t-43.5 -18.5l-13 -10v-62q46 38 115 38q41 0 64 -16.5t23 -44.5q0 -30 -23 -57.5t-50 -46t-50 -48t-23 -63.5 q0 -31 22 -51.5t52 -20.5zM501 -35q25 0 40 14t15 38q0 22 -13.5 34.5t-36.5 12.5q-25 0 -40.5 -13t-15.5 -36q0 -22 14 -36t37 -14zM511 -213l-481 480l481 482l481 -482z" />
<glyph horiz-adv-x="597" d="M447 -5l-49 125h-238q-23 -58 -36 -120h-107q13 60 70 200l161 401l101 6l196 -505l46 -102zM193 207h172l-62 162q-7 17 -12.5 36.5t-7.5 30.5l-2 11h-4q-8 -39 -24 -82z" />
<glyph horiz-adv-x="831" d="M-5 0q22 61 98 200l220 401h465l-5 -96q-6 1 -16 2t-37.5 3t-49.5 2l-171 1v-169l214 3l-5 -95l-209 4v-169l164 2l120 7l-5 -96h-412v120h-204q-38 -72 -54 -120h-113zM327 438l-120 -231h159v308h-7q-10 -35 -32 -77z" />
<glyph horiz-adv-x="831" d="M516 668l-70 73l160 181l97 -100zM-5 0q22 61 98 200l220 401h465l-5 -96q-6 1 -16 2t-37.5 3t-49.5 2l-171 1v-169l214 3l-5 -95l-209 4v-169l164 2l120 7l-5 -96h-412v120h-204q-38 -72 -54 -120h-113zM327 438l-120 -231h159v308h-7q-10 -35 -32 -77z" />
<glyph horiz-adv-x="597" d="M304 664l-70 73l160 181l97 -100zM447 -5l-49 125h-238q-23 -58 -36 -120h-107q13 60 70 200l161 401l101 6l196 -505l46 -102zM193 207h172l-62 162q-7 17 -12.5 36.5t-7.5 30.5l-2 11h-4q-8 -39 -24 -82z" />
<glyph horiz-adv-x="597" d="M447 -5l-49 125h-238q-23 -58 -36 -120h-107q13 60 70 200l161 401l101 6l196 -505l46 -102zM193 207h172l-62 162q-7 17 -12.5 36.5t-7.5 30.5l-2 11h-4q-8 -39 -24 -82zM288 664q-57 0 -100 33.5t-60 96.5l90 36l2 -4q1 -3 3.5 -7.5t6 -10t9.5 -11.5t12.5 -10.5 t16 -7.5t20.5 -3q15 0 27.5 5.5t20 13.5t12.5 15.5t8 13.5l2 6l92 -37q-17 -61 -62.5 -95t-99.5 -34z" />
<glyph horiz-adv-x="597" d="M174 655l-61 69l151 124h38l148 -118l-59 -73l-108 74zM447 -5l-49 125h-238q-23 -58 -36 -120h-107q13 60 70 200l161 401l101 6l196 -505l46 -102zM193 207h172l-62 162q-7 17 -12.5 36.5t-7.5 30.5l-2 11h-4q-8 -39 -24 -82z" />
<glyph horiz-adv-x="597" d="M145 661q-34 0 -55.5 22t-21.5 59q0 39 23.5 60.5t60.5 21.5q36 0 56 -20.5t20 -57.5q0 -41 -22.5 -63t-60.5 -22zM353 661q-34 0 -55.5 22t-21.5 59q0 39 23.5 60.5t60.5 21.5q36 0 56 -20.5t20 -57.5q0 -41 -22.5 -63t-60.5 -22zM447 -5l-49 125h-238q-23 -58 -36 -120 h-107q13 60 70 200l161 401l101 6l196 -505l46 -102zM193 207h172l-62 162q-7 17 -12.5 36.5t-7.5 30.5l-2 11h-4q-8 -39 -24 -82z" />
<glyph horiz-adv-x="597" d="M447 -5l-49 125h-238q-23 -58 -36 -120h-107q13 60 70 200l161 401l101 6l196 -505l46 -102zM193 207h172l-62 162q-7 17 -12.5 36.5t-7.5 30.5l-2 11h-4q-8 -39 -24 -82zM309 656l-187 154l96 101l160 -181z" />
<glyph horiz-adv-x="597" d="M447 -5l-49 125h-238q-23 -58 -36 -120h-107q13 60 70 200l161 401l101 6l196 -505l46 -102zM193 207h172l-62 162q-7 17 -12.5 36.5t-7.5 30.5l-2 11h-4q-8 -39 -24 -82zM163 666v104h274v-104h-274z" />
<glyph horiz-adv-x="597" d="M447 -5l-49 125h-238q-23 -58 -36 -120h-107q13 60 70 200l161 401l101 6l196 -505l46 -102h-8q-34 -16 -58 -41t-24 -49q0 -38 52 -38q14 0 29.5 3t24.5 5l9 3v-65q-36 -17 -82 -17q-62 0 -95.5 24.5t-33.5 65.5q0 35 26 63t61 43zM193 207h172l-62 162 q-7 17 -12.5 36.5t-7.5 30.5l-2 11h-4q-8 -39 -24 -82z" />
<glyph horiz-adv-x="597" d="M286 731q22 0 22 38q0 36 -22 36q-11 0 -18 -10t-7 -26t7.5 -27t17.5 -11zM286 658q-54 0 -89.5 30t-35.5 81t35.5 81t89.5 30t89 -30t35 -81t-35 -81t-89 -30zM447 -5l-49 125h-238q-23 -58 -36 -120h-107q13 60 70 200l161 401l101 6l196 -505l46 -102zM193 207h172 l-62 162q-7 17 -12.5 36.5t-7.5 30.5l-2 11h-4q-8 -39 -24 -82z" />
<glyph horiz-adv-x="597" d="M288 886l-63 66l144 164l88 -90zM282 727q21 0 21 36q0 34 -21 34q-10 0 -16.5 -9.5t-6.5 -24.5t6.5 -25.5t16.5 -10.5zM282 658q-51 0 -84.5 28.5t-33.5 76.5t33.5 77t84.5 29t84.5 -29t33.5 -77t-33.5 -76.5t-84.5 -28.5zM447 -5l-49 125h-238q-23 -58 -36 -120h-107 q13 60 70 200l161 401l101 6l196 -505l46 -102zM193 207h172l-62 162q-7 17 -12.5 36.5t-7.5 30.5l-2 11h-4q-8 -39 -24 -82z" />
<glyph horiz-adv-x="597" d="M447 -5l-49 125h-238q-23 -58 -36 -120h-107q13 60 70 200l161 401l101 6l196 -505l46 -102zM193 207h172l-62 162q-7 17 -12.5 36.5t-7.5 30.5l-2 11h-4q-8 -39 -24 -82zM349 671q-36 0 -72.5 18t-50.5 18q-16 0 -28 -12t-16 -27l-82 20q8 48 41 83.5t83 35.5 q38 0 73.5 -18t48.5 -18q15 0 25 12.5t13 26.5l80 -20q-9 -57 -41.5 -88t-73.5 -31z" />
<glyph horiz-adv-x="584" d="M92 0v524q0 46 -6 77h185q122 0 178 -44.5t56 -118.5q0 -44 -25.5 -81t-67.5 -50v-3q118 -33 118 -135q0 -75 -60 -122t-161 -47h-217zM225 90h76q42 0 66.5 22.5t24.5 64.5q0 37 -25.5 58.5t-63.5 21.5h-78v-167zM225 346h106q4 2 10 7t16 24.5t10 44.5q0 44 -25 66.5 t-70 22.5h-47v-165z" />
<glyph horiz-adv-x="572" d="M353 -10q-132 0 -214 77.5t-82 223.5q0 62 17.5 118t51 101.5t89 72.5t125.5 27q40 0 73.5 -6.5t71 -20t46.5 -16.5l-29 -98q-16 4 -46 16t-58 19t-63 7q-138 0 -138 -208q0 -214 168 -214q38 0 75 7.5t55 14.5l18 7l13 -87q-7 -5 -20.5 -11.5t-58.5 -18t-94 -11.5z" />
<glyph horiz-adv-x="572" d="M345 666l-70 73l160 181l97 -100zM353 -10q-132 0 -214 77.5t-82 223.5q0 62 17.5 118t51 101.5t89 72.5t125.5 27q40 0 73.5 -6.5t71 -20t46.5 -16.5l-29 -98q-16 4 -46 16t-58 19t-63 7q-138 0 -138 -208q0 -214 168 -214q38 0 75 7.5t55 14.5l18 7l13 -87 q-7 -5 -20.5 -11.5t-58.5 -18t-94 -11.5z" />
<glyph horiz-adv-x="572" d="M446 857l61 -69l-151 -124h-38l-148 118l59 73l108 -74zM353 -10q-132 0 -214 77.5t-82 223.5q0 62 17.5 118t51 101.5t89 72.5t125.5 27q40 0 73.5 -6.5t71 -20t46.5 -16.5l-29 -98q-16 4 -46 16t-58 19t-63 7q-138 0 -138 -208q0 -214 168 -214q38 0 75 7.5t55 14.5 l18 7l13 -87q-7 -5 -20.5 -11.5t-58.5 -18t-94 -11.5z" />
<glyph horiz-adv-x="573" d="M333 -200q-64 0 -116 20l24 61q39 -10 76 -10q33 0 33 22q0 13 -16 17t-42 -8l-13 15l27 76q-113 12 -181 89t-68 209q0 62 17.5 118t51 101.5t89 72.5t125.5 27q40 0 73.5 -6.5t71 -20t46.5 -16.5l-29 -98q-16 4 -46 16t-58 19t-63 7q-138 0 -138 -208q0 -214 168 -214 q38 0 75 7.5t55 14.5l18 7l13 -87q-56 -35 -152 -40v-23q41 -4 64.5 -23t23.5 -53q0 -41 -35.5 -66.5t-93.5 -25.5z" />
<glyph horiz-adv-x="572" d="M212 654l-61 69l151 124h38l148 -118l-59 -73l-108 74zM353 -10q-132 0 -214 77.5t-82 223.5q0 62 17.5 118t51 101.5t89 72.5t125.5 27q40 0 73.5 -6.5t71 -20t46.5 -16.5l-29 -98q-16 4 -46 16t-58 19t-63 7q-138 0 -138 -208q0 -214 168 -214q38 0 75 7.5t55 14.5 l18 7l13 -87q-7 -5 -20.5 -11.5t-58.5 -18t-94 -11.5z" />
<glyph horiz-adv-x="572" d="M353 -10q-132 0 -214 77.5t-82 223.5q0 62 17.5 118t51 101.5t89 72.5t125.5 27q40 0 73.5 -6.5t71 -20t46.5 -16.5l-29 -98q-16 4 -46 16t-58 19t-63 7q-138 0 -138 -208q0 -214 168 -214q38 0 75 7.5t55 14.5l18 7l13 -87q-7 -5 -20.5 -11.5t-58.5 -18t-94 -11.5z M338 662q-32 0 -55.5 23t-23.5 56q0 32 24.5 55.5t56.5 23.5q33 0 55.5 -23t22.5 -56t-24 -56t-56 -23z" />
<glyph horiz-adv-x="668" d="M92 0v523q0 45 -6 77h208q147 0 233 -74.5t86 -216.5q0 -151 -92.5 -230t-243.5 -79h-185zM225 92h60q100 0 145.5 61t45.5 155q0 101 -48.5 150.5t-170.5 49.5h-32v-416z" />
<glyph horiz-adv-x="668" d="M92 0v523q0 45 -6 77h208q147 0 233 -74.5t86 -216.5q0 -151 -92.5 -230t-243.5 -79h-185zM225 92h60q100 0 145.5 61t45.5 155q0 101 -48.5 150.5t-170.5 49.5h-32v-416zM403 855l61 -69l-151 -124h-38l-148 118l59 73l108 -74z" />
<glyph horiz-adv-x="700" d="M33 241v84h91v198q0 45 -6 77h208q147 0 233 -74.5t86 -216.5q0 -151 -92.5 -230t-243.5 -79h-185v241h-91zM257 92h60q102 0 146.5 53.5t44.5 151.5q0 108 -48 159.5t-171 51.5h-32v-183h80v-84h-80v-149z" />
<glyph horiz-adv-x="557" d="M92 0v498l-6 103h418l-5 -96q-32 5 -92 6l-182 2v-169l214 3l-5 -95l-209 4v-169l179 2l105 7l-5 -96h-412z" />
<glyph horiz-adv-x="557" d="M312 665l-70 73l160 181l97 -100zM92 0v498l-6 103h418l-5 -96q-32 5 -92 6l-182 2v-169l214 3l-5 -95l-209 4v-169l179 2l105 7l-5 -96h-412z" />
<glyph horiz-adv-x="557" d="M92 0v498l-6 103h418l-5 -96q-32 5 -92 6l-182 2v-169l214 3l-5 -95l-209 4v-169l179 2l105 7l-5 -96h-412zM303 665q-57 0 -100 33.5t-60 96.5l90 36l1 -3q2 -4 4.5 -8.5t6 -10t9.5 -11.5t12.5 -10.5t16 -7.5t20.5 -3q15 0 27.5 5.5t20 13.5t12.5 15.5t7 13.5l3 6 l92 -37q-17 -61 -62.5 -95t-99.5 -34z" />
<glyph horiz-adv-x="557" d="M409 855l61 -69l-151 -124h-38l-148 118l59 73l108 -74zM92 0v498l-6 103h418l-5 -96q-32 5 -92 6l-182 2v-169l214 3l-5 -95l-209 4v-169l179 2l105 7l-5 -96h-412z" />
<glyph horiz-adv-x="557" d="M183 654l-61 69l151 124h38l148 -118l-59 -73l-108 74zM92 0v498l-6 103h418l-5 -96q-32 5 -92 6l-182 2v-169l214 3l-5 -95l-209 4v-169l179 2l105 7l-5 -96h-412z" />
<glyph horiz-adv-x="557" d="M173 666q-34 0 -55.5 22t-21.5 59q0 39 23.5 60.5t60.5 21.5q36 0 56 -20.5t20 -57.5q0 -41 -22.5 -63t-60.5 -22zM381 666q-34 0 -55.5 22t-21.5 59q0 39 23.5 60.5t60.5 21.5q36 0 56 -20.5t20 -57.5q0 -41 -22.5 -63t-60.5 -22zM92 0v498l-6 103h418l-5 -96 q-32 5 -92 6l-182 2v-169l214 3l-5 -95l-209 4v-169l179 2l105 7l-5 -96h-412z" />
<glyph horiz-adv-x="557" d="M299 663q-32 0 -55.5 23t-23.5 56q0 32 24.5 55.5t56.5 23.5q33 0 55.5 -23t22.5 -56t-24 -56t-56 -23zM92 0v498l-6 103h418l-5 -96q-32 5 -92 6l-182 2v-169l214 3l-5 -95l-209 4v-169l179 2l105 7l-5 -96h-412z" />
<glyph horiz-adv-x="557" d="M339 662l-187 154l96 101l160 -181zM92 0v498l-6 103h418l-5 -96q-32 5 -92 6l-182 2v-169l214 3l-5 -95l-209 4v-169l179 2l105 7l-5 -96h-412z" />
<glyph horiz-adv-x="557" d="M171 662v104h274v-104h-274zM92 0v498l-6 103h418l-5 -96q-32 5 -92 6l-182 2v-169l214 3l-5 -95l-209 4v-169l179 2l105 7l-5 -96h-412z" />
<glyph horiz-adv-x="717" d="M463 -210l-78 62q10 14 37 48.5t37 49.5t21 39.5t12 46.5l-263 328q-10 13 -18.5 27.5t-12.5 22.5l-3 9l-4 -1q5 -31 5 -71v-231l5 -120h-110v511l-5 90l110 5l294 -370q7 -9 14.5 -22.5t11.5 -22.5l4 -9l5 1q-5 37 -5 61v241l-5 116l110 5l2 -515q0 -40 -8.5 -74.5 t-18 -57.5t-36.5 -57t-42.5 -51t-58.5 -61z" />
<glyph horiz-adv-x="557" d="M92 0v498l-6 103h418l-5 -96q-32 5 -92 6l-182 2v-169l214 3l-5 -95l-209 4v-169l179 2l105 7l-5 -96h-12q-33 -15 -55.5 -40t-22.5 -48q0 -38 52 -38q14 0 29.5 3t24.5 5l9 3v-65q-36 -17 -82 -17q-62 0 -95.5 24.5t-33.5 65.5q0 37 27.5 64.5t62.5 42.5h-316z" />
<glyph horiz-adv-x="700" d="M33 241v84h91v198q0 45 -6 77h208q147 0 233 -74.5t86 -216.5q0 -151 -92.5 -230t-243.5 -79h-185v241h-91zM257 92h60q102 0 146.5 53.5t44.5 151.5q0 108 -48 159.5t-171 51.5h-32v-183h80v-84h-80v-149z" />
<glyph horiz-adv-x="688" d="M66 296v94h114q30 78 95 125t154 47q40 0 73.5 -6.5t71 -20t46.5 -16.5l-29 -98q-17 5 -46 16.5t-56 18.5t-59 7q-84 0 -116 -73h202l-20 -94h-202v-22q0 -16 1 -24h191l-19 -94h-144q42 -67 131 -67q38 0 75 7.5t55 14.5l18 7l13 -87q-7 -5 -20.5 -11.5t-58.5 -18 t-94 -11.5q-97 0 -166 43.5t-98 122.5h-112v94h93v21q0 16 1 25h-94z" />
<glyph horiz-adv-x="659" d="M54 316v94h97q28 90 95.5 145t170.5 55q40 0 73.5 -6.5t71 -20t46.5 -16.5l-29 -98q-16 4 -46 16t-58 19t-63 7q-96 0 -126 -101h211l-6 -94h-217v-13q0 -30 1 -43h206l-6 -94h-175q38 -77 142 -77q38 0 75 7.5t55 14.5l18 7l13 -87q-7 -5 -20.5 -11.5t-58.5 -18 t-94 -11.5q-100 0 -172.5 44.5t-103.5 131.5h-100v94h81q-1 10 -1 31v25h-80z" />
<glyph d="M14 316v94h73q23 91 81 145.5t154 54.5q38 0 65.5 -5t58.5 -16.5t42 -14.5l-29 -98q-18 5 -43 14.5t-45.5 15t-45.5 5.5q-77 0 -101 -101h192l-21 -94h-181v-13q0 -23 1 -33h161l-21 -94h-123q30 -83 116 -83q32 0 62.5 6.5t45.5 12.5l14 6l13 -87q-6 -5 -17.5 -11.5 t-51.5 -18t-84 -11.5q-94 0 -156.5 48t-86.5 138h-73v94h60q-1 0 0 10v11v25h-60z" />
<glyph horiz-adv-x="510" d="M-6 376v94h86q26 115 96.5 179t186.5 64q35 0 86.5 -9.5t62.5 -10.5l-14 -98q-30 2 -71.5 10t-58.5 8q-123 0 -152 -143h238l-13 -94h-233v-12q0 -30 1 -44h215l-12 -94h-187q39 -126 161 -126q30 0 57 6t39 12l11 7l26 -97q-5 -4 -16 -10.5t-52 -17t-91 -10.5 q-115 0 -187.5 62.5t-96.5 173.5h-82v94h72v9q0 31 1 47h-73z" />
<glyph horiz-adv-x="518" d="M92 -5v503l-6 103h398l-5 -96q-46 7 -91 7l-163 1v-180l214 3l-5 -95l-209 4v-152l5 -93z" />
<glyph horiz-adv-x="649" d="M394 -10q-162 0 -251 76.5t-89 224.5q0 139 88.5 228.5t238.5 89.5q43 0 77 -6.5t74 -20t46 -15.5l-29 -98q-11 3 -42 14.5t-63.5 19t-71.5 7.5q-92 0 -136.5 -56.5t-44.5 -145.5q0 -223 198 -223q19 0 35.5 1.5t23.5 3.5l7 2v84q0 37 -5 89l133 5v-248q-90 -32 -189 -32 z" />
<glyph horiz-adv-x="649" d="M394 -10q-162 0 -251 76.5t-89 224.5q0 139 88.5 228.5t238.5 89.5q43 0 77 -6.5t74 -20t46 -15.5l-29 -98q-11 3 -42 14.5t-63.5 19t-71.5 7.5q-92 0 -136.5 -56.5t-44.5 -145.5q0 -223 198 -223q19 0 35.5 1.5t23.5 3.5l7 2v84q0 37 -5 89l133 5v-248q-90 -32 -189 -32 zM363 665q-57 0 -100 33.5t-60 96.5l90 36l1 -3q2 -4 4.5 -8.5t6 -10t9.5 -11.5t12.5 -10.5t16 -7.5t20.5 -3q15 0 27.5 5.5t20 13.5t12.5 15.5t7 13.5l3 6l92 -37q-17 -61 -62.5 -95t-99.5 -34z" />
<glyph horiz-adv-x="649" d="M262 654l-61 69l151 124h38l148 -118l-59 -73l-108 74zM394 -10q-162 0 -251 76.5t-89 224.5q0 139 88.5 228.5t238.5 89.5q43 0 77 -6.5t74 -20t46 -15.5l-29 -98q-11 3 -42 14.5t-63.5 19t-71.5 7.5q-92 0 -136.5 -56.5t-44.5 -145.5q0 -223 198 -223q19 0 35.5 1.5 t23.5 3.5l7 2v84q0 37 -5 89l133 5v-248q-90 -32 -189 -32z" />
<glyph horiz-adv-x="649" d="M350 -376l-66 39q32 39 45 94q-28 5 -45 26t-17 51q0 38 24 60t59 22q36 0 58 -22.5t22 -68.5q0 -104 -80 -201zM394 -10q-162 0 -251 76.5t-89 224.5q0 139 88.5 228.5t238.5 89.5q43 0 77 -6.5t74 -20t46 -15.5l-29 -98q-11 3 -42 14.5t-63.5 19t-71.5 7.5 q-92 0 -136.5 -56.5t-44.5 -145.5q0 -223 198 -223q19 0 35.5 1.5t23.5 3.5l7 2v84q0 37 -5 89l133 5v-248q-90 -32 -189 -32z" />
<glyph horiz-adv-x="649" d="M394 -10q-162 0 -251 76.5t-89 224.5q0 139 88.5 228.5t238.5 89.5q43 0 77 -6.5t74 -20t46 -15.5l-29 -98q-11 3 -42 14.5t-63.5 19t-71.5 7.5q-92 0 -136.5 -56.5t-44.5 -145.5q0 -223 198 -223q19 0 35.5 1.5t23.5 3.5l7 2v84q0 37 -5 89l133 5v-248q-90 -32 -189 -32 zM356 662q-32 0 -55.5 23t-23.5 56q0 32 24.5 55.5t56.5 23.5q33 0 55.5 -23t22.5 -56t-24 -56t-56 -23z" />
<glyph horiz-adv-x="724" d="M92 0v498l-6 103l139 5v-259h274v151l-6 103l139 5v-513l5 -93h-138v253h-274v-160l5 -93h-138z" />
<glyph horiz-adv-x="779" d="M49 416v76h70v6l-6 103l139 5v-114h274v6l-6 103l139 5v-114h71v-76h-71v-323l5 -93h-138v253h-274v-160l5 -93h-138v416h-70zM252 347h274v69h-274v-69z" />
<glyph horiz-adv-x="724" d="M256 654l-61 69l151 124h38l148 -118l-59 -73l-108 74zM92 0v498l-6 103l139 5v-259h274v151l-6 103l139 5v-513l5 -93h-138v253h-274v-160l5 -93h-138z" />
<glyph horiz-adv-x="317" d="M92 0v498l-6 103l139 5v-513l5 -93h-138z" />
<glyph horiz-adv-x="627" d="M92 0v498l-6 103l139 5v-513l5 -93h-138zM372 -210l-78 62q6 8 25.5 31.5t24.5 30.5t18.5 26.5t17.5 31.5t11 31.5t9 40.5t2 46v408l-6 103l140 5v-515q0 -40 -8.5 -74.5t-18 -57.5t-36.5 -57t-42.5 -51t-58.5 -61z" />
<glyph horiz-adv-x="527" d="M92 0v498l-6 103l139 5v-514l173 3l111 6l-5 -101h-412z" />
<glyph horiz-adv-x="318" d="M63 -210l-78 62q6 8 25.5 31.5t24.5 30.5t18.5 26.5t17.5 31.5t11 31.5t9 40.5t2 46v408l-6 103l140 5v-515q0 -40 -8.5 -74.5t-18 -57.5t-36.5 -57t-42.5 -51t-58.5 -61z" />
<glyph horiz-adv-x="317" d="M153 664l-70 73l160 181l97 -100zM92 0v498l-6 103l139 5v-513l5 -93h-138z" />
<glyph horiz-adv-x="317" d="M92 0v498l-6 103l139 5v-513l5 -93h-138zM159 665q-57 0 -100 33.5t-60 96.5l90 36l1 -3q2 -4 4.5 -8.5t6 -10t9.5 -11.5t12.5 -10.5t16 -7.5t20.5 -3q15 0 27.5 5.5t20 13.5t12.5 15.5t7 13.5l3 6l92 -37q-17 -61 -62.5 -95t-99.5 -34z" />
<glyph horiz-adv-x="317" d="M51 654l-61 69l151 124h38l148 -118l-59 -73l-108 74zM92 0v498l-6 103l139 5v-513l5 -93h-138z" />
<glyph horiz-adv-x="317" d="M51 663q-34 0 -55.5 22t-21.5 59q0 39 23.5 60.5t60.5 21.5q36 0 56 -20.5t20 -57.5q0 -41 -22.5 -63t-60.5 -22zM259 663q-34 0 -55.5 22t-21.5 59q0 39 23.5 60.5t60.5 21.5q36 0 56 -20.5t20 -57.5q0 -41 -22.5 -63t-60.5 -22zM92 0v498l-6 103l139 5v-513l5 -93h-138 z" />
<glyph horiz-adv-x="317" d="M92 0v498l-6 103l139 5v-513l5 -93h-138zM157 662q-32 0 -55.5 23t-23.5 56q0 32 24.5 55.5t56.5 23.5q33 0 55.5 -23t22.5 -56t-24 -56t-56 -23z" />
<glyph horiz-adv-x="317" d="M92 0v498l-6 103l139 5v-513l5 -93h-138zM183 668l-187 154l96 101l160 -181z" />
<glyph horiz-adv-x="317" d="M92 0v498l-6 103l139 5v-513l5 -93h-138zM20 666v104h274v-104h-274z" />
<glyph horiz-adv-x="317" d="M92 0v498l-6 103l139 5v-513l5 -93q-35 -16 -59 -41t-24 -49q0 -38 52 -38q14 0 29.5 3t24.5 5l9 3v-65q-36 -17 -82 -17q-62 0 -95.5 24.5t-33.5 65.5q0 38 29.5 66.5t66.5 42.5h-55z" />
<glyph horiz-adv-x="317" d="M92 0v498l-6 103l139 5v-513l5 -93h-138zM225 671q-36 0 -72.5 18t-50.5 18q-16 0 -28 -12t-16 -27l-82 20q8 48 41 83.5t83 35.5q38 0 73.5 -18t48.5 -18q15 0 25 12.5t13 26.5l80 -20q-9 -57 -41.5 -88t-73.5 -31z" />
<glyph horiz-adv-x="318" d="M53 654l-61 69l151 124h38l148 -118l-59 -73l-108 74zM63 -210l-78 62q6 8 25.5 31.5t24.5 30.5t18.5 26.5t17.5 31.5t11 31.5t9 40.5t2 46v408l-6 103l140 5v-515q0 -40 -8.5 -74.5t-18 -57.5t-36.5 -57t-42.5 -51t-58.5 -61z" />
<glyph horiz-adv-x="593" d="M92 0v498l-6 103l139 5v-260h39l100 133q28 38 48.5 68t27.5 41l6 11h112q-24 -60 -112 -169l-91 -112l217 -318h-152l-170 255h-25v-162l5 -93h-138z" />
<glyph horiz-adv-x="593" d="M305 -376l-66 39q32 39 45 94q-28 5 -45 26t-17 51q0 38 24 60t59 22q36 0 58 -22.5t22 -68.5q0 -104 -80 -201zM92 0v498l-6 103l139 5v-260h39l100 133q28 38 48.5 68t27.5 41l6 11h112q-24 -60 -112 -169l-91 -112l217 -318h-152l-170 255h-25v-162l5 -93h-138z" />
<glyph horiz-adv-x="527" d="M92 0v498l-6 103l139 5v-514l173 3l111 6l-5 -101h-412zM173 664l-70 73l160 181l97 -100z" />
<glyph horiz-adv-x="560" d="M92 0v498l-6 103l139 5v-514l173 3l111 6l-5 -101h-412zM435 317l-66 39q32 39 45 94q-28 5 -45 26t-17 51q0 38 24 60t59 22q36 0 58 -22.5t22 -68.5q0 -104 -80 -201z" />
<glyph horiz-adv-x="525" d="M92 0v498l-6 103l139 5v-514l173 3l111 6l-5 -101h-412zM278 -376l-66 39q32 39 45 94q-28 5 -45 26t-17 51q0 38 24 60t59 22q36 0 58 -22.5t22 -68.5q0 -104 -80 -201z" />
<glyph horiz-adv-x="586" d="M92 0v498l-6 103l139 5v-514l173 3l111 6l-5 -101h-412zM467 284q-32 0 -55.5 23t-23.5 56q0 32 24.5 55.5t56.5 23.5q33 0 55.5 -23t22.5 -56t-24 -56t-56 -23z" />
<glyph horiz-adv-x="540" d="M38 155l-34 68l101 55v220l-6 103l139 5v-255l79 44l34 -67l-113 -63v-173l173 3l111 6l-5 -101h-412v192z" />
<glyph horiz-adv-x="850" d="M92 0v496l-5 105l127 5l210 -336l209 331l125 5v-515l5 -91h-139v294q0 40 2 75t4 50l1 15l-5 1q-14 -39 -52 -99l-145 -224h-42l-148 228q-13 20 -25 41.5t-18 32.5l-5 11l-3 -2q7 -40 7 -111v-222l5 -90h-108z" />
<glyph horiz-adv-x="716" d="M91 0v511l-5 90l110 5l294 -370q7 -9 14.5 -22.5t11.5 -22.5l4 -9l5 1q-5 37 -5 61v241l-5 116l110 5v-486l4 -120h-109l-291 364q-10 13 -18.5 28t-12.5 23l-3 8l-4 -1q5 -31 5 -71v-231l5 -120h-110z" />
<glyph horiz-adv-x="716" d="M362 665l-70 73l160 181l97 -100zM91 0v511l-5 90l110 5l294 -370q7 -9 14.5 -22.5t11.5 -22.5l4 -9l5 1q-5 37 -5 61v241l-5 116l110 5v-486l4 -120h-109l-291 364q-10 13 -18.5 28t-12.5 23l-3 8l-4 -1q5 -31 5 -71v-231l5 -120h-110z" />
<glyph horiz-adv-x="716" d="M475 858l61 -69l-151 -124h-38l-148 118l59 73l108 -74zM91 0v511l-5 90l110 5l294 -370q7 -9 14.5 -22.5t11.5 -22.5l4 -9l5 1q-5 37 -5 61v241l-5 116l110 5v-486l4 -120h-109l-291 364q-10 13 -18.5 28t-12.5 23l-3 8l-4 -1q5 -31 5 -71v-231l5 -120h-110z" />
<glyph horiz-adv-x="717" d="M353 -376l-66 39q32 39 45 94q-28 5 -45 26t-17 51q0 38 24 60t59 22q36 0 58 -22.5t22 -68.5q0 -104 -80 -201zM91 0v511l-5 90l110 5l294 -370q7 -9 14.5 -22.5t11.5 -22.5l4 -9l5 1q-5 37 -5 61v241l-5 116l110 5v-486l4 -120h-109l-291 364q-10 13 -18.5 28t-12.5 23 l-3 8l-4 -1q5 -31 5 -71v-231l5 -120h-110z" />
<glyph horiz-adv-x="716" d="M91 0v511l-5 90l110 5l294 -370q7 -9 14.5 -22.5t11.5 -22.5l4 -9l5 1q-5 37 -5 61v241l-5 116l110 5v-486l4 -120h-109l-291 364q-10 13 -18.5 28t-12.5 23l-3 8l-4 -1q5 -31 5 -71v-231l5 -120h-110zM438 671q-36 0 -72.5 18t-50.5 18q-16 0 -28 -12t-16 -27l-82 20 q8 48 41 83.5t83 35.5q38 0 73.5 -18t48.5 -18q15 0 25 12.5t13 26.5l80 -20q-9 -57 -41.5 -88t-73.5 -31z" />
<glyph horiz-adv-x="697" d="M361 81q67 0 104.5 53.5t37.5 138.5q0 246 -169 246q-68 0 -104.5 -54.5t-36.5 -141.5q0 -242 168 -242zM338 -10q-132 0 -206.5 83.5t-74.5 221.5q0 60 17 114.5t51 100.5t94 73t139 27q132 0 207 -85.5t75 -223.5q0 -60 -17 -114t-51 -99t-94.5 -71.5t-139.5 -26.5z " />
<glyph horiz-adv-x="966" d="M338 -10q-132 0 -206.5 83.5t-74.5 221.5q0 80 30.5 150t98.5 117.5t161 47.5q91 0 154 -44v35h412l-5 -96q-62 6 -119 7l-155 1v-169l214 3l-5 -95l-209 4v-169l168 2l116 7l-5 -96h-412v37q-64 -47 -163 -47zM356 83q96 0 145 69v271q-60 96 -146 96q-85 0 -123.5 -59 t-38.5 -156q0 -93 41 -157t122 -64z" />
<glyph horiz-adv-x="697" d="M361 81q67 0 104.5 53.5t37.5 138.5q0 246 -169 246q-68 0 -104.5 -54.5t-36.5 -141.5q0 -242 168 -242zM338 -10q-132 0 -206.5 83.5t-74.5 221.5q0 60 17 114.5t51 100.5t94 73t139 27q132 0 207 -85.5t75 -223.5q0 -60 -17 -114t-51 -99t-94.5 -71.5t-139.5 -26.5z M360 664l-70 73l160 181l97 -100z" />
<glyph horiz-adv-x="697" d="M361 81q67 0 104.5 53.5t37.5 138.5q0 246 -169 246q-68 0 -104.5 -54.5t-36.5 -141.5q0 -242 168 -242zM338 -10q-132 0 -206.5 83.5t-74.5 221.5q0 60 17 114.5t51 100.5t94 73t139 27q132 0 207 -85.5t75 -223.5q0 -60 -17 -114t-51 -99t-94.5 -71.5t-139.5 -26.5z M360 664q-57 0 -100 33.5t-60 96.5l90 36l2 -4q1 -3 3.5 -7.5t6 -10t9.5 -11.5t12.5 -10.5t16 -7.5t20.5 -3q15 0 27.5 5.5t20 13.5t12.5 15.5t8 13.5l2 6l92 -37q-17 -61 -62.5 -95t-99.5 -34z" />
<glyph horiz-adv-x="697" d="M236 654l-61 69l151 124h38l148 -118l-59 -73l-108 74zM361 81q67 0 104.5 53.5t37.5 138.5q0 246 -169 246q-68 0 -104.5 -54.5t-36.5 -141.5q0 -242 168 -242zM338 -10q-132 0 -206.5 83.5t-74.5 221.5q0 60 17 114.5t51 100.5t94 73t139 27q132 0 207 -85.5t75 -223.5 q0 -60 -17 -114t-51 -99t-94.5 -71.5t-139.5 -26.5z" />
<glyph horiz-adv-x="697" d="M231 661q-34 0 -55.5 22t-21.5 59q0 39 23.5 60.5t60.5 21.5q36 0 56 -20.5t20 -57.5q0 -41 -22.5 -63t-60.5 -22zM439 661q-34 0 -55.5 22t-21.5 59q0 39 23.5 60.5t60.5 21.5q36 0 56 -20.5t20 -57.5q0 -41 -22.5 -63t-60.5 -22zM361 81q67 0 104.5 53.5t37.5 138.5 q0 246 -169 246q-68 0 -104.5 -54.5t-36.5 -141.5q0 -242 168 -242zM338 -10q-132 0 -206.5 83.5t-74.5 221.5q0 60 17 114.5t51 100.5t94 73t139 27q132 0 207 -85.5t75 -223.5q0 -60 -17 -114t-51 -99t-94.5 -71.5t-139.5 -26.5z" />
<glyph horiz-adv-x="697" d="M361 81q67 0 104.5 53.5t37.5 138.5q0 246 -169 246q-68 0 -104.5 -54.5t-36.5 -141.5q0 -242 168 -242zM338 -10q-132 0 -206.5 83.5t-74.5 221.5q0 60 17 114.5t51 100.5t94 73t139 27q132 0 207 -85.5t75 -223.5q0 -60 -17 -114t-51 -99t-94.5 -71.5t-139.5 -26.5z M386 661l-187 154l96 101l160 -181z" />
<glyph horiz-adv-x="697" d="M361 81q67 0 104.5 53.5t37.5 138.5q0 246 -169 246q-68 0 -104.5 -54.5t-36.5 -141.5q0 -242 168 -242zM338 -10q-132 0 -206.5 83.5t-74.5 221.5q0 60 17 114.5t51 100.5t94 73t139 27q132 0 207 -85.5t75 -223.5q0 -60 -17 -114t-51 -99t-94.5 -71.5t-139.5 -26.5z M267 653l-66 70l160 181l93 -97zM456 653l-66 70l160 181l93 -97z" />
<glyph horiz-adv-x="697" d="M361 81q67 0 104.5 53.5t37.5 138.5q0 246 -169 246q-68 0 -104.5 -54.5t-36.5 -141.5q0 -242 168 -242zM338 -10q-132 0 -206.5 83.5t-74.5 221.5q0 60 17 114.5t51 100.5t94 73t139 27q132 0 207 -85.5t75 -223.5q0 -60 -17 -114t-51 -99t-94.5 -71.5t-139.5 -26.5z M212 666v104h274v-104h-274z" />
<glyph horiz-adv-x="697" d="M161 -64l-69 49l52 75q-87 82 -87 235q0 60 17 114.5t51 100.5t94 73t139 27q83 0 146 -36l55 78l69 -50l-58 -83q70 -84 70 -218q0 -60 -17 -114t-51 -99t-94.5 -71.5t-139.5 -26.5q-65 0 -123 24zM193 323q0 -98 27 -155l220 314q-40 37 -106 37q-68 0 -104.5 -54.5 t-36.5 -141.5zM361 81q67 0 104.5 53.5t37.5 138.5q0 74 -16 128l-210 -300q34 -20 84 -20z" />
<glyph horiz-adv-x="697" d="M361 663l-70 73l160 181l97 -100zM361 81q67 0 104.5 53.5t37.5 138.5q0 246 -169 246q-68 0 -104.5 -54.5t-36.5 -141.5q0 -242 168 -242zM338 -10q-132 0 -206.5 83.5t-74.5 221.5q0 60 17 114.5t51 100.5t94 73t139 27q132 0 207 -85.5t75 -223.5q0 -60 -17 -114 t-51 -99t-94.5 -71.5t-139.5 -26.5z" />
<glyph horiz-adv-x="697" d="M361 81q67 0 104.5 53.5t37.5 138.5q0 246 -169 246q-68 0 -104.5 -54.5t-36.5 -141.5q0 -242 168 -242zM338 -10q-132 0 -206.5 83.5t-74.5 221.5q0 60 17 114.5t51 100.5t94 73t139 27q132 0 207 -85.5t75 -223.5q0 -60 -17 -114t-51 -99t-94.5 -71.5t-139.5 -26.5z M419 657q-36 0 -72.5 18t-50.5 18q-16 0 -28 -12t-16 -27l-82 20q8 48 41 83.5t83 35.5q38 0 73.5 -18t48.5 -18q15 0 25 12.5t13 26.5l80 -20q-9 -57 -41.5 -88t-73.5 -31z" />
<glyph horiz-adv-x="587" d="M92 0v498l-6 103h221q122 0 180 -58.5t58 -153.5q0 -101 -65.5 -161.5t-187.5 -60.5h-67v-74l5 -93h-138zM225 262h62q62 0 92.5 30t30.5 97q0 60 -27 88.5t-90 28.5h-68v-244z" />
<glyph horiz-adv-x="697" d="M338 -10q-132 0 -206.5 83.5t-74.5 221.5q0 60 17 114.5t51 100.5t94 73t139 27q132 0 207 -85.5t75 -223.5q0 -90 -36.5 -164.5t-111.5 -113.5l93 -148q11 -17 24 -34t21 -25l7 -9l-140 -5l-112 191q-23 -3 -47 -3zM361 81q67 0 104.5 53.5t37.5 138.5q0 246 -169 246 q-68 0 -104.5 -54.5t-36.5 -141.5q0 -242 168 -242z" />
<glyph horiz-adv-x="616" d="M435 -5l-125 215q-13 -3 -42 -3h-43v-114l5 -93h-138v498l-6 103h211q112 0 175 -51.5t63 -140.5q0 -118 -108 -162l108 -171l52 -76zM225 302h52q123 0 123 107q0 97 -117 97h-58v-204z" />
<glyph horiz-adv-x="616" d="M306 664l-70 73l160 181l97 -100zM435 -5l-125 215q-13 -3 -42 -3h-43v-114l5 -93h-138v498l-6 103h211q112 0 175 -51.5t63 -140.5q0 -118 -108 -162l108 -171l52 -76zM225 302h52q123 0 123 107q0 97 -117 97h-58v-204z" />
<glyph horiz-adv-x="616" d="M400 855l61 -69l-151 -124h-38l-148 118l59 73l108 -74zM435 -5l-125 215q-13 -3 -42 -3h-43v-114l5 -93h-138v498l-6 103h211q112 0 175 -51.5t63 -140.5q0 -118 -108 -162l108 -171l52 -76zM225 302h52q123 0 123 107q0 97 -117 97h-58v-204z" />
<glyph horiz-adv-x="616" d="M304 -376l-66 39q32 39 45 94q-28 5 -45 26t-17 51q0 38 24 60t59 22q36 0 58 -22.5t22 -68.5q0 -104 -80 -201zM435 -5l-125 215q-13 -3 -42 -3h-43v-114l5 -93h-138v498l-6 103h211q112 0 175 -51.5t63 -140.5q0 -118 -108 -162l108 -171l52 -76zM225 302h52 q123 0 123 107q0 97 -117 97h-58v-204z" />
<glyph horiz-adv-x="520" d="M247 -11q-53 0 -101 9.5t-69 19.5l-21 10l28 90q82 -34 163 -34q92 0 92 64q0 36 -31 59.5t-107 51.5q-69 25 -107 70.5t-38 103.5q0 83 57.5 130t154.5 47q32 0 60.5 -4t44.5 -8.5t41 -12.5t36 -11l-37 -98q-13 4 -44.5 15t-59 17.5t-57.5 6.5t-48.5 -17.5t-18.5 -43.5 q0 -38 26 -58t86 -43q92 -35 132.5 -75.5t40.5 -110.5q0 -81 -59.5 -129.5t-163.5 -48.5z" />
<glyph horiz-adv-x="520" d="M271 664l-70 73l160 181l97 -100zM247 -11q-53 0 -101 9.5t-69 19.5l-21 10l28 90q82 -34 163 -34q92 0 92 64q0 36 -31 59.5t-107 51.5q-69 25 -107 70.5t-38 103.5q0 83 57.5 130t154.5 47q32 0 60.5 -4t44.5 -8.5t41 -12.5t36 -11l-37 -98q-13 4 -44.5 15t-59 17.5 t-57.5 6.5t-48.5 -17.5t-18.5 -43.5q0 -38 26 -58t86 -43q92 -35 132.5 -75.5t40.5 -110.5q0 -81 -59.5 -129.5t-163.5 -48.5z" />
<glyph horiz-adv-x="520" d="M375 855l61 -69l-151 -124h-38l-148 118l59 73l108 -74zM247 -11q-53 0 -101 9.5t-69 19.5l-21 10l28 90q82 -34 163 -34q92 0 92 64q0 36 -31 59.5t-107 51.5q-69 25 -107 70.5t-38 103.5q0 83 57.5 130t154.5 47q32 0 60.5 -4t44.5 -8.5t41 -12.5t36 -11l-37 -98 q-13 4 -44.5 15t-59 17.5t-57.5 6.5t-48.5 -17.5t-18.5 -43.5q0 -38 26 -58t86 -43q92 -35 132.5 -75.5t40.5 -110.5q0 -81 -59.5 -129.5t-163.5 -48.5z" />
<glyph horiz-adv-x="521" d="M252 -200q-64 0 -116 20l24 61q39 -10 76 -10q33 0 33 22q0 13 -16.5 17t-41.5 -8l-13 15l26 73q-47 2 -89 11.5t-60 18.5l-18 8l28 90q82 -34 163 -34q92 0 92 64q0 36 -31 59.5t-107 51.5q-69 25 -107 70.5t-38 103.5q0 83 57.5 130t154.5 47q32 0 60.5 -4t44.5 -8.5 t41 -12.5t36 -11l-37 -98q-13 4 -44.5 15t-59 17.5t-57.5 6.5t-48.5 -17.5t-18.5 -43.5q0 -38 26 -58t86 -43q92 -35 132.5 -75.5t40.5 -110.5q0 -71 -47.5 -118t-130.5 -57v-24q41 -4 64.5 -23t23.5 -53q0 -41 -35.5 -66.5t-93.5 -25.5z" />
<glyph horiz-adv-x="520" d="M154 654l-61 69l151 124h38l148 -118l-59 -73l-108 74zM247 -11q-53 0 -101 9.5t-69 19.5l-21 10l28 90q82 -34 163 -34q92 0 92 64q0 36 -31 59.5t-107 51.5q-69 25 -107 70.5t-38 103.5q0 83 57.5 130t154.5 47q32 0 60.5 -4t44.5 -8.5t41 -12.5t36 -11l-37 -98 q-13 4 -44.5 15t-59 17.5t-57.5 6.5t-48.5 -17.5t-18.5 -43.5q0 -38 26 -58t86 -43q92 -35 132.5 -75.5t40.5 -110.5q0 -81 -59.5 -129.5t-163.5 -48.5z" />
<glyph horiz-adv-x="519" d="M250 -376l-66 39q32 39 45 94q-28 5 -45 26t-17 51q0 38 24 60t59 22q36 0 58 -22.5t22 -68.5q0 -104 -80 -201zM247 -11q-53 0 -101 9.5t-69 19.5l-21 10l28 90q82 -34 163 -34q92 0 92 64q0 36 -31 59.5t-107 51.5q-69 25 -107 70.5t-38 103.5q0 83 57.5 130t154.5 47 q32 0 60.5 -4t44.5 -8.5t41 -12.5t36 -11l-37 -98q-13 4 -44.5 15t-59 17.5t-57.5 6.5t-48.5 -17.5t-18.5 -43.5q0 -38 26 -58t86 -43q92 -35 132.5 -75.5t40.5 -110.5q0 -81 -59.5 -129.5t-163.5 -48.5z" />
<glyph horiz-adv-x="552" d="M206 0v508l-106 -2l-77 -6l5 101h502l-5 -101q-47 5 -70 6l-116 2v-415l5 -93h-138z" />
<glyph horiz-adv-x="552" d="M106 247v82h100v179l-106 -2l-77 -6l5 101h502l-5 -101q-47 5 -70 6l-116 2v-179h101v-82h-101v-154l5 -93h-138v247h-100z" />
<glyph horiz-adv-x="552" d="M206 0v508l-106 -2l-77 -6l5 101h502l-5 -101q-47 5 -70 6l-116 2v-415l5 -93h-138zM385 855l61 -69l-151 -124h-38l-148 118l59 73l108 -74z" />
<glyph horiz-adv-x="549" d="M205 0v508l-106 -2l-77 -6l5 101h502l-5 -101q-47 5 -70 6l-116 2v-415l5 -93h-138zM271 -376l-66 39q32 39 45 94q-28 5 -45 26t-17 51q0 38 24 60t59 22q36 0 58 -22.5t22 -68.5q0 -104 -80 -201z" />
<glyph horiz-adv-x="581" d="M92 0v498l-6 103h139v-64h72q121 0 179.5 -62.5t58.5 -159.5q0 -102 -66.5 -167t-186.5 -65h-57v-16q0 -20 1.5 -37t2.5 -24l1 -6h-138zM278 447h-53v-274h47q61 0 94.5 36.5t33.5 105.5q0 61 -30 96.5t-92 35.5z" />
<glyph horiz-adv-x="699" d="M350 -11q-122 0 -193.5 70.5t-71.5 196.5v243q0 26 -1.5 51.5t-3.5 37.5l-1 12h144v-335q0 -82 30.5 -128.5t105.5 -46.5q146 0 146 178v231q0 27 -1.5 52t-3.5 37l-1 12h116v-327q0 -128 -68 -206t-197 -78z" />
<glyph horiz-adv-x="699" d="M368 660l-70 73l160 181l97 -100zM350 -11q-122 0 -193.5 70.5t-71.5 196.5v243q0 26 -1.5 51.5t-3.5 37.5l-1 12h144v-335q0 -82 30.5 -128.5t105.5 -46.5q146 0 146 178v231q0 27 -1.5 52t-3.5 37l-1 12h116v-327q0 -128 -68 -206t-197 -78z" />
<glyph horiz-adv-x="699" d="M350 -11q-122 0 -193.5 70.5t-71.5 196.5v243q0 26 -1.5 51.5t-3.5 37.5l-1 12h144v-335q0 -82 30.5 -128.5t105.5 -46.5q146 0 146 178v231q0 27 -1.5 52t-3.5 37l-1 12h116v-327q0 -128 -68 -206t-197 -78zM364 662q-57 0 -100 33.5t-60 96.5l90 36l2 -4q1 -3 3.5 -7.5 t6 -10t9.5 -11.5t12.5 -10.5t16 -7.5t20.5 -3q15 0 27.5 5.5t20 13.5t12.5 15.5t8 13.5l2 6l92 -37q-17 -61 -62.5 -95t-99.5 -34z" />
<glyph horiz-adv-x="699" d="M256 654l-61 69l151 124h38l148 -118l-59 -73l-108 74zM350 -11q-122 0 -193.5 70.5t-71.5 196.5v243q0 26 -1.5 51.5t-3.5 37.5l-1 12h144v-335q0 -82 30.5 -128.5t105.5 -46.5q146 0 146 178v231q0 27 -1.5 52t-3.5 37l-1 12h116v-327q0 -128 -68 -206t-197 -78z" />
<glyph horiz-adv-x="699" d="M250 660q-34 0 -55.5 22t-21.5 59q0 39 23.5 60.5t60.5 21.5q36 0 56 -20.5t20 -57.5q0 -41 -22.5 -63t-60.5 -22zM458 660q-34 0 -55.5 22t-21.5 59q0 39 23.5 60.5t60.5 21.5q36 0 56 -20.5t20 -57.5q0 -41 -22.5 -63t-60.5 -22zM350 -11q-122 0 -193.5 70.5 t-71.5 196.5v243q0 26 -1.5 51.5t-3.5 37.5l-1 12h144v-335q0 -82 30.5 -128.5t105.5 -46.5q146 0 146 178v231q0 27 -1.5 52t-3.5 37l-1 12h116v-327q0 -128 -68 -206t-197 -78z" />
<glyph horiz-adv-x="699" d="M397 659l-187 154l96 101l160 -181zM350 -11q-122 0 -193.5 70.5t-71.5 196.5v243q0 26 -1.5 51.5t-3.5 37.5l-1 12h144v-335q0 -82 30.5 -128.5t105.5 -46.5q146 0 146 178v231q0 27 -1.5 52t-3.5 37l-1 12h116v-327q0 -128 -68 -206t-197 -78z" />
<glyph horiz-adv-x="699" d="M268 651l-66 70l160 181l93 -97zM457 651l-66 70l160 181l93 -97zM350 -11q-122 0 -193.5 70.5t-71.5 196.5v243q0 26 -1.5 51.5t-3.5 37.5l-1 12h144v-335q0 -82 30.5 -128.5t105.5 -46.5q146 0 146 178v231q0 27 -1.5 52t-3.5 37l-1 12h116v-327q0 -128 -68 -206 t-197 -78z" />
<glyph horiz-adv-x="699" d="M231 662v104h274v-104h-274zM350 -11q-122 0 -193.5 70.5t-71.5 196.5v243q0 26 -1.5 51.5t-3.5 37.5l-1 12h144v-335q0 -82 30.5 -128.5t105.5 -46.5q146 0 146 178v231q0 27 -1.5 52t-3.5 37l-1 12h116v-327q0 -128 -68 -206t-197 -78z" />
<glyph horiz-adv-x="699" d="M390 -198q-62 0 -95.5 24.5t-33.5 65.5q0 59 70 98q-114 5 -180 74.5t-66 191.5v243q0 26 -1.5 51.5t-3.5 37.5l-1 12h144v-335q0 -82 30.5 -128.5t105.5 -46.5q146 0 146 178v231q0 27 -1.5 52t-3.5 37l-1 12h116v-327q0 -103 -45 -175t-131 -97h1q-35 -16 -59 -41 t-24 -49q0 -38 52 -38q14 0 29.5 2.5t24.5 5.5l9 3v-65q-36 -17 -82 -17z" />
<glyph horiz-adv-x="699" d="M356 725q22 0 22 38q0 36 -22 36q-11 0 -18 -10t-7 -26t7.5 -27t17.5 -11zM356 652q-54 0 -89.5 30t-35.5 81t35.5 81t89.5 30t89 -30t35 -81t-35 -81t-89 -30zM350 -11q-122 0 -193.5 70.5t-71.5 196.5v243q0 26 -1.5 51.5t-3.5 37.5l-1 12h144v-335q0 -82 30.5 -128.5 t105.5 -46.5q146 0 146 178v231q0 27 -1.5 52t-3.5 37l-1 12h116v-327q0 -128 -68 -206t-197 -78z" />
<glyph horiz-adv-x="699" d="M350 -11q-122 0 -193.5 70.5t-71.5 196.5v243q0 26 -1.5 51.5t-3.5 37.5l-1 12h144v-335q0 -82 30.5 -128.5t105.5 -46.5q146 0 146 178v231q0 27 -1.5 52t-3.5 37l-1 12h116v-327q0 -128 -68 -206t-197 -78zM431 659q-36 0 -72.5 18t-50.5 18q-16 0 -28 -12t-16 -27 l-82 20q8 48 41 83.5t83 35.5q38 0 73.5 -18t48.5 -18q15 0 25 12.5t13 26.5l80 -20q-9 -57 -41.5 -88t-73.5 -31z" />
<glyph horiz-adv-x="592" d="M246 -5l-196 505l-46 102l144 5l140 -373q8 -21 15 -42.5t9 -33.5l3 -11h3q7 35 25 83l92 252q26 69 36 117h107q-12 -53 -70 -197l-161 -401z" />
<glyph horiz-adv-x="910" d="M215 -6l-163 505q-15 44 -40 102l145 5l111 -355q7 -21 13 -46.5t9 -40.5l3 -16h4q7 47 20 93l102 360l105 4l101 -353q9 -32 14.5 -57.5t6.5 -35.5l2 -10h4q10 52 27 102l58 170q17 50 29.5 94.5t16.5 64.5l4 20h104q-17 -76 -60 -199l-143 -401l-115 -6l-99 337 q-6 20 -11 43.5t-7 36.5l-1 13h-5q-3 -43 -17 -92l-94 -332z" />
<glyph horiz-adv-x="910" d="M215 -6l-163 505q-15 44 -40 102l145 5l111 -355q7 -21 13 -46.5t9 -40.5l3 -16h4q7 47 20 93l102 360l105 4l101 -353q9 -32 14.5 -57.5t6.5 -35.5l2 -10h4q10 52 27 102l58 170q17 50 29.5 94.5t16.5 64.5l4 20h104q-17 -76 -60 -199l-143 -401l-115 -6l-99 337 q-6 20 -11 43.5t-7 36.5l-1 13h-5q-3 -43 -17 -92l-94 -332zM471 665l-70 73l160 181l97 -100z" />
<glyph horiz-adv-x="910" d="M362 654l-61 69l151 124h38l148 -118l-59 -73l-108 74zM215 -6l-163 505q-15 44 -40 102l145 5l111 -355q7 -21 13 -46.5t9 -40.5l3 -16h4q7 47 20 93l102 360l105 4l101 -353q9 -32 14.5 -57.5t6.5 -35.5l2 -10h4q10 52 27 102l58 170q17 50 29.5 94.5t16.5 64.5l4 20 h104q-17 -76 -60 -199l-143 -401l-115 -6l-99 337q-6 20 -11 43.5t-7 36.5l-1 13h-5q-3 -43 -17 -92l-94 -332z" />
<glyph horiz-adv-x="910" d="M357 663q-34 0 -55.5 22t-21.5 59q0 39 23.5 60.5t60.5 21.5q36 0 56 -20.5t20 -57.5q0 -41 -22.5 -63t-60.5 -22zM565 663q-34 0 -55.5 22t-21.5 59q0 39 23.5 60.5t60.5 21.5q36 0 56 -20.5t20 -57.5q0 -41 -22.5 -63t-60.5 -22zM215 -6l-163 505q-15 44 -40 102l145 5 l111 -355q7 -21 13 -46.5t9 -40.5l3 -16h4q7 47 20 93l102 360l105 4l101 -353q9 -32 14.5 -57.5t6.5 -35.5l2 -10h4q10 52 27 102l58 170q17 50 29.5 94.5t16.5 64.5l4 20h104q-17 -76 -60 -199l-143 -401l-115 -6l-99 337q-6 20 -11 43.5t-7 36.5l-1 13h-5q-3 -43 -17 -92 l-94 -332z" />
<glyph horiz-adv-x="910" d="M215 -6l-163 505q-15 44 -40 102l145 5l111 -355q7 -21 13 -46.5t9 -40.5l3 -16h4q7 47 20 93l102 360l105 4l101 -353q9 -32 14.5 -57.5t6.5 -35.5l2 -10h4q10 52 27 102l58 170q17 50 29.5 94.5t16.5 64.5l4 20h104q-17 -76 -60 -199l-143 -401l-115 -6l-99 337 q-6 20 -11 43.5t-7 36.5l-1 13h-5q-3 -43 -17 -92l-94 -332zM463 662l-187 154l96 101l160 -181z" />
<glyph horiz-adv-x="611" d="M440 -3l-150 220l-67 -96q-23 -33 -42 -63.5t-27 -44.5l-7 -14l-118 2q26 60 101 157l108 140l-151 219q-12 18 -28 38.5t-26 32.5l-10 12l155 5l142 -217l63 98q22 34 38.5 62.5t22.5 39.5l6 12h124q-22 -50 -96 -150l-107 -144l159 -222l65 -85z" />
<glyph horiz-adv-x="575" d="M224 0v235l-179 285l-56 81l147 5l169 -275l86 146q21 36 36.5 67t20.5 44l5 13h114q-25 -56 -85 -152l-125 -201v-155l5 -93h-138z" />
<glyph horiz-adv-x="575" d="M303 658l-70 73l160 181l97 -100zM224 0v235l-179 285l-56 81l147 5l169 -275l86 146q21 36 36.5 67t20.5 44l5 13h114q-25 -56 -85 -152l-125 -201v-155l5 -93h-138z" />
<glyph horiz-adv-x="575" d="M186 658l-61 69l151 124h38l148 -118l-59 -73l-108 74zM224 0v235l-179 285l-56 81l147 5l169 -275l86 146q21 36 36.5 67t20.5 44l5 13h114q-25 -56 -85 -152l-125 -201v-155l5 -93h-138z" />
<glyph horiz-adv-x="575" d="M188 663q-34 0 -55.5 22t-21.5 59q0 39 23.5 60.5t60.5 21.5q36 0 56 -20.5t20 -57.5q0 -41 -22.5 -63t-60.5 -22zM396 663q-34 0 -55.5 22t-21.5 59q0 39 23.5 60.5t60.5 21.5q36 0 56 -20.5t20 -57.5q0 -41 -22.5 -63t-60.5 -22zM224 0v235l-179 285l-56 81l147 5 l169 -275l86 146q21 36 36.5 67t20.5 44l5 13h114q-25 -56 -85 -152l-125 -201v-155l5 -93h-138z" />
<glyph horiz-adv-x="575" d="M224 0v235l-179 285l-56 81l147 5l169 -275l86 146q21 36 36.5 67t20.5 44l5 13h114q-25 -56 -85 -152l-125 -201v-155l5 -93h-138zM308 660l-187 154l96 101l160 -181z" />
<glyph horiz-adv-x="527" d="M43 0v55l262 453l-149 -1l-92 -6l5 98h394v-55l-262 -455l174 2q108 3 108 7l-5 -98h-435z" />
<glyph horiz-adv-x="527" d="M279 664l-70 73l160 181l97 -100zM43 0v55l262 453l-149 -1l-92 -6l5 98h394v-55l-262 -455l174 2q108 3 108 7l-5 -98h-435z" />
<glyph horiz-adv-x="527" d="M393 856l61 -69l-151 -124h-38l-148 118l59 73l108 -74zM43 0v55l262 453l-149 -1l-92 -6l5 98h394v-55l-262 -455l174 2q108 3 108 7l-5 -98h-435z" />
<glyph horiz-adv-x="527" d="M43 0v55l262 453l-149 -1l-92 -6l5 98h394v-55l-262 -455l174 2q108 3 108 7l-5 -98h-435zM272 663q-32 0 -55.5 23t-23.5 56q0 32 24.5 55.5t56.5 23.5q33 0 55.5 -23t22.5 -56t-24 -56t-56 -23z" />
<glyph horiz-adv-x="597" d="M447 -5l-49 125h-238q-23 -58 -36 -120h-107q13 60 70 200l161 401l101 6l196 -505l46 -102zM193 207h172l-62 162q-7 17 -12.5 36.5t-7.5 30.5l-2 11h-4q-8 -39 -24 -82z" />
<glyph horiz-adv-x="597" d="M92 0v515q0 22 -1.5 43.5t-2.5 31.5l-2 11h418l-5 -95q-53 5 -84 5l-190 2v-147h106q99 0 159 -44.5t60 -134.5q0 -91 -66.5 -139t-169.5 -48h-222zM225 92h86q44 0 71.5 24t27.5 68q0 36 -21 62.5t-72 26.5h-92v-181z" />
<glyph horiz-adv-x="584" d="M92 0v524q0 46 -6 77h185q122 0 178 -44.5t56 -118.5q0 -44 -25.5 -81t-67.5 -50v-3q118 -33 118 -135q0 -75 -60 -122t-161 -47h-217zM225 90h76q42 0 66.5 22.5t24.5 64.5q0 37 -25.5 58.5t-63.5 21.5h-78v-167zM225 346h106q4 2 10 7t16 24.5t10 44.5q0 44 -25 66.5 t-70 22.5h-47v-165z" />
<glyph horiz-adv-x="502" d="M92 -5v503l-6 103h398l-5 -98q-22 5 -71 6l-183 4v-420l5 -93z" />
<glyph horiz-adv-x="691" d="M19 -186l-3 278h58q50 81 74 195.5t27 313.5h402v-509h60v-182l5 -90l-117 -6l-3 186h-391v-90l5 -90zM196 92h248v415h-167q-8 -281 -81 -415z" />
<glyph horiz-adv-x="557" d="M92 0v498l-6 103h418l-5 -96q-32 5 -92 6l-182 2v-169l214 3l-5 -95l-209 4v-169l179 2l105 7l-5 -96h-412z" />
<glyph horiz-adv-x="557" d="M190 666q-34 0 -55.5 22t-21.5 59q0 39 23.5 60.5t60.5 21.5q36 0 56 -20.5t20 -57.5q0 -41 -22.5 -63t-60.5 -22zM398 666q-34 0 -55.5 22t-21.5 59q0 39 23.5 60.5t60.5 21.5q36 0 56 -20.5t20 -57.5q0 -41 -22.5 -63t-60.5 -22zM92 0v498l-6 103h418l-5 -96 q-32 5 -92 6l-182 2v-169l214 3l-5 -95l-209 4v-169l179 2l105 7l-5 -96h-412z" />
<glyph horiz-adv-x="869" d="M24 0l215 313l-92 117q-39 48 -68 90.5t-39 60.5l-9 18l120 10q23 -45 83 -130l94 -135h42v154l-6 103l135 5v-262h42l99 135q28 37 48 67.5t26 42.5l6 12h115q-32 -61 -117 -171l-89 -113l219 -317h-149l-163 258h-37v-165l5 -93h-134v258h-36l-164 -258h-146z" />
<glyph horiz-adv-x="519" d="M214 -10q-52 0 -98.5 9t-67.5 18l-20 9l27 91q78 -29 144 -29q123 0 123 86t-108 86h-68v93h64q48 0 74 21.5t26 57.5q0 75 -82 75q-30 0 -56 -6t-55.5 -17t-45.5 -15l-34 98q7 2 45.5 16t74 20.5t84.5 6.5q94 0 151.5 -44.5t57.5 -113.5q0 -51 -31.5 -88.5t-85.5 -50.5 v-3q56 -3 92.5 -40.5t36.5 -95.5q0 -86 -65 -135t-183 -49z" />
<glyph horiz-adv-x="724" d="M92 0v498l-6 103l139 5v-343q0 -25 -3.5 -49.5t-6.5 -36.5l-3 -12l5 -2q20 41 50 83l252 355h113v-508l5 -93h-138v346l5 92l-3 1q-15 -37 -48 -84l-248 -355h-113z" />
<glyph horiz-adv-x="724" d="M348 676q-101 0 -200 86l86 88q8 -7 32.5 -33.5t41.5 -37t40 -10.5q15 0 29 4t28 13.5t22.5 16.5t24.5 22t22 21l58 -90q-86 -80 -184 -80zM92 0v498l-6 103l139 5v-343q0 -25 -3.5 -49.5t-6.5 -36.5l-3 -12l5 -2q20 41 50 83l252 355h113v-508l5 -93h-138v346l5 92l-3 1 q-15 -37 -48 -84l-248 -355h-113z" />
<glyph horiz-adv-x="593" d="M92 0v498l-6 103l139 5v-260h39l100 133q28 38 48.5 68t27.5 41l6 11h112q-24 -60 -112 -169l-91 -112l217 -318h-152l-170 255h-25v-162l5 -93h-138z" />
<glyph horiz-adv-x="665" d="M76 -10l-69 100q57 31 88.5 79t50.5 151t24 281h403v-508l5 -93h-138v507h-159q-8 -231 -55.5 -345.5t-149.5 -171.5z" />
<glyph horiz-adv-x="850" d="M92 0v496l-5 105l127 5l210 -336l209 331l125 5v-515l5 -91h-139v294q0 40 2 75t4 50l1 15l-5 1q-14 -39 -52 -99l-145 -224h-42l-148 228q-13 20 -25 41.5t-18 32.5l-5 11l-3 -2q7 -40 7 -111v-222l5 -90h-108z" />
<glyph horiz-adv-x="724" d="M92 0v498l-6 103l139 5v-259h274v151l-6 103l139 5v-513l5 -93h-138v253h-274v-160l5 -93h-138z" />
<glyph horiz-adv-x="697" d="M361 81q67 0 104.5 53.5t37.5 138.5q0 246 -169 246q-68 0 -104.5 -54.5t-36.5 -141.5q0 -242 168 -242zM338 -10q-132 0 -206.5 83.5t-74.5 221.5q0 60 17 114.5t51 100.5t94 73t139 27q132 0 207 -85.5t75 -223.5q0 -60 -17 -114t-51 -99t-94.5 -71.5t-139.5 -26.5z " />
<glyph horiz-adv-x="704" d="M92 0v498l-6 103h526v-508l5 -93h-138v507h-254v-414l5 -93h-138z" />
<glyph horiz-adv-x="587" d="M92 0v498l-6 103h221q122 0 180 -58.5t58 -153.5q0 -101 -65.5 -161.5t-187.5 -60.5h-67v-74l5 -93h-138zM225 262h62q62 0 92.5 30t30.5 97q0 60 -27 88.5t-90 28.5h-68v-244z" />
<glyph horiz-adv-x="572" d="M353 -10q-132 0 -214 77.5t-82 223.5q0 62 17.5 118t51 101.5t89 72.5t125.5 27q40 0 73.5 -6.5t71 -20t46.5 -16.5l-29 -98q-16 4 -46 16t-58 19t-63 7q-138 0 -138 -208q0 -214 168 -214q38 0 75 7.5t55 14.5l18 7l13 -87q-7 -5 -20.5 -11.5t-58.5 -18t-94 -11.5z" />
<glyph horiz-adv-x="552" d="M206 0v508l-106 -2l-77 -6l5 101h502l-5 -101q-47 5 -70 6l-116 2v-415l5 -93h-138z" />
</font>
</defs>
</svg>
